<svg width="185" height="67" viewBox="0 0 185 67" fill="none" xmlns="http://www.w3.org/2000/svg">
<g clip-path="url(#clip0_20_38)">
<mask id="path-1-outside-1_20_38" maskUnits="userSpaceOnUse" x="-1" y="13" width="187" height="39" fill="black">
<rect fill="white" x="-1" y="13" width="187" height="39"/>
<path d="M1.4125 48.7656L7.36562 15.7891C7.39687 15.6641 7.475 15.6016 7.6 15.6016H14.5609C14.6859 15.6016 14.7641 15.6641 14.7953 15.7891L20.5141 48.7656C20.5297 48.9219 20.4672 49 20.3266 49H15.0062C14.85 49 14.7641 48.9219 14.7484 48.7656L14.2328 45.25H7.69375L7.17812 48.7656C7.1625 48.9219 7.08437 49 6.94375 49H1.6C1.475 49 1.4125 48.9219 1.4125 48.7656ZM10.8109 26.6406L8.65469 40.1172H13.2719L11.3031 26.6406L11.0219 24.8594L10.8109 26.6406ZM34.0703 49.4688C32.3672 49.4688 30.7969 49.0312 29.3594 48.1562C27.9375 47.2812 26.7969 46.1172 25.9375 44.6641C25.0937 43.1953 24.6719 41.5859 24.6719 39.8359V37.6328C24.6719 37.4609 24.75 37.375 24.9062 37.375H30.2969C30.4219 37.375 30.4844 37.4609 30.4844 37.6328V39.8359C30.4844 40.8828 30.8359 41.7891 31.5391 42.5547C32.2422 43.3047 33.0859 43.6797 34.0703 43.6797C35.0703 43.6797 35.9219 43.2969 36.625 42.5312C37.3281 41.75 37.6797 40.8516 37.6797 39.8359C37.6797 38.6641 36.9141 37.6406 35.3828 36.7656C35.1328 36.6094 34.8047 36.4219 34.3984 36.2031C34.0078 35.9688 33.5391 35.7031 32.9922 35.4062C32.4453 35.1094 31.9141 34.8203 31.3984 34.5391C30.8828 34.2422 30.3828 33.9609 29.8984 33.6953C28.1484 32.6641 26.8437 31.375 25.9844 29.8281C25.1406 28.2656 24.7187 26.5156 24.7187 24.5781C24.7187 22.7969 25.1562 21.1875 26.0312 19.75C26.9062 18.3281 28.0469 17.2031 29.4531 16.375C30.875 15.5312 32.4141 15.1094 34.0703 15.1094C35.7734 15.1094 37.3359 15.5312 38.7578 16.375C40.1797 17.2344 41.3125 18.375 42.1562 19.7969C43.0156 21.2188 43.4453 22.8125 43.4453 24.5781V28.5156C43.4453 28.6406 43.3828 28.7031 43.2578 28.7031H37.8672C37.7422 28.7031 37.6797 28.6406 37.6797 28.5156L37.6328 24.5781C37.6328 23.4531 37.2812 22.5391 36.5781 21.8359C35.875 21.1328 35.0391 20.7812 34.0703 20.7812C33.0859 20.7812 32.2422 21.1562 31.5391 21.9062C30.8359 22.6562 30.4844 23.5469 30.4844 24.5781C30.4844 25.625 30.7031 26.5 31.1406 27.2031C31.5937 27.9062 32.4141 28.5781 33.6016 29.2188C33.7266 29.2812 34.0156 29.4375 34.4687 29.6875C34.9219 29.9375 35.4219 30.2188 35.9687 30.5312C36.5312 30.8281 37.0391 31.1016 37.4922 31.3516C37.9453 31.5859 38.2187 31.7266 38.3125 31.7734C39.9062 32.6641 41.1641 33.7578 42.0859 35.0547C43.0234 36.3516 43.4922 37.9453 43.4922 39.8359C43.4922 41.6641 43.0703 43.3047 42.2266 44.7578C41.3672 46.2109 40.2266 47.3594 38.8047 48.2031C37.3828 49.0469 35.8047 49.4688 34.0703 49.4688ZM57.3766 49.4688C55.6734 49.4688 54.1031 49.0312 52.6656 48.1562C51.2437 47.2812 50.1031 46.1172 49.2437 44.6641C48.4 43.1953 47.9781 41.5859 47.9781 39.8359V37.6328C47.9781 37.4609 48.0562 37.375 48.2125 37.375H53.6031C53.7281 37.375 53.7906 37.4609 53.7906 37.6328V39.8359C53.7906 40.8828 54.1422 41.7891 54.8453 42.5547C55.5484 43.3047 56.3922 43.6797 57.3766 43.6797C58.3766 43.6797 59.2281 43.2969 59.9312 42.5312C60.6344 41.75 60.9859 40.8516 60.9859 39.8359C60.9859 38.6641 60.2203 37.6406 58.6891 36.7656C58.4391 36.6094 58.1109 36.4219 57.7047 36.2031C57.3141 35.9688 56.8453 35.7031 56.2984 35.4062C55.7516 35.1094 55.2203 34.8203 54.7047 34.5391C54.1891 34.2422 53.6891 33.9609 53.2047 33.6953C51.4547 32.6641 50.15 31.375 49.2906 29.8281C48.4469 28.2656 48.025 26.5156 48.025 24.5781C48.025 22.7969 48.4625 21.1875 49.3375 19.75C50.2125 18.3281 51.3531 17.2031 52.7594 16.375C54.1812 15.5312 55.7203 15.1094 57.3766 15.1094C59.0797 15.1094 60.6422 15.5312 62.0641 16.375C63.4859 17.2344 64.6187 18.375 65.4625 19.7969C66.3219 21.2188 66.7516 22.8125 66.7516 24.5781V28.5156C66.7516 28.6406 66.6891 28.7031 66.5641 28.7031H61.1734C61.0484 28.7031 60.9859 28.6406 60.9859 28.5156L60.9391 24.5781C60.9391 23.4531 60.5875 22.5391 59.8844 21.8359C59.1812 21.1328 58.3453 20.7812 57.3766 20.7812C56.3922 20.7812 55.5484 21.1562 54.8453 21.9062C54.1422 22.6562 53.7906 23.5469 53.7906 24.5781C53.7906 25.625 54.0094 26.5 54.4469 27.2031C54.9 27.9062 55.7203 28.5781 56.9078 29.2188C57.0328 29.2812 57.3219 29.4375 57.775 29.6875C58.2281 29.9375 58.7281 30.2188 59.275 30.5312C59.8375 30.8281 60.3453 31.1016 60.7984 31.3516C61.2516 31.5859 61.525 31.7266 61.6187 31.7734C63.2125 32.6641 64.4703 33.7578 65.3922 35.0547C66.3297 36.3516 66.7984 37.9453 66.7984 39.8359C66.7984 41.6641 66.3766 43.3047 65.5328 44.7578C64.6734 46.2109 63.5328 47.3594 62.1109 48.2031C60.6891 49.0469 59.1109 49.4688 57.3766 49.4688ZM88.2297 49H72.7141C72.5891 49 72.5266 48.9219 72.5266 48.7656L72.5734 15.7891C72.5734 15.6641 72.6359 15.6016 72.7609 15.6016H88.1828C88.3078 15.6016 88.3703 15.6797 88.3703 15.8359V21.2031C88.3703 21.3281 88.3078 21.3906 88.1828 21.3906H78.3391V28.8906H88.1828C88.3078 28.8906 88.3703 28.9531 88.3703 29.0781L88.4172 34.5156C88.4172 34.6406 88.3547 34.7031 88.2297 34.7031H78.3391V43.0938H88.2297C88.3547 43.0938 88.4172 43.1719 88.4172 43.3281V48.8125C88.4172 48.9375 88.3547 49 88.2297 49ZM100.708 49H95.2703C95.1453 49 95.0828 48.9219 95.0828 48.7656L95.1766 15.7891C95.1766 15.6641 95.2391 15.6016 95.3641 15.6016H101.223C101.348 15.6016 101.458 15.6641 101.552 15.7891L105.934 22.1172L110.294 15.7891C110.387 15.6641 110.505 15.6016 110.645 15.6016H116.528C116.669 15.6016 116.739 15.6641 116.739 15.7891L116.833 48.7656C116.833 48.9219 116.77 49 116.645 49H111.208C111.083 49 111.02 48.9219 111.02 48.7656L110.973 24.2734L105.934 31.5859L100.942 24.2734L100.895 48.7656C100.895 48.9219 100.833 49 100.708 49ZM132.053 49H123.452C123.327 49 123.264 48.9219 123.264 48.7656L123.358 15.7891C123.358 15.6641 123.42 15.6016 123.545 15.6016H132.78C134.577 15.6016 136.209 16.0391 137.678 16.9141C139.116 17.7891 140.248 18.9531 141.077 20.4062C141.905 21.8438 142.319 23.4062 142.319 25.0938C142.319 26.4688 142.006 27.75 141.381 28.9375C140.756 30.125 140.014 31.0859 139.155 31.8203C140.077 32.7422 140.795 33.8125 141.311 35.0312C141.827 36.25 142.084 37.5312 142.084 38.875C142.084 40.7344 141.639 42.4297 140.748 43.9609C139.842 45.4922 138.631 46.7188 137.116 47.6406C135.6 48.5469 133.912 49 132.053 49ZM132.78 21.2969H129.123V28.8438H132.78C133.889 28.8438 134.787 28.4531 135.475 27.6719C136.162 26.875 136.506 26.0156 136.506 25.0938C136.506 24.0781 136.139 23.1953 135.405 22.4453C134.67 21.6797 133.795 21.2969 132.78 21.2969ZM132.053 34.6562H129.123L129.077 43.1406H132.053C133.209 43.1406 134.202 42.7188 135.03 41.875C135.858 41.0312 136.272 40.0312 136.272 38.875C136.272 37.7188 135.858 36.7266 135.03 35.8984C134.202 35.0703 133.209 34.6562 132.053 34.6562ZM163.633 49H148.117C147.992 49 147.93 48.9219 147.93 48.7656L147.977 15.8359C147.977 15.6797 148.055 15.6016 148.211 15.6016H153.555C153.711 15.6016 153.789 15.6797 153.789 15.8359L153.742 43.0938H163.633C163.789 43.0938 163.867 43.1719 163.867 43.3281V48.7656C163.867 48.9219 163.789 49 163.633 49ZM176.509 49H171.002C170.892 49 170.837 48.9375 170.837 48.8125L170.884 35.1719L164.462 15.7891C164.431 15.6641 164.478 15.6016 164.603 15.6016H169.947C170.103 15.6016 170.197 15.6641 170.228 15.7891L173.767 28.7031L177.377 15.7891C177.408 15.6641 177.486 15.6016 177.611 15.6016H183.002C183.127 15.6016 183.173 15.6641 183.142 15.7891L176.65 34.9844L176.697 48.8125C176.697 48.9375 176.634 49 176.509 49Z"/>
</mask>
<path d="M1.4125 48.7656L7.36562 15.7891C7.39687 15.6641 7.475 15.6016 7.6 15.6016H14.5609C14.6859 15.6016 14.7641 15.6641 14.7953 15.7891L20.5141 48.7656C20.5297 48.9219 20.4672 49 20.3266 49H15.0062C14.85 49 14.7641 48.9219 14.7484 48.7656L14.2328 45.25H7.69375L7.17812 48.7656C7.1625 48.9219 7.08437 49 6.94375 49H1.6C1.475 49 1.4125 48.9219 1.4125 48.7656ZM10.8109 26.6406L8.65469 40.1172H13.2719L11.3031 26.6406L11.0219 24.8594L10.8109 26.6406ZM34.0703 49.4688C32.3672 49.4688 30.7969 49.0312 29.3594 48.1562C27.9375 47.2812 26.7969 46.1172 25.9375 44.6641C25.0937 43.1953 24.6719 41.5859 24.6719 39.8359V37.6328C24.6719 37.4609 24.75 37.375 24.9062 37.375H30.2969C30.4219 37.375 30.4844 37.4609 30.4844 37.6328V39.8359C30.4844 40.8828 30.8359 41.7891 31.5391 42.5547C32.2422 43.3047 33.0859 43.6797 34.0703 43.6797C35.0703 43.6797 35.9219 43.2969 36.625 42.5312C37.3281 41.75 37.6797 40.8516 37.6797 39.8359C37.6797 38.6641 36.9141 37.6406 35.3828 36.7656C35.1328 36.6094 34.8047 36.4219 34.3984 36.2031C34.0078 35.9688 33.5391 35.7031 32.9922 35.4062C32.4453 35.1094 31.9141 34.8203 31.3984 34.5391C30.8828 34.2422 30.3828 33.9609 29.8984 33.6953C28.1484 32.6641 26.8437 31.375 25.9844 29.8281C25.1406 28.2656 24.7187 26.5156 24.7187 24.5781C24.7187 22.7969 25.1562 21.1875 26.0312 19.75C26.9062 18.3281 28.0469 17.2031 29.4531 16.375C30.875 15.5312 32.4141 15.1094 34.0703 15.1094C35.7734 15.1094 37.3359 15.5312 38.7578 16.375C40.1797 17.2344 41.3125 18.375 42.1562 19.7969C43.0156 21.2188 43.4453 22.8125 43.4453 24.5781V28.5156C43.4453 28.6406 43.3828 28.7031 43.2578 28.7031H37.8672C37.7422 28.7031 37.6797 28.6406 37.6797 28.5156L37.6328 24.5781C37.6328 23.4531 37.2812 22.5391 36.5781 21.8359C35.875 21.1328 35.0391 20.7812 34.0703 20.7812C33.0859 20.7812 32.2422 21.1562 31.5391 21.9062C30.8359 22.6562 30.4844 23.5469 30.4844 24.5781C30.4844 25.625 30.7031 26.5 31.1406 27.2031C31.5937 27.9062 32.4141 28.5781 33.6016 29.2188C33.7266 29.2812 34.0156 29.4375 34.4687 29.6875C34.9219 29.9375 35.4219 30.2188 35.9687 30.5312C36.5312 30.8281 37.0391 31.1016 37.4922 31.3516C37.9453 31.5859 38.2187 31.7266 38.3125 31.7734C39.9062 32.6641 41.1641 33.7578 42.0859 35.0547C43.0234 36.3516 43.4922 37.9453 43.4922 39.8359C43.4922 41.6641 43.0703 43.3047 42.2266 44.7578C41.3672 46.2109 40.2266 47.3594 38.8047 48.2031C37.3828 49.0469 35.8047 49.4688 34.0703 49.4688ZM57.3766 49.4688C55.6734 49.4688 54.1031 49.0312 52.6656 48.1562C51.2437 47.2812 50.1031 46.1172 49.2437 44.6641C48.4 43.1953 47.9781 41.5859 47.9781 39.8359V37.6328C47.9781 37.4609 48.0562 37.375 48.2125 37.375H53.6031C53.7281 37.375 53.7906 37.4609 53.7906 37.6328V39.8359C53.7906 40.8828 54.1422 41.7891 54.8453 42.5547C55.5484 43.3047 56.3922 43.6797 57.3766 43.6797C58.3766 43.6797 59.2281 43.2969 59.9312 42.5312C60.6344 41.75 60.9859 40.8516 60.9859 39.8359C60.9859 38.6641 60.2203 37.6406 58.6891 36.7656C58.4391 36.6094 58.1109 36.4219 57.7047 36.2031C57.3141 35.9688 56.8453 35.7031 56.2984 35.4062C55.7516 35.1094 55.2203 34.8203 54.7047 34.5391C54.1891 34.2422 53.6891 33.9609 53.2047 33.6953C51.4547 32.6641 50.15 31.375 49.2906 29.8281C48.4469 28.2656 48.025 26.5156 48.025 24.5781C48.025 22.7969 48.4625 21.1875 49.3375 19.75C50.2125 18.3281 51.3531 17.2031 52.7594 16.375C54.1812 15.5312 55.7203 15.1094 57.3766 15.1094C59.0797 15.1094 60.6422 15.5312 62.0641 16.375C63.4859 17.2344 64.6187 18.375 65.4625 19.7969C66.3219 21.2188 66.7516 22.8125 66.7516 24.5781V28.5156C66.7516 28.6406 66.6891 28.7031 66.5641 28.7031H61.1734C61.0484 28.7031 60.9859 28.6406 60.9859 28.5156L60.9391 24.5781C60.9391 23.4531 60.5875 22.5391 59.8844 21.8359C59.1812 21.1328 58.3453 20.7812 57.3766 20.7812C56.3922 20.7812 55.5484 21.1562 54.8453 21.9062C54.1422 22.6562 53.7906 23.5469 53.7906 24.5781C53.7906 25.625 54.0094 26.5 54.4469 27.2031C54.9 27.9062 55.7203 28.5781 56.9078 29.2188C57.0328 29.2812 57.3219 29.4375 57.775 29.6875C58.2281 29.9375 58.7281 30.2188 59.275 30.5312C59.8375 30.8281 60.3453 31.1016 60.7984 31.3516C61.2516 31.5859 61.525 31.7266 61.6187 31.7734C63.2125 32.6641 64.4703 33.7578 65.3922 35.0547C66.3297 36.3516 66.7984 37.9453 66.7984 39.8359C66.7984 41.6641 66.3766 43.3047 65.5328 44.7578C64.6734 46.2109 63.5328 47.3594 62.1109 48.2031C60.6891 49.0469 59.1109 49.4688 57.3766 49.4688ZM88.2297 49H72.7141C72.5891 49 72.5266 48.9219 72.5266 48.7656L72.5734 15.7891C72.5734 15.6641 72.6359 15.6016 72.7609 15.6016H88.1828C88.3078 15.6016 88.3703 15.6797 88.3703 15.8359V21.2031C88.3703 21.3281 88.3078 21.3906 88.1828 21.3906H78.3391V28.8906H88.1828C88.3078 28.8906 88.3703 28.9531 88.3703 29.0781L88.4172 34.5156C88.4172 34.6406 88.3547 34.7031 88.2297 34.7031H78.3391V43.0938H88.2297C88.3547 43.0938 88.4172 43.1719 88.4172 43.3281V48.8125C88.4172 48.9375 88.3547 49 88.2297 49ZM100.708 49H95.2703C95.1453 49 95.0828 48.9219 95.0828 48.7656L95.1766 15.7891C95.1766 15.6641 95.2391 15.6016 95.3641 15.6016H101.223C101.348 15.6016 101.458 15.6641 101.552 15.7891L105.934 22.1172L110.294 15.7891C110.387 15.6641 110.505 15.6016 110.645 15.6016H116.528C116.669 15.6016 116.739 15.6641 116.739 15.7891L116.833 48.7656C116.833 48.9219 116.77 49 116.645 49H111.208C111.083 49 111.02 48.9219 111.02 48.7656L110.973 24.2734L105.934 31.5859L100.942 24.2734L100.895 48.7656C100.895 48.9219 100.833 49 100.708 49ZM132.053 49H123.452C123.327 49 123.264 48.9219 123.264 48.7656L123.358 15.7891C123.358 15.6641 123.42 15.6016 123.545 15.6016H132.78C134.577 15.6016 136.209 16.0391 137.678 16.9141C139.116 17.7891 140.248 18.9531 141.077 20.4062C141.905 21.8438 142.319 23.4062 142.319 25.0938C142.319 26.4688 142.006 27.75 141.381 28.9375C140.756 30.125 140.014 31.0859 139.155 31.8203C140.077 32.7422 140.795 33.8125 141.311 35.0312C141.827 36.25 142.084 37.5312 142.084 38.875C142.084 40.7344 141.639 42.4297 140.748 43.9609C139.842 45.4922 138.631 46.7188 137.116 47.6406C135.6 48.5469 133.912 49 132.053 49ZM132.78 21.2969H129.123V28.8438H132.78C133.889 28.8438 134.787 28.4531 135.475 27.6719C136.162 26.875 136.506 26.0156 136.506 25.0938C136.506 24.0781 136.139 23.1953 135.405 22.4453C134.67 21.6797 133.795 21.2969 132.78 21.2969ZM132.053 34.6562H129.123L129.077 43.1406H132.053C133.209 43.1406 134.202 42.7188 135.03 41.875C135.858 41.0312 136.272 40.0312 136.272 38.875C136.272 37.7188 135.858 36.7266 135.03 35.8984C134.202 35.0703 133.209 34.6562 132.053 34.6562ZM163.633 49H148.117C147.992 49 147.93 48.9219 147.93 48.7656L147.977 15.8359C147.977 15.6797 148.055 15.6016 148.211 15.6016H153.555C153.711 15.6016 153.789 15.6797 153.789 15.8359L153.742 43.0938H163.633C163.789 43.0938 163.867 43.1719 163.867 43.3281V48.7656C163.867 48.9219 163.789 49 163.633 49ZM176.509 49H171.002C170.892 49 170.837 48.9375 170.837 48.8125L170.884 35.1719L164.462 15.7891C164.431 15.6641 164.478 15.6016 164.603 15.6016H169.947C170.103 15.6016 170.197 15.6641 170.228 15.7891L173.767 28.7031L177.377 15.7891C177.408 15.6641 177.486 15.6016 177.611 15.6016H183.002C183.127 15.6016 183.173 15.6641 183.142 15.7891L176.65 34.9844L176.697 48.8125C176.697 48.9375 176.634 49 176.509 49Z" fill="black" fill-opacity="0.6"/>
<path d="M1.4125 48.7656L-0.555687 48.4103L-0.587502 48.5865V48.7656H1.4125ZM7.36562 15.7891L5.42534 15.304L5.40923 15.3684L5.39744 15.4338L7.36562 15.7891ZM14.7953 15.7891L16.7659 15.4473L16.7534 15.3751L16.7356 15.304L14.7953 15.7891ZM20.5141 48.7656L22.5041 48.5666L22.497 48.4949L22.4846 48.4239L20.5141 48.7656ZM14.7484 48.7656L16.7385 48.5666L16.7339 48.5209L16.7273 48.4754L14.7484 48.7656ZM14.2328 45.25L16.2116 44.9598L15.9609 43.25H14.2328V45.25ZM7.69375 45.25V43.25H5.96569L5.71492 44.9598L7.69375 45.25ZM7.17812 48.7656L5.19929 48.4754L5.19262 48.5209L5.18805 48.5666L7.17812 48.7656ZM10.8109 26.6406L12.7858 26.9566L12.7923 26.9163L12.7971 26.8758L10.8109 26.6406ZM8.65469 40.1172L6.6798 39.8012L6.30925 42.1172H8.65469V40.1172ZM13.2719 40.1172V42.1172H15.5853L15.2509 39.8281L13.2719 40.1172ZM11.3031 26.6406L13.2821 26.3515L13.2804 26.3401L13.2786 26.3287L11.3031 26.6406ZM11.0219 24.8594L12.9974 24.5474L9.03575 24.6242L11.0219 24.8594ZM3.38068 49.1209L9.33381 16.1444L5.39744 15.4338L-0.555687 48.4103L3.38068 49.1209ZM9.30591 16.2741C9.24611 16.5133 9.08733 16.8979 8.69704 17.2102C8.30048 17.5274 7.87573 17.6016 7.6 17.6016V13.6016C7.19926 13.6016 6.67296 13.7069 6.19826 14.0867C5.72985 14.4614 5.51639 14.9398 5.42534 15.304L9.30591 16.2741ZM7.6 17.6016H14.5609V13.6016H7.6V17.6016ZM14.5609 17.6016C14.2852 17.6016 13.8605 17.5274 13.4639 17.2102C13.0736 16.8979 12.9148 16.5133 12.855 16.2741L16.7356 15.304C16.6445 14.9398 16.4311 14.4614 15.9627 14.0867C15.488 13.7069 14.9617 13.6016 14.5609 13.6016V17.6016ZM12.8247 16.1308L18.5435 49.1074L22.4846 48.4239L16.7659 15.4473L12.8247 16.1308ZM18.524 48.9646C18.5084 48.809 18.4778 48.2413 18.9172 47.692C19.4022 47.0858 20.0484 47 20.3266 47V51C20.7454 51 21.4931 50.8752 22.0406 50.1908C22.5425 49.5634 22.5353 48.8785 22.5041 48.5666L18.524 48.9646ZM20.3266 47H15.0062V51H20.3266V47ZM15.0062 47C15.2512 47 15.7334 47.0646 16.17 47.4615C16.6051 47.8571 16.7147 48.3281 16.7385 48.5666L12.7584 48.9646C12.7978 49.3594 12.9582 49.9476 13.4793 50.4213C14.0018 50.8963 14.605 51 15.0062 51V47ZM16.7273 48.4754L16.2116 44.9598L12.254 45.5402L12.7696 49.0559L16.7273 48.4754ZM14.2328 43.25H7.69375V47.25H14.2328V43.25ZM5.71492 44.9598L5.19929 48.4754L9.15695 49.0559L9.67258 45.5402L5.71492 44.9598ZM5.18805 48.5666C5.20719 48.3752 5.29288 47.9279 5.6936 47.5272C6.12487 47.0959 6.63555 47 6.94375 47V51C7.39258 51 8.01262 50.865 8.52202 50.3556C9.00087 49.8768 9.13343 49.3123 9.1682 48.9646L5.18805 48.5666ZM6.94375 47H1.6V51H6.94375V47ZM1.6 47C1.97891 47 2.57992 47.1405 3.02111 47.692C3.39413 48.1583 3.4125 48.6301 3.4125 48.7656H-0.587502C-0.587502 49.0574 -0.537884 49.6464 -0.102364 50.1908C0.401331 50.8204 1.09609 51 1.6 51V47ZM8.83605 26.3246L6.6798 39.8012L10.6296 40.4332L12.7858 26.9566L8.83605 26.3246ZM8.65469 42.1172H13.2719V38.1172H8.65469V42.1172ZM15.2509 39.8281L13.2821 26.3515L9.32413 26.9297L11.2929 40.4063L15.2509 39.8281ZM13.2786 26.3287L12.9974 24.5474L9.04635 25.1713L9.3276 26.9526L13.2786 26.3287ZM9.03575 24.6242L8.82481 26.4054L12.7971 26.8758L13.008 25.0946L9.03575 24.6242ZM29.3594 48.1562L28.3112 49.8596L28.3195 49.8646L29.3594 48.1562ZM25.9375 44.6641L24.2033 45.6603L24.2096 45.6713L24.216 45.6821L25.9375 44.6641ZM31.5391 42.5547L30.066 43.9075L30.073 43.9151L30.08 43.9226L31.5391 42.5547ZM36.625 42.5312L38.0981 43.8841L38.1049 43.8767L38.1116 43.8692L36.625 42.5312ZM35.3828 36.7656L34.3228 38.4616L34.3563 38.4825L34.3905 38.5021L35.3828 36.7656ZM34.3984 36.2031L33.3694 37.9181L33.4093 37.942L33.4502 37.9641L34.3984 36.2031ZM31.3984 34.5391L30.4005 36.2723L30.4205 36.2838L30.4407 36.2949L31.3984 34.5391ZM29.8984 33.6953L28.8831 35.4184L28.9097 35.4341L28.9368 35.4489L29.8984 33.6953ZM25.9844 29.8281L24.2246 30.7784L24.2302 30.789L24.2361 30.7994L25.9844 29.8281ZM26.0312 19.75L24.3279 18.7018L24.3229 18.7101L26.0312 19.75ZM29.4531 16.375L30.468 18.0984L30.4738 18.095L29.4531 16.375ZM38.7578 16.375L39.7923 14.6633L39.7854 14.6592L39.7785 14.655L38.7578 16.375ZM42.1562 19.7969L40.4363 20.8175L40.4404 20.8245L40.4446 20.8314L42.1562 19.7969ZM37.6797 28.5156H39.6797V28.5037L39.6795 28.4918L37.6797 28.5156ZM37.6328 24.5781H35.6328V24.59L35.633 24.6019L37.6328 24.5781ZM31.1406 27.2031L29.4425 28.2597L29.4509 28.2732L29.4595 28.2865L31.1406 27.2031ZM33.6016 29.2188L32.652 30.9789L32.6793 30.9937L32.7071 31.0076L33.6016 29.2188ZM35.9687 30.5312L34.9765 32.2677L35.0056 32.2844L35.0352 32.3L35.9687 30.5312ZM37.4922 31.3516L36.526 33.1027L36.5495 33.1157L36.5733 33.128L37.4922 31.3516ZM38.3125 31.7734L39.2881 30.0276L39.248 30.0051L39.2069 29.9846L38.3125 31.7734ZM42.0859 35.0547L40.4558 36.2134L40.4604 36.2199L40.4651 36.2264L42.0859 35.0547ZM42.2266 44.7578L43.948 45.7759L43.9521 45.769L43.9561 45.7621L42.2266 44.7578ZM34.0703 47.4688C32.7293 47.4688 31.5195 47.1297 30.3993 46.4479L28.3195 49.8646C30.0743 50.9328 32.005 51.4688 34.0703 51.4688V47.4688ZM30.4076 46.4529C29.2657 45.7502 28.3549 44.8227 27.659 43.646L24.216 45.6821C25.2389 47.4117 26.6093 48.8123 28.3112 49.8596L30.4076 46.4529ZM27.6717 43.6678C27.008 42.5125 26.6719 41.2484 26.6719 39.8359H22.6719C22.6719 41.9234 23.1795 43.8781 24.2033 45.6603L27.6717 43.6678ZM26.6719 39.8359V37.6328H22.6719V39.8359H26.6719ZM26.6719 37.6328C26.6719 37.8105 26.6356 38.317 26.2103 38.7848C25.7522 39.2887 25.1881 39.375 24.9062 39.375V35.375C24.4681 35.375 23.7868 35.5043 23.2506 36.0941C22.7472 36.6478 22.6719 37.2832 22.6719 37.6328H26.6719ZM24.9062 39.375H30.2969V35.375H24.9062V39.375ZM30.2969 39.375C29.8479 39.375 29.2348 39.186 28.82 38.6158C28.4914 38.1639 28.4844 37.7298 28.4844 37.6328H32.4844C32.4844 37.3639 32.4461 36.8009 32.055 36.2631C31.5777 35.6069 30.8709 35.375 30.2969 35.375V39.375ZM28.4844 37.6328V39.8359H32.4844V37.6328H28.4844ZM28.4844 39.8359C28.4844 41.3799 29.0213 42.77 30.066 43.9075L33.0121 41.2019C32.6505 40.8082 32.4844 40.3857 32.4844 39.8359H28.4844ZM30.08 43.9226C31.1423 45.0557 32.5061 45.6797 34.0703 45.6797V41.6797C33.6658 41.6797 33.3421 41.5537 32.9981 41.1868L30.08 43.9226ZM34.0703 45.6797C35.6548 45.6797 37.0331 45.0437 38.0981 43.8841L35.1519 41.1784C34.8107 41.5501 34.4858 41.6797 34.0703 41.6797V45.6797ZM38.1116 43.8692C39.1326 42.7348 39.6797 41.3643 39.6797 39.8359H35.6797C35.6797 40.3388 35.5237 40.7652 35.1384 41.1933L38.1116 43.8692ZM39.6797 39.8359C39.6797 37.6241 38.1872 36.0646 36.3751 35.0291L34.3905 38.5021C35.6409 39.2166 35.6797 39.704 35.6797 39.8359H39.6797ZM36.4428 35.0696C36.1419 34.8816 35.7723 34.6714 35.3466 34.4422L33.4502 37.9641C33.8371 38.1724 34.1237 38.3372 34.3228 38.4616L36.4428 35.0696ZM35.4274 34.4881C35.0051 34.2348 34.5101 33.9546 33.9464 33.6485L32.038 37.164C32.5681 37.4517 33.0105 37.7027 33.3694 37.9181L35.4274 34.4881ZM33.9464 33.6485C33.4006 33.3523 32.8705 33.0638 32.3561 32.7833L30.4407 36.2949C30.9576 36.5768 31.49 36.8665 32.038 37.164L33.9464 33.6485ZM32.3964 32.8058C31.8696 32.5025 31.3575 32.2145 30.8601 31.9417L28.9368 35.4489C29.4081 35.7074 29.896 35.9818 30.4005 36.2723L32.3964 32.8058ZM30.9138 31.9722C29.4246 31.0947 28.3948 30.0486 27.7327 28.8568L24.2361 30.7994C25.2927 32.7014 26.8723 34.2335 28.8831 35.4184L30.9138 31.9722ZM27.7442 28.8778C27.0722 27.6333 26.7187 26.2148 26.7187 24.5781H22.7187C22.7187 26.8165 23.2091 28.8979 24.2246 30.7784L27.7442 28.8778ZM26.7187 24.5781C26.7187 23.1413 27.0667 21.8955 27.7396 20.7899L24.3229 18.7101C23.2458 20.4795 22.7187 22.4524 22.7187 24.5781H26.7187ZM27.7346 20.7982C28.4427 19.6475 29.3495 18.757 30.468 18.0984L28.4382 14.6516C26.7442 15.6492 25.3698 17.0087 24.3279 18.7018L27.7346 20.7982ZM30.4738 18.095C31.5862 17.4349 32.7726 17.1094 34.0703 17.1094V13.1094C32.0555 13.1094 30.1638 13.6276 28.4325 14.655L30.4738 18.095ZM34.0703 17.1094C35.4256 17.1094 36.6338 17.4402 37.7372 18.095L39.7785 14.655C38.0381 13.6223 36.1213 13.1094 34.0703 13.1094V17.1094ZM37.7233 18.0867C38.8647 18.7765 39.7615 19.6803 40.4363 20.8175L43.8762 18.7762C42.8635 17.0697 41.4947 15.6922 39.7923 14.6633L37.7233 18.0867ZM40.4446 20.8314C41.1034 21.9214 41.4453 23.1534 41.4453 24.5781H45.4453C45.4453 22.4716 44.9279 20.5161 43.8679 18.7624L40.4446 20.8314ZM41.4453 24.5781V28.5156H45.4453V24.5781H41.4453ZM41.4453 28.5156C41.4453 28.2698 41.5081 27.7181 41.9842 27.242C42.4603 26.7659 43.012 26.7031 43.2578 26.7031V30.7031C43.6286 30.7031 44.274 30.6091 44.8126 30.0705C45.3513 29.5319 45.4453 28.8864 45.4453 28.5156H41.4453ZM43.2578 26.7031H37.8672V30.7031H43.2578V26.7031ZM37.8672 26.7031C38.113 26.7031 38.6647 26.7659 39.1408 27.242C39.6169 27.7181 39.6797 28.2698 39.6797 28.5156H35.6797C35.6797 28.8864 35.7737 29.5319 36.3123 30.0705C36.851 30.6091 37.4964 30.7031 37.8672 30.7031V26.7031ZM39.6795 28.4918L39.6327 24.5543L35.633 24.6019L35.6798 28.5394L39.6795 28.4918ZM39.6328 24.5781C39.6328 22.9986 39.121 21.5504 37.9923 20.4217L35.1639 23.2502C35.4415 23.5277 35.6328 23.9076 35.6328 24.5781H39.6328ZM37.9923 20.4217C36.9252 19.3546 35.585 18.7812 34.0703 18.7812V22.7812C34.4931 22.7812 34.8248 22.911 35.1639 23.2502L37.9923 20.4217ZM34.0703 18.7812C32.5061 18.7812 31.1423 19.4052 30.08 20.5384L32.9981 23.2741C33.3421 22.9073 33.6658 22.7812 34.0703 22.7812V18.7812ZM30.08 20.5384C29.0281 21.6603 28.4844 23.0405 28.4844 24.5781H32.4844C32.4844 24.0532 32.6437 23.6522 32.9981 23.2741L30.08 20.5384ZM28.4844 24.5781C28.4844 25.9007 28.7617 27.1656 29.4425 28.2597L32.8387 26.1465C32.6445 25.8344 32.4844 25.3493 32.4844 24.5781H28.4844ZM29.4595 28.2865C30.1748 29.3965 31.3305 30.2661 32.652 30.9789L34.5511 27.4586C33.4976 26.8902 33.0127 26.416 32.8218 26.1197L29.4595 28.2865ZM32.7071 31.0076C32.7882 31.0481 33.0381 31.1824 33.5026 31.4387L35.4349 27.9363C34.9931 27.6926 34.6649 27.5144 34.496 27.4299L32.7071 31.0076ZM33.5026 31.4387C33.9453 31.6829 34.4365 31.9592 34.9765 32.2677L36.961 28.7948C36.4073 28.4783 35.8984 28.1921 35.4349 27.9363L33.5026 31.4387ZM35.0352 32.3C35.5892 32.5924 36.0858 32.8599 36.526 33.1027L38.4583 29.6004C37.9923 29.3433 37.4733 29.0639 36.9023 28.7625L35.0352 32.3ZM36.5733 33.128C37.0204 33.3592 37.3089 33.5077 37.4181 33.5623L39.2069 29.9846C39.1286 29.9454 38.8703 29.8127 38.411 29.5751L36.5733 33.128ZM37.3369 33.5193C38.7098 34.2865 39.7295 35.1917 40.4558 36.2134L43.7161 33.8959C42.5986 32.3239 41.1027 31.0416 39.2881 30.0276L37.3369 33.5193ZM40.4651 36.2264C41.1138 37.1237 41.4922 38.2875 41.4922 39.8359H45.4922C45.4922 37.6031 44.9331 35.5794 43.7068 33.883L40.4651 36.2264ZM41.4922 39.8359C41.4922 41.3433 41.1482 42.632 40.497 43.7535L43.9561 45.7621C44.9924 43.9774 45.4922 41.9848 45.4922 39.8359H41.4922ZM40.5051 43.7397C39.8129 44.9101 38.9108 45.8145 37.784 46.4832L39.8253 49.9231C41.5423 48.9042 42.9215 47.5118 43.948 45.7759L40.5051 43.7397ZM37.784 46.4832C36.6865 47.1345 35.4639 47.4688 34.0703 47.4688V51.4688C36.1455 51.4688 38.0791 50.9593 39.8253 49.9231L37.784 46.4832ZM52.6656 48.1562L51.6174 49.8596L51.6257 49.8646L52.6656 48.1562ZM49.2437 44.6641L47.5095 45.6603L47.5158 45.6713L47.5223 45.6821L49.2437 44.6641ZM54.8453 42.5547L53.3723 43.9075L53.3792 43.9151L53.3862 43.9226L54.8453 42.5547ZM59.9312 42.5312L61.4043 43.8841L61.4111 43.8767L61.4178 43.8692L59.9312 42.5312ZM58.6891 36.7656L57.6291 38.4616L57.6625 38.4825L57.6968 38.5021L58.6891 36.7656ZM57.7047 36.2031L56.6757 37.9181L56.7156 37.942L56.7565 37.9641L57.7047 36.2031ZM54.7047 34.5391L53.7068 36.2723L53.7267 36.2838L53.747 36.2949L54.7047 34.5391ZM53.2047 33.6953L52.1893 35.4184L52.2159 35.4341L52.243 35.4489L53.2047 33.6953ZM49.2906 29.8281L47.5308 30.7784L47.5365 30.789L47.5423 30.7994L49.2906 29.8281ZM49.3375 19.75L47.6342 18.7018L47.6291 18.7101L49.3375 19.75ZM52.7594 16.375L53.7743 18.0984L53.78 18.095L52.7594 16.375ZM62.0641 16.375L63.0986 14.6633L63.0917 14.6592L63.0847 14.655L62.0641 16.375ZM65.4625 19.7969L63.7425 20.8175L63.7467 20.8245L63.7508 20.8314L65.4625 19.7969ZM60.9859 28.5156H62.9859V28.5037L62.9858 28.4918L60.9859 28.5156ZM60.9391 24.5781H58.9391V24.59L58.9392 24.6019L60.9391 24.5781ZM54.4469 27.2031L52.7488 28.2597L52.7571 28.2732L52.7657 28.2865L54.4469 27.2031ZM56.9078 29.2188L55.9582 30.9789L55.9856 30.9937L56.0134 31.0076L56.9078 29.2188ZM59.275 30.5312L58.2827 32.2677L58.3118 32.2844L58.3415 32.3L59.275 30.5312ZM60.7984 31.3516L59.8323 33.1027L59.8558 33.1157L59.8796 33.128L60.7984 31.3516ZM61.6187 31.7734L62.5944 30.0276L62.5543 30.0051L62.5132 29.9846L61.6187 31.7734ZM65.3922 35.0547L63.7621 36.2134L63.7667 36.2199L63.7713 36.2264L65.3922 35.0547ZM65.5328 44.7578L67.2543 45.7759L67.2584 45.769L67.2624 45.7621L65.5328 44.7578ZM57.3766 47.4688C56.0356 47.4688 54.8257 47.1297 53.7055 46.4479L51.6257 49.8646C53.3805 50.9328 55.3113 51.4688 57.3766 51.4688V47.4688ZM53.7138 46.4529C52.5719 45.7502 51.6611 44.8227 50.9652 43.646L47.5223 45.6821C48.5451 47.4117 49.9156 48.8123 51.6174 49.8596L53.7138 46.4529ZM50.978 43.6678C50.3143 42.5125 49.9781 41.2484 49.9781 39.8359H45.9781C45.9781 41.9234 46.4857 43.8781 47.5095 45.6603L50.978 43.6678ZM49.9781 39.8359V37.6328H45.9781V39.8359H49.9781ZM49.9781 37.6328C49.9781 37.8105 49.9418 38.317 49.5166 38.7848C49.0585 39.2887 48.4944 39.375 48.2125 39.375V35.375C47.7744 35.375 47.0931 35.5043 46.5568 36.0941C46.0535 36.6478 45.9781 37.2832 45.9781 37.6328H49.9781ZM48.2125 39.375H53.6031V35.375H48.2125V39.375ZM53.6031 39.375C53.1541 39.375 52.541 39.186 52.1263 38.6158C51.7976 38.1639 51.7906 37.7298 51.7906 37.6328H55.7906C55.7906 37.3639 55.7524 36.8009 55.3612 36.2631C54.884 35.6069 54.1771 35.375 53.6031 35.375V39.375ZM51.7906 37.6328V39.8359H55.7906V37.6328H51.7906ZM51.7906 39.8359C51.7906 41.3799 52.3276 42.77 53.3723 43.9075L56.3184 41.2019C55.9568 40.8082 55.7906 40.3857 55.7906 39.8359H51.7906ZM53.3862 43.9226C54.4486 45.0557 55.8123 45.6797 57.3766 45.6797V41.6797C56.972 41.6797 56.6483 41.5537 56.3044 41.1868L53.3862 43.9226ZM57.3766 45.6797C58.9611 45.6797 60.3393 45.0437 61.4043 43.8841L58.4582 41.1784C58.1169 41.5501 57.792 41.6797 57.3766 41.6797V45.6797ZM61.4178 43.8692C62.4388 42.7348 62.9859 41.3643 62.9859 39.8359H58.9859C58.9859 40.3388 58.8299 40.7652 58.4447 41.1933L61.4178 43.8692ZM62.9859 39.8359C62.9859 37.6241 61.4935 36.0646 59.6813 35.0291L57.6968 38.5021C58.9472 39.2166 58.9859 39.704 58.9859 39.8359H62.9859ZM59.7491 35.0696C59.4482 34.8816 59.0785 34.6714 58.6529 34.4422L56.7565 37.9641C57.1434 38.1724 57.43 38.3372 57.6291 38.4616L59.7491 35.0696ZM58.7337 34.4881C58.3114 34.2348 57.8163 33.9546 57.2526 33.6485L55.3443 37.164C55.8743 37.4517 56.3167 37.7027 56.6757 37.9181L58.7337 34.4881ZM57.2526 33.6485C56.7068 33.3523 56.1768 33.0638 55.6624 32.7833L53.747 36.2949C54.2638 36.5768 54.7963 36.8665 55.3443 37.164L57.2526 33.6485ZM55.7026 32.8058C55.1759 32.5025 54.6638 32.2145 54.1664 31.9417L52.243 35.4489C52.7144 35.7074 53.2022 35.9818 53.7068 36.2723L55.7026 32.8058ZM54.2201 31.9722C52.7309 31.0947 51.701 30.0486 51.0389 28.8568L47.5423 30.7994C48.5989 32.7014 50.1785 34.2335 52.1893 35.4184L54.2201 31.9722ZM51.0504 28.8778C50.3784 27.6333 50.025 26.2148 50.025 24.5781H46.025C46.025 26.8165 46.5153 28.8979 47.5308 30.7784L51.0504 28.8778ZM50.025 24.5781C50.025 23.1413 50.3729 21.8955 51.0459 20.7899L47.6291 18.7101C46.5521 20.4795 46.025 22.4524 46.025 24.5781H50.025ZM51.0408 20.7982C51.7489 19.6475 52.6558 18.757 53.7742 18.0984L51.7445 14.6516C50.0505 15.6492 48.6761 17.0087 47.6342 18.7018L51.0408 20.7982ZM53.78 18.095C54.8924 17.4349 56.0788 17.1094 57.3766 17.1094V13.1094C55.3618 13.1094 53.4701 13.6276 51.7387 14.655L53.78 18.095ZM57.3766 17.1094C58.7318 17.1094 59.94 17.4402 61.0434 18.095L63.0847 14.655C61.3443 13.6223 59.4275 13.1094 57.3766 13.1094V17.1094ZM61.0295 18.0867C62.1709 18.7765 63.0677 19.6803 63.7425 20.8175L67.1825 18.7762C66.1698 17.0697 64.8009 15.6922 63.0986 14.6633L61.0295 18.0867ZM63.7508 20.8314C64.4096 21.9214 64.7516 23.1534 64.7516 24.5781H68.7516C68.7516 22.4716 68.2341 20.5161 67.1742 18.7624L63.7508 20.8314ZM64.7516 24.5781V28.5156H68.7516V24.5781H64.7516ZM64.7516 28.5156C64.7516 28.2698 64.8144 27.7181 65.2905 27.242C65.7666 26.7659 66.3183 26.7031 66.5641 26.7031V30.7031C66.9348 30.7031 67.5803 30.6091 68.1189 30.0705C68.6575 29.5319 68.7516 28.8864 68.7516 28.5156H64.7516ZM66.5641 26.7031H61.1734V30.7031H66.5641V26.7031ZM61.1734 26.7031C61.4192 26.7031 61.9709 26.7659 62.447 27.242C62.9231 27.7181 62.9859 28.2698 62.9859 28.5156H58.9859C58.9859 28.8864 59.08 29.5319 59.6186 30.0705C60.1572 30.6091 60.8026 30.7031 61.1734 30.7031V26.7031ZM62.9858 28.4918L62.9389 24.5543L58.9392 24.6019L58.9861 28.5394L62.9858 28.4918ZM62.9391 24.5781C62.9391 22.9986 62.4273 21.5504 61.2986 20.4217L58.4702 23.2502C58.7477 23.5277 58.9391 23.9076 58.9391 24.5781H62.9391ZM61.2986 20.4217C60.2315 19.3546 58.8912 18.7812 57.3766 18.7812V22.7812C57.7994 22.7812 58.131 22.911 58.4702 23.2502L61.2986 20.4217ZM57.3766 18.7812C55.8123 18.7812 54.4486 19.4052 53.3862 20.5384L56.3044 23.2741C56.6483 22.9073 56.972 22.7812 57.3766 22.7812V18.7812ZM53.3862 20.5384C52.3344 21.6603 51.7906 23.0405 51.7906 24.5781H55.7906C55.7906 24.0532 55.95 23.6522 56.3044 23.2741L53.3862 20.5384ZM51.7906 24.5781C51.7906 25.9007 52.068 27.1656 52.7488 28.2597L56.145 26.1465C55.9508 25.8344 55.7906 25.3493 55.7906 24.5781H51.7906ZM52.7657 28.2865C53.481 29.3965 54.6368 30.2661 55.9582 30.9789L57.8574 27.4586C56.8038 26.8902 56.319 26.416 56.128 26.1197L52.7657 28.2865ZM56.0134 31.0076C56.0944 31.0481 56.3444 31.1824 56.8088 31.4387L58.7412 27.9363C58.2994 27.6926 57.9712 27.5144 57.8022 27.4299L56.0134 31.0076ZM56.8088 31.4387C57.2516 31.6829 57.7427 31.9592 58.2827 32.2677L60.2673 28.7948C59.7135 28.4783 59.2047 28.1921 58.7412 27.9363L56.8088 31.4387ZM58.3415 32.3C58.8954 32.5924 59.3921 32.8599 59.8323 33.1027L61.7646 29.6004C61.2985 29.3433 60.7796 29.0639 60.2085 28.7625L58.3415 32.3ZM59.8796 33.128C60.3266 33.3592 60.6152 33.5077 60.7243 33.5623L62.5132 29.9846C62.4348 29.9454 62.1765 29.8127 61.7173 29.5751L59.8796 33.128ZM60.6431 33.5193C62.016 34.2865 63.0358 35.1917 63.7621 36.2134L67.0223 33.8959C65.9049 32.3239 64.409 31.0416 62.5944 30.0276L60.6431 33.5193ZM63.7713 36.2264C64.42 37.1237 64.7984 38.2875 64.7984 39.8359H68.7984C68.7984 37.6031 68.2394 35.5794 67.013 33.883L63.7713 36.2264ZM64.7984 39.8359C64.7984 41.3433 64.4545 42.632 63.8032 43.7535L67.2624 45.7621C68.2987 43.9774 68.7984 41.9848 68.7984 39.8359H64.7984ZM63.8113 43.7397C63.1192 44.9101 62.217 45.8145 61.0903 46.4832L63.1316 49.9231C64.8486 48.9042 66.2277 47.5118 67.2543 45.7759L63.8113 43.7397ZM61.0903 46.4832C59.9927 47.1345 58.7701 47.4688 57.3766 47.4688V51.4688C59.4518 51.4688 61.3854 50.9593 63.1316 49.9231L61.0903 46.4832ZM72.5266 48.7656L70.5266 48.7628V48.7656H72.5266ZM72.5734 15.7891L74.5734 15.7919V15.7891H72.5734ZM78.3391 21.3906V19.3906H76.3391V21.3906H78.3391ZM78.3391 28.8906H76.3391V30.8906H78.3391V28.8906ZM88.3703 29.0781H86.3703V29.0867L86.3704 29.0954L88.3703 29.0781ZM88.4172 34.5156H90.4172V34.507L90.4171 34.4984L88.4172 34.5156ZM78.3391 34.7031V32.7031H76.3391V34.7031H78.3391ZM78.3391 43.0938H76.3391V45.0938H78.3391V43.0938ZM88.2297 47H72.7141V51H88.2297V47ZM72.7141 47C73.093 47 73.694 47.1405 74.1352 47.692C74.5082 48.1583 74.5266 48.6301 74.5266 48.7656H70.5266C70.5266 49.0574 70.5762 49.6464 71.0117 50.1908C71.5154 50.8204 72.2101 51 72.7141 51V47ZM74.5266 48.7685L74.5734 15.7919L70.5734 15.7862L70.5266 48.7628L74.5266 48.7685ZM74.5734 15.7891C74.5734 16.0349 74.5106 16.5865 74.0345 17.0627C73.5584 17.5388 73.0067 17.6016 72.7609 17.6016V13.6016C72.3901 13.6016 71.7447 13.6956 71.2061 14.2342C70.6675 14.7728 70.5734 15.4183 70.5734 15.7891H74.5734ZM72.7609 17.6016H88.1828V13.6016H72.7609V17.6016ZM88.1828 17.6016C87.8039 17.6016 87.2029 17.461 86.7617 16.9095C86.3887 16.4433 86.3703 15.9715 86.3703 15.8359H90.3703C90.3703 15.5441 90.3207 14.9552 89.8852 14.4108C89.3815 13.7811 88.6867 13.6016 88.1828 13.6016V17.6016ZM86.3703 15.8359V21.2031H90.3703V15.8359H86.3703ZM86.3703 21.2031C86.3703 20.9573 86.4331 20.4056 86.9092 19.9295C87.3853 19.4534 87.937 19.3906 88.1828 19.3906V23.3906C88.5536 23.3906 89.199 23.2966 89.7376 22.758C90.2763 22.2194 90.3703 21.5739 90.3703 21.2031H86.3703ZM88.1828 19.3906H78.3391V23.3906H88.1828V19.3906ZM76.3391 21.3906V28.8906H80.3391V21.3906H76.3391ZM78.3391 30.8906H88.1828V26.8906H78.3391V30.8906ZM88.1828 30.8906C87.937 30.8906 87.3853 30.8278 86.9092 30.3517C86.4331 29.8756 86.3703 29.3239 86.3703 29.0781H90.3703C90.3703 28.7073 90.2763 28.0619 89.7376 27.5233C89.199 26.9847 88.5536 26.8906 88.1828 26.8906V30.8906ZM86.3704 29.0954L86.4173 34.5329L90.4171 34.4984L90.3702 29.0609L86.3704 29.0954ZM86.4172 34.5156C86.4172 34.2698 86.48 33.7181 86.9561 33.242C87.4322 32.7659 87.9839 32.7031 88.2297 32.7031V36.7031C88.6005 36.7031 89.2459 36.6091 89.7845 36.0705C90.3231 35.5319 90.4172 34.8864 90.4172 34.5156H86.4172ZM88.2297 32.7031H78.3391V36.7031H88.2297V32.7031ZM76.3391 34.7031V43.0938H80.3391V34.7031H76.3391ZM78.3391 45.0938H88.2297V41.0938H78.3391V45.0938ZM88.2297 45.0938C87.8508 45.0938 87.2498 44.9532 86.8086 44.4017C86.4356 43.9355 86.4172 43.4637 86.4172 43.3281H90.4172C90.4172 43.0363 90.3676 42.4474 89.932 41.903C89.4284 41.2733 88.7336 41.0938 88.2297 41.0938V45.0938ZM86.4172 43.3281V48.8125H90.4172V43.3281H86.4172ZM86.4172 48.8125C86.4172 48.5667 86.48 48.015 86.9561 47.5389C87.4322 47.0628 87.9839 47 88.2297 47V51C88.6005 51 89.2459 50.9059 89.7845 50.3673C90.3231 49.8287 90.4172 49.1833 90.4172 48.8125H86.4172ZM95.0828 48.7656L93.0828 48.7599V48.7656H95.0828ZM95.1766 15.7891L97.1766 15.7947V15.7891H95.1766ZM101.552 15.7891L103.196 14.6503L103.174 14.6193L103.152 14.5891L101.552 15.7891ZM105.934 22.1172L104.29 23.2559L105.939 25.6362L107.581 23.2518L105.934 22.1172ZM110.294 15.7891L108.694 14.5891L108.67 14.6213L108.647 14.6545L110.294 15.7891ZM116.739 15.7891L114.739 15.7891L114.739 15.7947L116.739 15.7891ZM116.833 48.7656L118.833 48.7656L118.833 48.7599L116.833 48.7656ZM111.02 48.7656L113.02 48.7656L113.02 48.7618L111.02 48.7656ZM110.973 24.2734L112.973 24.2696L112.961 17.8642L109.327 23.1386L110.973 24.2734ZM105.934 31.5859L104.283 32.7136L105.927 35.1218L107.581 32.7208L105.934 31.5859ZM100.942 24.2734L102.594 23.1458L98.9545 17.8148L98.9422 24.2696L100.942 24.2734ZM100.895 48.7656L98.8953 48.7618V48.7656H100.895ZM100.708 47H95.2703V51H100.708V47ZM95.2703 47C95.6492 47 96.2502 47.1405 96.6914 47.692C97.0644 48.1583 97.0828 48.6301 97.0828 48.7656H93.0828C93.0828 49.0574 93.1324 49.6464 93.5679 50.1908C94.0716 50.8204 94.7664 51 95.2703 51V47ZM97.0828 48.7713L97.1766 15.7947L93.1766 15.7834L93.0828 48.7599L97.0828 48.7713ZM97.1766 15.7891C97.1766 16.0349 97.1138 16.5865 96.6376 17.0627C96.1615 17.5388 95.6098 17.6016 95.3641 17.6016V13.6016C94.9933 13.6016 94.3478 13.6956 93.8092 14.2342C93.2706 14.7728 93.1766 15.4183 93.1766 15.7891H97.1766ZM95.3641 17.6016H101.223V13.6016H95.3641V17.6016ZM101.223 17.6016C100.935 17.6016 100.652 17.5249 100.407 17.3849C100.175 17.2523 100.03 17.0941 99.9516 16.9891L103.152 14.5891C102.785 14.1001 102.134 13.6016 101.223 13.6016V17.6016ZM99.9074 16.9278L104.29 23.2559L107.579 20.9785L103.196 14.6503L99.9074 16.9278ZM107.581 23.2518L111.941 16.9237L108.647 14.6545L104.287 20.9826L107.581 23.2518ZM111.894 16.9891C111.796 17.1198 111.634 17.2844 111.393 17.4131C111.145 17.5455 110.883 17.6016 110.645 17.6016V13.6016C109.799 13.6016 109.117 14.0248 108.694 14.5891L111.894 16.9891ZM110.645 17.6016H116.528V13.6016H110.645V17.6016ZM116.528 17.6016C116.344 17.6016 115.833 17.5658 115.358 17.1433C114.837 16.6808 114.739 16.0999 114.739 15.7891H118.739C118.739 15.3533 118.606 14.6786 118.015 14.1536C117.469 13.6685 116.852 13.6016 116.528 13.6016V17.6016ZM114.739 15.7947L114.833 48.7713L118.833 48.7599L118.739 15.7834L114.739 15.7947ZM114.833 48.7656C114.833 48.6301 114.851 48.1583 115.224 47.692C115.665 47.1405 116.266 47 116.645 47V51C117.149 51 117.844 50.8204 118.348 50.1908C118.783 49.6464 118.833 49.0574 118.833 48.7656H114.833ZM116.645 47H111.208V51H116.645V47ZM111.208 47C111.587 47 112.188 47.1405 112.629 47.692C113.002 48.1583 113.02 48.6301 113.02 48.7656H109.02C109.02 49.0574 109.07 49.6464 109.505 50.1908C110.009 50.8204 110.704 51 111.208 51V47ZM113.02 48.7618L112.973 24.2696L108.973 24.2773L109.02 48.7695L113.02 48.7618ZM109.327 23.1386L104.288 30.4511L107.581 32.7208L112.62 25.4083L109.327 23.1386ZM107.586 30.4583L102.594 23.1458L99.2904 25.4011L104.283 32.7136L107.586 30.4583ZM98.9422 24.2696L98.8953 48.7618L102.895 48.7695L102.942 24.2773L98.9422 24.2696ZM98.8953 48.7656C98.8953 48.6301 98.9137 48.1583 99.2867 47.692C99.7279 47.1405 100.329 47 100.708 47V51C101.212 51 101.906 50.8204 102.41 50.1908C102.846 49.6464 102.895 49.0574 102.895 48.7656H98.8953ZM123.264 48.7656L121.264 48.7599V48.7656H123.264ZM123.358 15.7891L125.358 15.7947V15.7891H123.358ZM137.678 16.9141L138.718 15.2057L138.71 15.2007L138.702 15.1959L137.678 16.9141ZM141.077 20.4062L139.339 21.3965L139.344 21.4046L141.077 20.4062ZM139.155 31.8203L137.855 30.2998L136.211 31.7051L137.74 33.2345L139.155 31.8203ZM140.748 43.9609L142.47 44.9796L142.473 44.973L142.477 44.9665L140.748 43.9609ZM137.116 47.6406L138.142 49.3572L138.148 49.3533L138.155 49.3494L137.116 47.6406ZM129.123 21.2969V19.2969H127.123V21.2969H129.123ZM129.123 28.8438H127.123V30.8438H129.123V28.8438ZM135.475 27.6719L136.976 28.9931L136.983 28.9858L136.989 28.9783L135.475 27.6719ZM135.405 22.4453L133.961 23.8298L133.968 23.8372L133.976 23.8446L135.405 22.4453ZM129.123 34.6562V32.6562H127.134L127.123 34.6452L129.123 34.6562ZM129.077 43.1406L127.077 43.1296L127.065 45.1406H129.077V43.1406ZM132.053 47H123.452V51H132.053V47ZM123.452 47C123.83 47 124.431 47.1405 124.873 47.692C125.246 48.1583 125.264 48.6301 125.264 48.7656H121.264C121.264 49.0574 121.314 49.6464 121.749 50.1908C122.253 50.8204 122.948 51 123.452 51V47ZM125.264 48.7713L125.358 15.7947L121.358 15.7834L121.264 48.7599L125.264 48.7713ZM125.358 15.7891C125.358 16.0349 125.295 16.5865 124.819 17.0627C124.343 17.5388 123.791 17.6016 123.545 17.6016V13.6016C123.175 13.6016 122.529 13.6956 121.99 14.2342C121.452 14.7728 121.358 15.4183 121.358 15.7891H125.358ZM123.545 17.6016H132.78V13.6016H123.545V17.6016ZM132.78 17.6016C134.235 17.6016 135.511 17.9513 136.655 18.6323L138.702 15.1959C136.907 14.1269 134.918 13.6016 132.78 13.6016V17.6016ZM136.638 18.6225C137.788 19.3223 138.68 20.24 139.339 21.3965L142.814 19.416C141.817 17.6663 140.443 16.2559 138.718 15.2057L136.638 18.6225ZM139.344 21.4046C139.994 22.533 140.319 23.7504 140.319 25.0938H144.319C144.319 23.0621 143.816 21.1545 142.81 19.4079L139.344 21.4046ZM140.319 25.0938C140.319 26.1525 140.081 27.113 139.611 28.006L143.151 29.869C143.931 28.387 144.319 26.785 144.319 25.0938H140.319ZM139.611 28.006C139.083 29.0103 138.49 29.7579 137.855 30.2998L140.454 33.3408C141.539 32.414 142.43 31.2397 143.151 29.869L139.611 28.006ZM137.74 33.2345C138.477 33.9715 139.052 34.8253 139.469 35.8105L143.153 34.252C142.538 32.7997 141.676 31.5129 140.569 30.4061L137.74 33.2345ZM139.469 35.8105C139.879 36.7788 140.084 37.7947 140.084 38.875H144.084C144.084 37.2678 143.774 35.7212 143.153 34.252L139.469 35.8105ZM140.084 38.875C140.084 40.3994 139.724 41.7449 139.02 42.9554L142.477 44.9665C143.554 43.1145 144.084 41.0694 144.084 38.875H140.084ZM139.027 42.9423C138.288 44.1919 137.311 45.1811 136.076 45.9319L138.155 49.3494C139.952 48.2564 141.397 46.7924 142.47 44.9796L139.027 42.9423ZM136.089 45.9241C134.901 46.6349 133.571 47 132.053 47V51C134.254 51 136.299 50.4589 138.142 49.3572L136.089 45.9241ZM132.78 19.2969H129.123V23.2969H132.78V19.2969ZM127.123 21.2969V28.8438H131.123V21.2969H127.123ZM129.123 30.8438H132.78V26.8438H129.123V30.8438ZM132.78 30.8438C134.421 30.8438 135.882 30.2371 136.976 28.9931L133.974 26.3506C133.693 26.6692 133.357 26.8438 132.78 26.8438V30.8438ZM136.989 28.9783C137.943 27.873 138.506 26.5629 138.506 25.0938H134.506C134.506 25.4684 134.382 25.877 133.961 26.3654L136.989 28.9783ZM138.506 25.0938C138.506 23.5358 137.92 22.1559 136.834 21.0461L133.976 23.8446C134.358 24.2347 134.506 24.6205 134.506 25.0938H138.506ZM136.848 21.0609C135.755 19.9217 134.367 19.2969 132.78 19.2969V23.2969C133.224 23.2969 133.585 23.4377 133.961 23.8298L136.848 21.0609ZM132.053 32.6562H129.123V36.6562H132.053V32.6562ZM127.123 34.6452L127.077 43.1296L131.077 43.1517L131.123 34.6673L127.123 34.6452ZM129.077 45.1406H132.053V41.1406H129.077V45.1406ZM132.053 45.1406C133.76 45.1406 135.262 44.4932 136.457 43.2759L133.602 40.4741C133.141 40.9443 132.659 41.1406 132.053 41.1406V45.1406ZM136.457 43.2759C137.643 42.0676 138.272 40.5682 138.272 38.875H134.272C134.272 39.4943 134.073 39.9949 133.602 40.4741L136.457 43.2759ZM138.272 38.875C138.272 37.1807 137.642 35.682 136.444 34.4842L133.615 37.3127C134.074 37.7711 134.272 38.2568 134.272 38.875H138.272ZM136.444 34.4842C135.246 33.2865 133.747 32.6562 132.053 32.6562V36.6562C132.671 36.6562 133.157 36.8542 133.615 37.3127L136.444 34.4842ZM147.93 48.7656L145.93 48.7628V48.7656H147.93ZM147.977 15.8359L149.977 15.8388V15.8359H147.977ZM153.789 15.8359L155.789 15.8394V15.8359H153.789ZM153.742 43.0938L151.742 43.0903L151.739 45.0938H153.742V43.0938ZM163.633 47H148.117V51H163.633V47ZM148.117 47C148.496 47 149.097 47.1405 149.538 47.692C149.911 48.1583 149.93 48.6301 149.93 48.7656H145.93C145.93 49.0574 145.979 49.6464 146.415 50.1908C146.919 50.8204 147.613 51 148.117 51V47ZM149.93 48.7685L149.977 15.8388L145.977 15.8331L145.93 48.7628L149.93 48.7685ZM149.977 15.8359C149.977 16.0661 149.918 16.6061 149.449 17.0744C148.981 17.5427 148.441 17.6016 148.211 17.6016V13.6016C147.825 13.6016 147.167 13.6995 146.621 14.2459C146.075 14.7924 145.977 15.4495 145.977 15.8359H149.977ZM148.211 17.6016H153.555V13.6016H148.211V17.6016ZM153.555 17.6016C153.325 17.6016 152.785 17.5427 152.316 17.0744C151.848 16.6061 151.789 16.0661 151.789 15.8359H155.789C155.789 15.4495 155.691 14.7924 155.145 14.2459C154.598 13.6995 153.941 13.6016 153.555 13.6016V17.6016ZM151.789 15.8325L151.742 43.0903L155.742 43.0972L155.789 15.8394L151.789 15.8325ZM153.742 45.0938H163.633V41.0938H153.742V45.0938ZM163.633 45.0938C163.403 45.0938 162.863 45.0349 162.394 44.5666C161.926 44.0983 161.867 43.5583 161.867 43.3281H165.867C165.867 42.9417 165.769 42.2846 165.223 41.7381C164.676 41.1917 164.019 41.0938 163.633 41.0938V45.0938ZM161.867 43.3281V48.7656H165.867V43.3281H161.867ZM161.867 48.7656C161.867 48.5355 161.926 47.9955 162.394 47.5272C162.863 47.0589 163.403 47 163.633 47V51C164.019 51 164.676 50.902 165.223 50.3556C165.769 49.8092 165.867 49.152 165.867 48.7656H161.867ZM170.837 48.8125L168.837 48.8056V48.8125H170.837ZM170.884 35.1719L172.884 35.1787L172.885 34.8525L172.783 34.5429L170.884 35.1719ZM164.462 15.7891L162.522 16.2741L162.54 16.3469L162.564 16.4181L164.462 15.7891ZM170.228 15.7891L168.288 16.2741L168.293 16.296L168.299 16.3177L170.228 15.7891ZM173.767 28.7031L171.838 29.2317L173.748 36.201L175.693 29.2415L173.767 28.7031ZM177.377 15.7891L179.303 16.3274L179.31 16.3009L179.317 16.2741L177.377 15.7891ZM183.142 15.7891L185.037 16.4298L185.063 16.3529L185.082 16.2741L183.142 15.7891ZM176.65 34.9844L174.755 34.3436L174.649 34.6586L174.65 34.9912L176.65 34.9844ZM176.697 48.8125L178.697 48.8125L178.697 48.8057L176.697 48.8125ZM176.509 47H171.002V51H176.509V47ZM171.002 47C171.33 47 171.92 47.1061 172.384 47.6361C172.803 48.1151 172.837 48.6274 172.837 48.8125H168.837C168.837 49.1226 168.9 49.7286 169.373 50.2701C169.892 50.8626 170.564 51 171.002 51V47ZM172.837 48.8194L172.884 35.1787L168.884 35.165L168.838 48.8056L172.837 48.8194ZM172.783 34.5429L166.361 15.1601L162.564 16.4181L168.986 35.8009L172.783 34.5429ZM166.403 15.304C166.44 15.4533 166.592 16.1576 166.074 16.8484C165.538 17.5628 164.789 17.6016 164.603 17.6016V13.6016C164.292 13.6016 163.457 13.6716 162.874 14.4484C162.309 15.2018 162.454 15.9998 162.522 16.2741L166.403 15.304ZM164.603 17.6016H169.947V13.6016H164.603V17.6016ZM169.947 17.6016C169.778 17.6016 169.411 17.5699 169.025 17.3125C168.598 17.0281 168.374 16.6201 168.288 16.2741L172.168 15.304C172.051 14.833 171.764 14.3312 171.244 13.9843C170.764 13.6645 170.272 13.6016 169.947 13.6016V17.6016ZM168.299 16.3177L171.838 29.2317L175.696 28.1745L172.157 15.2605L168.299 16.3177ZM175.693 29.2415L179.303 16.3274L175.45 15.2507L171.841 28.1648L175.693 29.2415ZM179.317 16.2741C179.257 16.5133 179.098 16.8979 178.708 17.2102C178.311 17.5274 177.887 17.6016 177.611 17.6016V13.6016C177.21 13.6016 176.684 13.7069 176.209 14.0867C175.741 14.4614 175.527 14.9398 175.436 15.304L179.317 16.2741ZM177.611 17.6016H183.002V13.6016H177.611V17.6016ZM183.002 17.6016C182.816 17.6016 182.066 17.5628 181.53 16.8484C181.012 16.1576 181.165 15.4533 181.202 15.304L185.082 16.2741C185.151 15.9998 185.295 15.2018 184.73 14.4484C184.148 13.6716 183.313 13.6016 183.002 13.6016V17.6016ZM181.248 15.1483L174.755 34.3436L178.545 35.6252L185.037 16.4298L181.248 15.1483ZM174.65 34.9912L174.697 48.8193L178.697 48.8057L178.65 34.9776L174.65 34.9912ZM174.697 48.8125C174.697 48.5667 174.76 48.015 175.236 47.5389C175.712 47.0628 176.264 47 176.509 47V51C176.88 51 177.526 50.9059 178.064 50.3673C178.603 49.8287 178.697 49.1833 178.697 48.8125H174.697Z" fill="url(#paint0_linear_20_38)" mask="url(#path-1-outside-1_20_38)"/>
</g>
<defs>
<linearGradient id="paint0_linear_20_38" x1="14.5" y1="34" x2="170" y2="34" gradientUnits="userSpaceOnUse">
<stop stop-color="#FFBD30"/>
<stop offset="0.335" stop-color="#FF9D39"/>
<stop offset="0.66" stop-color="#FF6749"/>
<stop offset="1" stop-color="#FF4C4F"/>
</linearGradient>
<clipPath id="clip0_20_38">
<rect width="185" height="67" fill="white"/>
</clipPath>
</defs>
</svg>
