<svg width="136" height="54" viewBox="0 0 136 54" fill="none" xmlns="http://www.w3.org/2000/svg">
<g clip-path="url(#clip0_14_35)">
<mask id="path-1-outside-1_14_35" maskUnits="userSpaceOnUse" x="38" y="10" width="59" height="32" fill="black">
<rect fill="white" x="38" y="10" width="59" height="32"/>
<path d="M48.2266 40H41.0586C40.9544 40 40.9023 39.9349 40.9023 39.8047L40.9805 12.3242C40.9805 12.2201 41.0326 12.168 41.1367 12.168H48.832C50.3294 12.168 51.6901 12.5326 52.9141 13.2617C54.112 13.9909 55.056 14.9609 55.7461 16.1719C56.4362 17.3698 56.7812 18.6719 56.7812 20.0781C56.7812 21.224 56.5208 22.2917 56 23.2812C55.4792 24.2708 54.8607 25.0716 54.1445 25.6836C54.9128 26.4518 55.5117 27.3438 55.9414 28.3594C56.3711 29.375 56.5859 30.4427 56.5859 31.5625C56.5859 33.112 56.2148 34.5247 55.4727 35.8008C54.7174 37.0768 53.7083 38.099 52.4453 38.8672C51.1823 39.6224 49.776 40 48.2266 40ZM48.832 16.9141H45.7852V23.2031H48.832C49.7565 23.2031 50.5052 22.8776 51.0781 22.2266C51.651 21.5625 51.9375 20.8464 51.9375 20.0781C51.9375 19.2318 51.6315 18.4961 51.0195 17.8711C50.4076 17.2331 49.6784 16.9141 48.832 16.9141ZM48.2266 28.0469H45.7852L45.7461 35.1172H48.2266C49.1901 35.1172 50.0169 34.7656 50.707 34.0625C51.3971 33.3594 51.7422 32.526 51.7422 31.5625C51.7422 30.599 51.3971 29.7721 50.707 29.082C50.0169 28.3919 49.1901 28.0469 48.2266 28.0469ZM59.2891 39.8047L64.25 12.3242C64.276 12.2201 64.3411 12.168 64.4453 12.168H70.2461C70.3503 12.168 70.4154 12.2201 70.4414 12.3242L75.207 39.8047C75.2201 39.9349 75.168 40 75.0508 40H70.6172C70.487 40 70.4154 39.9349 70.4023 39.8047L69.9727 36.875H64.5234L64.0938 39.8047C64.0807 39.9349 64.0156 40 63.8984 40H59.4453C59.3411 40 59.2891 39.9349 59.2891 39.8047ZM67.1211 21.3672L65.3242 32.5977H69.1719L67.5312 21.3672L67.2969 19.8828L67.1211 21.3672ZM84.0625 40H80.0586C79.8503 40 79.7461 39.9089 79.7461 39.7266L79.707 12.4805C79.707 12.2721 79.8112 12.168 80.0195 12.168H83.6328L90.3906 27.9297L90.1953 12.4805C90.1953 12.2721 90.3125 12.168 90.5469 12.168H94.5117C94.668 12.168 94.7461 12.2721 94.7461 12.4805L94.7852 39.7656C94.7852 39.9219 94.7201 40 94.5898 40H91.0742L84.1406 25.2734L84.4336 39.6875C84.4336 39.8958 84.3099 40 84.0625 40Z"/>
</mask>
<path d="M40.9023 39.8047L38.9023 39.799V39.8047H40.9023ZM40.9805 12.3242L42.9805 12.3299V12.3242H40.9805ZM52.9141 13.2617L53.954 11.5533L53.9458 11.5484L53.9377 11.5435L52.9141 13.2617ZM55.7461 16.1719L54.0084 17.1622L54.0131 17.1702L55.7461 16.1719ZM54.1445 25.6836L52.8452 24.1631L51.2008 25.5683L52.7303 27.0978L54.1445 25.6836ZM55.4727 35.8008L57.1938 36.8194L57.1977 36.8129L57.2015 36.8063L55.4727 35.8008ZM52.4453 38.8672L53.4717 40.5837L53.4782 40.5799L53.4846 40.5759L52.4453 38.8672ZM45.7852 16.9141V14.9141H43.7852V16.9141H45.7852ZM45.7852 23.2031H43.7852V25.2031H45.7852V23.2031ZM51.0781 22.2266L52.5796 23.5478L52.586 23.5405L52.5924 23.533L51.0781 22.2266ZM51.0195 17.8711L49.5762 19.2555L49.5833 19.263L49.5905 19.2703L51.0195 17.8711ZM45.7852 28.0469V26.0469H43.7962L43.7852 28.0358L45.7852 28.0469ZM45.7461 35.1172L43.7461 35.1061L43.735 37.1172H45.7461V35.1172ZM48.2266 38H41.0586V42H48.2266V38ZM41.0586 38C41.4479 38 42.0567 38.1438 42.5031 38.7018C42.8814 39.1746 42.9023 39.6561 42.9023 39.8047H38.9023C38.9023 40.0835 38.9494 40.6627 39.3797 41.2006C39.8782 41.8237 40.5651 42 41.0586 42V38ZM42.9023 39.8104L42.9805 12.3299L38.9805 12.3185L38.9024 39.799L42.9023 39.8104ZM42.9805 12.3242C42.9805 12.5804 42.9151 13.1399 42.4337 13.6212C41.9524 14.1026 41.3929 14.168 41.1367 14.168V10.168C40.7763 10.168 40.1387 10.2594 39.6053 10.7928C39.0719 11.3262 38.9805 11.9638 38.9805 12.3242H42.9805ZM41.1367 14.168H48.832V10.168H41.1367V14.168ZM48.832 14.168C49.9882 14.168 50.9922 14.4448 51.8905 14.9799L53.9377 11.5435C52.3881 10.6203 50.6706 10.168 48.832 10.168V14.168ZM51.8742 14.9701C52.7843 15.5241 53.4874 16.2478 54.0085 17.1621L57.4837 15.1816C56.6246 13.6741 55.4397 12.4577 53.954 11.5533L51.8742 14.9701ZM54.0131 17.1702C54.5251 18.0591 54.7812 19.016 54.7812 20.0781H58.7812C58.7812 18.3278 58.3473 16.6805 57.4791 15.1735L54.0131 17.1702ZM54.7812 20.0781C54.7812 20.9077 54.596 21.6547 54.2302 22.3498L57.7698 24.2127C58.4457 22.9287 58.7812 21.5402 58.7812 20.0781H54.7812ZM54.2302 22.3498C53.8058 23.1561 53.3362 23.7436 52.8452 24.1631L55.4438 27.2041C56.3852 26.3996 57.1526 25.3856 57.7698 24.2127L54.2302 22.3498ZM52.7303 27.0978C53.3136 27.6811 53.7686 28.3566 54.0995 29.1387L57.7833 27.5801C57.2548 26.3309 56.5119 25.2225 55.5587 24.2694L52.7303 27.0978ZM54.0995 29.1387C54.4232 29.9038 54.5859 30.7062 54.5859 31.5625H58.5859C58.5859 30.1792 58.319 28.8462 57.7833 27.5801L54.0995 29.1387ZM54.5859 31.5625C54.5859 32.777 54.2994 33.84 53.7438 34.7952L57.2015 36.8063C58.1302 35.2095 58.5859 33.447 58.5859 31.5625H54.5859ZM53.7515 34.7821C53.163 35.7766 52.3877 36.5614 51.406 37.1585L53.4846 40.5759C55.029 39.6366 56.2719 38.3771 57.1938 36.8194L53.7515 34.7821ZM51.4189 37.1506C50.4828 37.7104 49.4345 38 48.2266 38V42C50.1175 42 51.8818 41.5344 53.4717 40.5837L51.4189 37.1506ZM48.832 14.9141H45.7852V18.9141H48.832V14.9141ZM43.7852 16.9141V23.2031H47.7852V16.9141H43.7852ZM45.7852 25.2031H48.832V21.2031H45.7852V25.2031ZM48.832 25.2031C50.2883 25.2031 51.5995 24.6616 52.5796 23.5478L49.5767 20.9053C49.411 21.0936 49.2247 21.2031 48.832 21.2031V25.2031ZM52.5924 23.533C53.4315 22.5605 53.9375 21.3936 53.9375 20.0781H49.9375C49.9375 20.2991 49.8706 20.5645 49.5638 20.9201L52.5924 23.533ZM53.9375 20.0781C53.9375 18.6894 53.4129 17.4567 52.4486 16.4718L49.5905 19.2703C49.8502 19.5355 49.9375 19.7741 49.9375 20.0781H53.9375ZM52.4629 16.4866C51.4926 15.4751 50.2499 14.9141 48.832 14.9141V18.9141C49.1068 18.9141 49.3225 18.9911 49.5762 19.2555L52.4629 16.4866ZM48.2266 26.0469H45.7852V30.0469H48.2266V26.0469ZM43.7852 28.0358L43.7461 35.1061L47.7461 35.1282L47.7851 28.0579L43.7852 28.0358ZM45.7461 37.1172H48.2266V33.1172H45.7461V37.1172ZM48.2266 37.1172C49.7404 37.1172 51.0777 36.5401 52.1344 35.4634L49.2797 32.6616C48.9561 32.9912 48.6398 33.1172 48.2266 33.1172V37.1172ZM52.1344 35.4634C53.1823 34.3958 53.7422 33.063 53.7422 31.5625H49.7422C49.7422 31.9891 49.612 32.323 49.2797 32.6616L52.1344 35.4634ZM53.7422 31.5625C53.7422 30.0609 53.181 28.7276 52.1212 27.6678L49.2928 30.4962C49.6133 30.8167 49.7422 31.137 49.7422 31.5625H53.7422ZM52.1212 27.6678C51.0615 26.6081 49.7282 26.0469 48.2266 26.0469V30.0469C48.652 30.0469 48.9724 30.1758 49.2928 30.4962L52.1212 27.6678ZM59.2891 39.8047L57.3209 39.4494L57.2891 39.6256V39.8047H59.2891ZM64.25 12.3242L62.3097 11.8391L62.2936 11.9036L62.2818 11.9689L64.25 12.3242ZM70.4414 12.3242L72.412 11.9825L72.3995 11.9103L72.3817 11.8391L70.4414 12.3242ZM75.207 39.8047L77.1971 39.6057L77.1899 39.534L77.1776 39.463L75.207 39.8047ZM70.4023 39.8047L72.3924 39.6057L72.3878 39.5599L72.3812 39.5145L70.4023 39.8047ZM69.9727 36.875L71.9515 36.5848L71.7007 34.875H69.9727V36.875ZM64.5234 36.875V34.875H62.7954L62.5446 36.5848L64.5234 36.875ZM64.0938 39.8047L62.1149 39.5145L62.1082 39.5599L62.1037 39.6057L64.0938 39.8047ZM67.1211 21.3672L69.096 21.6832L69.1024 21.6429L69.1072 21.6024L67.1211 21.3672ZM65.3242 32.5977L63.3493 32.2817L62.9788 34.5977H65.3242V32.5977ZM69.1719 32.5977V34.5977H71.4853L71.1509 32.3086L69.1719 32.5977ZM67.5312 21.3672L69.5102 21.0781L69.5086 21.0667L69.5068 21.0553L67.5312 21.3672ZM67.2969 19.8828L69.2724 19.5709L65.3108 19.6476L67.2969 19.8828ZM61.2572 40.16L66.2182 12.6795L62.2818 11.9689L57.3209 39.4494L61.2572 40.16ZM66.1903 12.8093C66.1279 13.0589 65.9645 13.4513 65.5677 13.7688C65.1647 14.0912 64.7315 14.168 64.4453 14.168V10.168C64.055 10.168 63.5372 10.2707 63.069 10.6453C62.6071 11.0148 62.3982 11.4854 62.3097 11.8391L66.1903 12.8093ZM64.4453 14.168H70.2461V10.168H64.4453V14.168ZM70.2461 14.168C69.9599 14.168 69.5267 14.0912 69.1237 13.7688C68.7269 13.4513 68.5635 13.0589 68.5011 12.8093L72.3817 11.8391C72.2932 11.4854 72.0843 11.0148 71.6224 10.6453C71.1543 10.2707 70.6364 10.168 70.2461 10.168V14.168ZM68.4708 12.666L73.2364 40.1464L77.1776 39.463L72.412 11.9825L68.4708 12.666ZM73.217 40.0037C73.2001 39.8351 73.1714 39.2575 73.616 38.7018C74.1062 38.089 74.7609 38 75.0508 38V42C75.4579 42 76.1972 41.8784 76.7395 41.2006C77.2362 40.5797 77.227 39.9045 77.1971 39.6057L73.217 40.0037ZM75.0508 38H70.6172V42H75.0508V38ZM70.6172 38C70.8752 38 71.3674 38.0679 71.8112 38.4713C72.2534 38.8733 72.3673 39.3541 72.3924 39.6057L68.4123 40.0037C68.4504 40.3855 68.6066 40.9639 69.1205 41.4311C69.6358 41.8995 70.229 42 70.6172 42V38ZM72.3812 39.5145L71.9515 36.5848L67.9938 37.1652L68.4235 40.0949L72.3812 39.5145ZM69.9727 34.875H64.5234V38.875H69.9727V34.875ZM62.5446 36.5848L62.1149 39.5145L66.0726 40.0949L66.5023 37.1652L62.5446 36.5848ZM62.1037 39.6057C62.1241 39.4012 62.2137 38.9442 62.6209 38.537C63.0587 38.0992 63.5785 38 63.8984 38V42C64.3355 42 64.9465 41.8683 65.4494 41.3654C65.9217 40.8931 66.0504 40.3384 66.0838 40.0037L62.1037 39.6057ZM63.8984 38H59.4453V42H63.8984V38ZM59.4453 38C59.8346 38 60.4435 38.1438 60.8899 38.7018C61.2681 39.1746 61.2891 39.6561 61.2891 39.8047H57.2891C57.2891 40.0835 57.3361 40.6627 57.7664 41.2006C58.2649 41.8237 58.9518 42 59.4453 42V38ZM65.1462 21.0512L63.3493 32.2817L67.2991 32.9136L69.096 21.6832L65.1462 21.0512ZM65.3242 34.5977H69.1719V30.5977H65.3242V34.5977ZM71.1509 32.3086L69.5102 21.0781L65.5523 21.6563L67.1929 32.8868L71.1509 32.3086ZM69.5068 21.0553L69.2724 19.5709L65.3213 20.1947L65.5557 21.6791L69.5068 21.0553ZM65.3108 19.6476L65.135 21.132L69.1072 21.6024L69.283 20.118L65.3108 19.6476ZM79.7461 39.7266L81.7461 39.7266L81.7461 39.7237L79.7461 39.7266ZM79.707 12.4805L77.707 12.4805L77.707 12.4833L79.707 12.4805ZM83.6328 12.168L85.471 11.3799L84.9514 10.168H83.6328V12.168ZM90.3906 27.9297L88.5525 28.7178L92.3905 27.9044L90.3906 27.9297ZM90.1953 12.4805H88.1953V12.4931L88.1955 12.5058L90.1953 12.4805ZM94.7461 12.4805L92.7461 12.4805L92.7461 12.4833L94.7461 12.4805ZM94.7852 39.7656L96.7852 39.7656L96.7852 39.7628L94.7852 39.7656ZM91.0742 40L89.2647 40.8519L89.8053 42H91.0742V40ZM84.1406 25.2734L85.9501 24.4215L82.141 25.3141L84.1406 25.2734ZM84.4336 39.6875H86.4336V39.6672L86.4332 39.6469L84.4336 39.6875ZM84.0625 38H80.0586V42H84.0625V38ZM80.0586 38C80.202 38 80.6831 38.0256 81.1412 38.4265C81.6504 38.872 81.7461 39.4348 81.7461 39.7266H77.7461C77.7461 40.2006 77.8939 40.9001 78.5072 41.4368C79.0695 41.9288 79.7069 42 80.0586 42V38ZM81.7461 39.7237L81.707 12.4776L77.707 12.4833L77.7461 39.7294L81.7461 39.7237ZM81.707 12.4805C81.707 12.6846 81.6546 13.205 81.1994 13.6603C80.7441 14.1156 80.2237 14.168 80.0195 14.168V10.168C79.6071 10.168 78.9304 10.2724 78.3709 10.8319C77.8115 11.3913 77.707 12.068 77.707 12.4805H81.707ZM80.0195 14.168H83.6328V10.168H80.0195V14.168ZM81.7946 12.9561L88.5525 28.7178L92.2288 27.1416L85.471 11.3799L81.7946 12.9561ZM92.3905 27.9044L92.1952 12.4552L88.1955 12.5058L88.3908 27.955L92.3905 27.9044ZM92.1953 12.4805C92.1953 12.7496 92.1088 13.2993 91.6119 13.7409C91.16 14.1427 90.6837 14.168 90.5469 14.168V10.168C90.1756 10.168 89.5236 10.2454 88.9545 10.7513C88.3404 11.2971 88.1953 12.003 88.1953 12.4805H92.1953ZM90.5469 14.168H94.5117V10.168H90.5469V14.168ZM94.5117 14.168C94.1019 14.168 93.5037 14.001 93.0875 13.4461C92.7525 12.9994 92.7461 12.5686 92.7461 12.4805H96.7461C96.7461 12.184 96.7007 11.597 96.2875 11.0461C95.7932 10.387 95.0778 10.168 94.5117 10.168V14.168ZM92.7461 12.4833L92.7852 39.7685L96.7852 39.7628L96.7461 12.4776L92.7461 12.4833ZM92.7852 39.7656C92.7852 39.6153 92.8089 39.1302 93.1999 38.661C93.649 38.122 94.2411 38 94.5898 38V42C95.0688 42 95.7585 41.8389 96.2728 41.2218C96.7288 40.6745 96.7852 40.0722 96.7852 39.7656H92.7852ZM94.5898 38H91.0742V42H94.5898V38ZM92.8837 39.1481L85.9501 24.4215L82.3312 26.1254L89.2647 40.8519L92.8837 39.1481ZM82.141 25.3141L82.434 39.7281L86.4332 39.6469L86.1402 25.2328L82.141 25.3141ZM82.4336 39.6875C82.4336 39.3846 82.5398 38.8238 83.0525 38.3921C83.4995 38.0157 83.9538 38 84.0625 38V42C84.4186 42 85.0585 41.9322 85.6291 41.4517C86.2655 40.9157 86.4336 40.1987 86.4336 39.6875H82.4336Z" fill="white" mask="url(#path-1-outside-1_14_35)"/>
</g>
<defs>
<clipPath id="clip0_14_35">
<rect width="136" height="54" fill="white"/>
</clipPath>
</defs>
</svg>
