<svg width="185" height="67" viewBox="0 0 185 67" fill="none" xmlns="http://www.w3.org/2000/svg">
<g clip-path="url(#clip0_10_229)">
<mask id="path-1-outside-1_10_229" maskUnits="userSpaceOnUse" x="15" y="13" width="155" height="39" fill="black">
<rect fill="white" x="15" y="13" width="155" height="39"/>
<path d="M22.8391 49H17.4016C17.2453 49 17.1672 48.9219 17.1672 48.7656L17.2141 15.7891C17.2141 15.6641 17.2766 15.6016 17.4016 15.6016H22.7922C22.9172 15.6016 22.9797 15.6641 22.9797 15.7891L23.0266 48.7656C23.0266 48.9219 22.9641 49 22.8391 49ZM34.8719 49H30.0672C29.8172 49 29.6922 48.8906 29.6922 48.6719L29.6453 15.9766C29.6453 15.7266 29.7703 15.6016 30.0203 15.6016H34.3563L42.4656 34.5156L42.2313 15.9766C42.2313 15.7266 42.3719 15.6016 42.6531 15.6016H47.4109C47.5984 15.6016 47.6922 15.7266 47.6922 15.9766L47.7391 48.7188C47.7391 48.9062 47.6609 49 47.5047 49H43.2859L34.9656 31.3281L35.3172 48.625C35.3172 48.875 35.1688 49 34.8719 49ZM59.9359 49H54.5453C54.3891 49 54.3109 48.9219 54.3109 48.7656L54.4047 15.7891C54.4047 15.6641 54.4672 15.6016 54.5922 15.6016H69.9672C70.1234 15.6016 70.2016 15.6641 70.2016 15.7891V21.2031C70.2016 21.3281 70.1391 21.3906 70.0141 21.3906H60.1703V28.8438H70.0141C70.1391 28.8438 70.2016 28.9219 70.2016 29.0781L70.2484 34.5156C70.2484 34.6406 70.1703 34.7031 70.0141 34.7031H60.1703V48.7656C60.1703 48.9219 60.0922 49 59.9359 49ZM92.6172 49H77.1016C76.9766 49 76.9141 48.9219 76.9141 48.7656L76.9609 15.7891C76.9609 15.6641 77.0234 15.6016 77.1484 15.6016H92.5703C92.6953 15.6016 92.7578 15.6797 92.7578 15.8359V21.2031C92.7578 21.3281 92.6953 21.3906 92.5703 21.3906H82.7266V28.8906H92.5703C92.6953 28.8906 92.7578 28.9531 92.7578 29.0781L92.8047 34.5156C92.8047 34.6406 92.7422 34.7031 92.6172 34.7031H82.7266V43.0938H92.6172C92.7422 43.0938 92.8047 43.1719 92.8047 43.3281V48.8125C92.8047 48.9375 92.7422 49 92.6172 49ZM105.095 49H99.6578C99.5328 49 99.4703 48.9219 99.4703 48.7656L99.5641 15.7891C99.5641 15.6641 99.6266 15.6016 99.7516 15.6016H109.455C111.189 15.6016 112.783 16.0234 114.236 16.8672C115.689 17.7109 116.845 18.8438 117.705 20.2656C118.58 21.6875 119.017 23.2969 119.017 25.0938C119.017 26.2656 118.838 27.3281 118.478 28.2812C118.119 29.2344 117.697 30.0391 117.213 30.6953C116.744 31.3516 116.314 31.8359 115.923 32.1484C117.658 34.0703 118.525 36.3281 118.525 38.9219L118.572 48.7656C118.572 48.9219 118.494 49 118.338 49H112.9C112.775 49 112.713 48.9531 112.713 48.8594V38.9219C112.713 37.7656 112.306 36.7656 111.494 35.9219C110.681 35.0781 109.681 34.6562 108.494 34.6562H105.33L105.283 48.7656C105.283 48.9219 105.22 49 105.095 49ZM109.455 21.3438H105.33V28.8906H109.455C110.439 28.8906 111.314 28.5234 112.08 27.7891C112.861 27.0547 113.252 26.1562 113.252 25.0938C113.252 24.0781 112.877 23.2031 112.127 22.4688C111.377 21.7188 110.486 21.3438 109.455 21.3438ZM130.253 49H125.448C125.198 49 125.073 48.8906 125.073 48.6719L125.027 15.9766C125.027 15.7266 125.152 15.6016 125.402 15.6016H129.738L137.847 34.5156L137.613 15.9766C137.613 15.7266 137.753 15.6016 138.034 15.6016H142.792C142.98 15.6016 143.073 15.7266 143.073 15.9766L143.12 48.7188C143.12 48.9062 143.042 49 142.886 49H138.667L130.347 31.3281L130.698 48.625C130.698 48.875 130.55 49 130.253 49ZM158.575 49.4688C156.872 49.4688 155.302 49.0312 153.864 48.1562C152.442 47.2812 151.294 46.1172 150.419 44.6641C149.559 43.1953 149.13 41.5859 149.13 39.8359L149.177 24.625C149.177 22.8438 149.606 21.2422 150.466 19.8203C151.309 18.3828 152.45 17.2344 153.887 16.375C155.325 15.5 156.887 15.0625 158.575 15.0625C160.325 15.0625 161.895 15.4922 163.286 16.3516C164.692 17.2109 165.817 18.3672 166.661 19.8203C167.52 21.2578 167.95 22.8594 167.95 24.625L167.997 39.8359C167.997 41.5859 167.575 43.1875 166.731 44.6406C165.872 46.1094 164.731 47.2812 163.309 48.1562C161.887 49.0312 160.309 49.4688 158.575 49.4688ZM158.575 43.6797C159.544 43.6797 160.387 43.2891 161.106 42.5078C161.825 41.7109 162.184 40.8203 162.184 39.8359L162.137 24.625C162.137 23.5625 161.802 22.6641 161.13 21.9297C160.458 21.1953 159.606 20.8281 158.575 20.8281C157.591 20.8281 156.747 21.1875 156.044 21.9062C155.341 22.625 154.989 23.5312 154.989 24.625V39.8359C154.989 40.8828 155.341 41.7891 156.044 42.5547C156.747 43.3047 157.591 43.6797 158.575 43.6797Z"/>
</mask>
<path d="M22.8391 49H17.4016C17.2453 49 17.1672 48.9219 17.1672 48.7656L17.2141 15.7891C17.2141 15.6641 17.2766 15.6016 17.4016 15.6016H22.7922C22.9172 15.6016 22.9797 15.6641 22.9797 15.7891L23.0266 48.7656C23.0266 48.9219 22.9641 49 22.8391 49ZM34.8719 49H30.0672C29.8172 49 29.6922 48.8906 29.6922 48.6719L29.6453 15.9766C29.6453 15.7266 29.7703 15.6016 30.0203 15.6016H34.3563L42.4656 34.5156L42.2313 15.9766C42.2313 15.7266 42.3719 15.6016 42.6531 15.6016H47.4109C47.5984 15.6016 47.6922 15.7266 47.6922 15.9766L47.7391 48.7188C47.7391 48.9062 47.6609 49 47.5047 49H43.2859L34.9656 31.3281L35.3172 48.625C35.3172 48.875 35.1688 49 34.8719 49ZM59.9359 49H54.5453C54.3891 49 54.3109 48.9219 54.3109 48.7656L54.4047 15.7891C54.4047 15.6641 54.4672 15.6016 54.5922 15.6016H69.9672C70.1234 15.6016 70.2016 15.6641 70.2016 15.7891V21.2031C70.2016 21.3281 70.1391 21.3906 70.0141 21.3906H60.1703V28.8438H70.0141C70.1391 28.8438 70.2016 28.9219 70.2016 29.0781L70.2484 34.5156C70.2484 34.6406 70.1703 34.7031 70.0141 34.7031H60.1703V48.7656C60.1703 48.9219 60.0922 49 59.9359 49ZM92.6172 49H77.1016C76.9766 49 76.9141 48.9219 76.9141 48.7656L76.9609 15.7891C76.9609 15.6641 77.0234 15.6016 77.1484 15.6016H92.5703C92.6953 15.6016 92.7578 15.6797 92.7578 15.8359V21.2031C92.7578 21.3281 92.6953 21.3906 92.5703 21.3906H82.7266V28.8906H92.5703C92.6953 28.8906 92.7578 28.9531 92.7578 29.0781L92.8047 34.5156C92.8047 34.6406 92.7422 34.7031 92.6172 34.7031H82.7266V43.0938H92.6172C92.7422 43.0938 92.8047 43.1719 92.8047 43.3281V48.8125C92.8047 48.9375 92.7422 49 92.6172 49ZM105.095 49H99.6578C99.5328 49 99.4703 48.9219 99.4703 48.7656L99.5641 15.7891C99.5641 15.6641 99.6266 15.6016 99.7516 15.6016H109.455C111.189 15.6016 112.783 16.0234 114.236 16.8672C115.689 17.7109 116.845 18.8438 117.705 20.2656C118.58 21.6875 119.017 23.2969 119.017 25.0938C119.017 26.2656 118.838 27.3281 118.478 28.2812C118.119 29.2344 117.697 30.0391 117.213 30.6953C116.744 31.3516 116.314 31.8359 115.923 32.1484C117.658 34.0703 118.525 36.3281 118.525 38.9219L118.572 48.7656C118.572 48.9219 118.494 49 118.338 49H112.9C112.775 49 112.713 48.9531 112.713 48.8594V38.9219C112.713 37.7656 112.306 36.7656 111.494 35.9219C110.681 35.0781 109.681 34.6562 108.494 34.6562H105.33L105.283 48.7656C105.283 48.9219 105.22 49 105.095 49ZM109.455 21.3438H105.33V28.8906H109.455C110.439 28.8906 111.314 28.5234 112.08 27.7891C112.861 27.0547 113.252 26.1562 113.252 25.0938C113.252 24.0781 112.877 23.2031 112.127 22.4688C111.377 21.7188 110.486 21.3438 109.455 21.3438ZM130.253 49H125.448C125.198 49 125.073 48.8906 125.073 48.6719L125.027 15.9766C125.027 15.7266 125.152 15.6016 125.402 15.6016H129.738L137.847 34.5156L137.613 15.9766C137.613 15.7266 137.753 15.6016 138.034 15.6016H142.792C142.98 15.6016 143.073 15.7266 143.073 15.9766L143.12 48.7188C143.12 48.9062 143.042 49 142.886 49H138.667L130.347 31.3281L130.698 48.625C130.698 48.875 130.55 49 130.253 49ZM158.575 49.4688C156.872 49.4688 155.302 49.0312 153.864 48.1562C152.442 47.2812 151.294 46.1172 150.419 44.6641C149.559 43.1953 149.13 41.5859 149.13 39.8359L149.177 24.625C149.177 22.8438 149.606 21.2422 150.466 19.8203C151.309 18.3828 152.45 17.2344 153.887 16.375C155.325 15.5 156.887 15.0625 158.575 15.0625C160.325 15.0625 161.895 15.4922 163.286 16.3516C164.692 17.2109 165.817 18.3672 166.661 19.8203C167.52 21.2578 167.95 22.8594 167.95 24.625L167.997 39.8359C167.997 41.5859 167.575 43.1875 166.731 44.6406C165.872 46.1094 164.731 47.2812 163.309 48.1562C161.887 49.0312 160.309 49.4688 158.575 49.4688ZM158.575 43.6797C159.544 43.6797 160.387 43.2891 161.106 42.5078C161.825 41.7109 162.184 40.8203 162.184 39.8359L162.137 24.625C162.137 23.5625 161.802 22.6641 161.13 21.9297C160.458 21.1953 159.606 20.8281 158.575 20.8281C157.591 20.8281 156.747 21.1875 156.044 21.9062C155.341 22.625 154.989 23.5312 154.989 24.625V39.8359C154.989 40.8828 155.341 41.7891 156.044 42.5547C156.747 43.3047 157.591 43.6797 158.575 43.6797Z" fill="black" fill-opacity="0.6"/>
<path d="M17.1672 48.7656L15.1672 48.7628V48.7656H17.1672ZM17.2141 15.7891L19.2141 15.7919V15.7891H17.2141ZM22.9797 15.7891H20.9797L20.9797 15.7919L22.9797 15.7891ZM23.0266 48.7656H25.0266L25.0266 48.7628L23.0266 48.7656ZM22.8391 47H17.4016V51H22.8391V47ZM17.4016 47C17.6317 47 18.1717 47.0589 18.64 47.5272C19.1083 47.9955 19.1672 48.5355 19.1672 48.7656H15.1672C15.1672 49.152 15.2651 49.8092 15.8116 50.3556C16.358 50.902 17.0152 51 17.4016 51V47ZM19.1672 48.7685L19.2141 15.7919L15.2141 15.7862L15.1672 48.7628L19.1672 48.7685ZM19.2141 15.7891C19.2141 16.0349 19.1513 16.5865 18.6752 17.0627C18.199 17.5388 17.6474 17.6016 17.4016 17.6016V13.6016C17.0308 13.6016 16.3853 13.6956 15.8467 14.2342C15.3081 14.7728 15.2141 15.4183 15.2141 15.7891H19.2141ZM17.4016 17.6016H22.7922V13.6016H17.4016V17.6016ZM22.7922 17.6016C22.5464 17.6016 21.9947 17.5388 21.5186 17.0627C21.0425 16.5865 20.9797 16.0349 20.9797 15.7891H24.9797C24.9797 15.4183 24.8856 14.7728 24.347 14.2342C23.8084 13.6956 23.163 13.6016 22.7922 13.6016V17.6016ZM20.9797 15.7919L21.0266 48.7685L25.0266 48.7628L24.9797 15.7862L20.9797 15.7919ZM21.0266 48.7656C21.0266 48.6301 21.0449 48.1583 21.418 47.692C21.8591 47.1405 22.4602 47 22.8391 47V51C23.343 51 24.0377 50.8204 24.5414 50.1908C24.9769 49.6464 25.0266 49.0574 25.0266 48.7656H21.0266ZM29.6922 48.6719H31.6922L31.6922 48.669L29.6922 48.6719ZM29.6453 15.9766H27.6453L27.6453 15.9794L29.6453 15.9766ZM34.3563 15.6016L36.1944 14.8134L35.6748 13.6016H34.3563V15.6016ZM42.4656 34.5156L40.6275 35.3037L44.4655 34.4903L42.4656 34.5156ZM42.2313 15.9766H40.2313V15.9892L40.2314 16.0018L42.2313 15.9766ZM47.6922 15.9766H45.6922L45.6922 15.9794L47.6922 15.9766ZM47.7391 48.7188H49.7391L49.7391 48.7159L47.7391 48.7188ZM43.2859 49L41.4765 49.8519L42.017 51H43.2859V49ZM34.9656 31.3281L36.7751 30.4762L32.966 31.3688L34.9656 31.3281ZM35.3172 48.625H37.3172V48.6047L37.3168 48.5844L35.3172 48.625ZM34.8719 47H30.0672V51H34.8719V47ZM30.0672 47C30.1898 47 30.6552 47.021 31.1029 47.4128C31.6017 47.8492 31.6922 48.3984 31.6922 48.6719H27.6922C27.6922 49.1641 27.8452 49.8773 28.4689 50.4231C29.0417 50.9243 29.6946 51 30.0672 51V47ZM31.6922 48.669L31.6453 15.9737L27.6453 15.9794L27.6922 48.6747L31.6922 48.669ZM31.6453 15.9766C31.6453 16.1599 31.5981 16.6647 31.1533 17.1095C30.7084 17.5544 30.2036 17.6016 30.0203 17.6016V13.6016C29.587 13.6016 28.8947 13.7112 28.3249 14.2811C27.755 14.851 27.6453 15.5433 27.6453 15.9766H31.6453ZM30.0203 17.6016H34.3563V13.6016H30.0203V17.6016ZM32.5181 16.3897L40.6275 35.3037L44.3038 33.7275L36.1944 14.8134L32.5181 16.3897ZM44.4655 34.4903L44.2311 15.9513L40.2314 16.0018L40.4658 34.5409L44.4655 34.4903ZM44.2313 15.9766C44.2313 16.2249 44.1506 16.7589 43.6654 17.1901C43.2252 17.5815 42.7666 17.6016 42.6531 17.6016V13.6016C42.2584 13.6016 41.5889 13.6842 41.008 14.2005C40.3822 14.7567 40.2313 15.4783 40.2313 15.9766H44.2313ZM42.6531 17.6016H47.4109V13.6016H42.6531V17.6016ZM47.4109 17.6016C47.0167 17.6016 46.4302 17.4398 46.0219 16.8953C45.6947 16.459 45.6922 16.0439 45.6922 15.9766H49.6922C49.6922 15.6592 49.6428 15.0566 49.2219 14.4953C48.7198 13.8258 47.9927 13.6016 47.4109 13.6016V17.6016ZM45.6922 15.9794L45.7391 48.7216L49.7391 48.7159L49.6922 15.9737L45.6922 15.9794ZM45.7391 48.7188C45.7391 48.584 45.7596 48.1106 46.144 47.6493C46.5867 47.1181 47.1689 47 47.5047 47V51C47.9967 51 48.6961 50.835 49.2169 50.2101C49.6795 49.655 49.7391 49.041 49.7391 48.7188H45.7391ZM47.5047 47H43.2859V51H47.5047V47ZM45.0954 48.1481L36.7751 30.4762L33.1562 32.1801L41.4765 49.8519L45.0954 48.1481ZM32.966 31.3688L33.3176 48.6656L37.3168 48.5844L36.9652 31.2875L32.966 31.3688ZM33.3172 48.625C33.3172 48.343 33.4172 47.7978 33.9176 47.3764C34.3521 47.0105 34.7879 47 34.8719 47V51C35.2528 51 35.9111 50.927 36.4941 50.4361C37.143 49.8897 37.3172 49.157 37.3172 48.625H33.3172ZM54.3109 48.7656L52.3109 48.7599V48.7656H54.3109ZM54.4047 15.7891L56.4047 15.7947V15.7891H54.4047ZM60.1703 21.3906V19.3906H58.1703V21.3906H60.1703ZM60.1703 28.8438H58.1703V30.8438H60.1703V28.8438ZM70.2016 29.0781H68.2016V29.0867L68.2016 29.0954L70.2016 29.0781ZM70.2484 34.5156H72.2484V34.507L72.2484 34.4984L70.2484 34.5156ZM60.1703 34.7031V32.7031H58.1703V34.7031H60.1703ZM59.9359 47H54.5453V51H59.9359V47ZM54.5453 47C54.7755 47 55.3154 47.0589 55.7837 47.5272C56.252 47.9955 56.3109 48.5355 56.3109 48.7656H52.3109C52.3109 49.152 52.4089 49.8092 52.9553 50.3556C53.5017 50.902 54.1589 51 54.5453 51V47ZM56.3109 48.7713L56.4047 15.7947L52.4047 15.7834L52.3109 48.7599L56.3109 48.7713ZM56.4047 15.7891C56.4047 16.0349 56.3419 16.5865 55.8658 17.0627C55.3897 17.5388 54.838 17.6016 54.5922 17.6016V13.6016C54.2214 13.6016 53.576 13.6956 53.0373 14.2342C52.4987 14.7728 52.4047 15.4183 52.4047 15.7891H56.4047ZM54.5922 17.6016H69.9672V13.6016H54.5922V17.6016ZM69.9672 17.6016C69.8316 17.6016 69.3599 17.5832 68.8936 17.2102C68.3421 16.769 68.2016 16.168 68.2016 15.7891H72.2016C72.2016 15.2852 72.022 14.5904 71.3924 14.0867C70.848 13.6512 70.259 13.6016 69.9672 13.6016V17.6016ZM68.2016 15.7891V21.2031H72.2016V15.7891H68.2016ZM68.2016 21.2031C68.2016 20.9573 68.2644 20.4056 68.7405 19.9295C69.2166 19.4534 69.7683 19.3906 70.0141 19.3906V23.3906C70.3849 23.3906 71.0303 23.2966 71.5689 22.758C72.1075 22.2194 72.2016 21.5739 72.2016 21.2031H68.2016ZM70.0141 19.3906H60.1703V23.3906H70.0141V19.3906ZM58.1703 21.3906V28.8438H62.1703V21.3906H58.1703ZM60.1703 30.8438H70.0141V26.8438H60.1703V30.8438ZM70.0141 30.8438C69.6352 30.8438 69.0341 30.7032 68.5929 30.1517C68.2199 29.6855 68.2016 29.2137 68.2016 29.0781H72.2016C72.2016 28.7863 72.1519 28.1974 71.7164 27.653C71.2127 27.0233 70.518 26.8438 70.0141 26.8438V30.8438ZM68.2016 29.0954L68.2485 34.5329L72.2484 34.4984L72.2015 29.0609L68.2016 29.0954ZM68.2484 34.5156C68.2484 34.1367 68.389 33.5357 68.9405 33.0945C69.4067 32.7215 69.8785 32.7031 70.0141 32.7031V36.7031C70.3059 36.7031 70.8948 36.6535 71.4392 36.218C72.0689 35.7143 72.2484 35.0195 72.2484 34.5156H68.2484ZM70.0141 32.7031H60.1703V36.7031H70.0141V32.7031ZM58.1703 34.7031V48.7656H62.1703V34.7031H58.1703ZM58.1703 48.7656C58.1703 48.5355 58.2292 47.9955 58.6975 47.5272C59.1658 47.0589 59.7058 47 59.9359 47V51C60.3224 51 60.9795 50.902 61.5259 50.3556C62.0724 49.8092 62.1703 49.152 62.1703 48.7656H58.1703ZM76.9141 48.7656L74.9141 48.7628V48.7656H76.9141ZM76.9609 15.7891L78.9609 15.7919V15.7891H76.9609ZM82.7266 21.3906V19.3906H80.7266V21.3906H82.7266ZM82.7266 28.8906H80.7266V30.8906H82.7266V28.8906ZM92.7578 29.0781H90.7578V29.0867L90.7579 29.0954L92.7578 29.0781ZM92.8047 34.5156H94.8047V34.507L94.8046 34.4984L92.8047 34.5156ZM82.7266 34.7031V32.7031H80.7266V34.7031H82.7266ZM82.7266 43.0938H80.7266V45.0938H82.7266V43.0938ZM92.6172 47H77.1016V51H92.6172V47ZM77.1016 47C77.4805 47 78.0815 47.1405 78.5227 47.692C78.8957 48.1583 78.9141 48.6301 78.9141 48.7656H74.9141C74.9141 49.0574 74.9637 49.6464 75.3992 50.1908C75.9029 50.8204 76.5976 51 77.1016 51V47ZM78.9141 48.7685L78.9609 15.7919L74.9609 15.7862L74.9141 48.7628L78.9141 48.7685ZM78.9609 15.7891C78.9609 16.0349 78.8981 16.5865 78.422 17.0627C77.9459 17.5388 77.3942 17.6016 77.1484 17.6016V13.6016C76.7776 13.6016 76.1322 13.6956 75.5936 14.2342C75.055 14.7728 74.9609 15.4183 74.9609 15.7891H78.9609ZM77.1484 17.6016H92.5703V13.6016H77.1484V17.6016ZM92.5703 17.6016C92.1914 17.6016 91.5904 17.461 91.1492 16.9095C90.7762 16.4433 90.7578 15.9715 90.7578 15.8359H94.7578C94.7578 15.5441 94.7082 14.9552 94.2727 14.4108C93.769 13.7811 93.0742 13.6016 92.5703 13.6016V17.6016ZM90.7578 15.8359V21.2031H94.7578V15.8359H90.7578ZM90.7578 21.2031C90.7578 20.9573 90.8206 20.4056 91.2967 19.9295C91.7728 19.4534 92.3245 19.3906 92.5703 19.3906V23.3906C92.9411 23.3906 93.5865 23.2966 94.1252 22.758C94.6638 22.2194 94.7578 21.5739 94.7578 21.2031H90.7578ZM92.5703 19.3906H82.7266V23.3906H92.5703V19.3906ZM80.7266 21.3906V28.8906H84.7266V21.3906H80.7266ZM82.7266 30.8906H92.5703V26.8906H82.7266V30.8906ZM92.5703 30.8906C92.3245 30.8906 91.7728 30.8278 91.2967 30.3517C90.8206 29.8756 90.7578 29.3239 90.7578 29.0781H94.7578C94.7578 28.7073 94.6638 28.0619 94.1252 27.5233C93.5865 26.9847 92.9411 26.8906 92.5703 26.8906V30.8906ZM90.7579 29.0954L90.8048 34.5329L94.8046 34.4984L94.7577 29.0609L90.7579 29.0954ZM90.8047 34.5156C90.8047 34.2698 90.8675 33.7181 91.3436 33.242C91.8197 32.7659 92.3714 32.7031 92.6172 32.7031V36.7031C92.988 36.7031 93.6334 36.6091 94.172 36.0705C94.7106 35.5319 94.8047 34.8864 94.8047 34.5156H90.8047ZM92.6172 32.7031H82.7266V36.7031H92.6172V32.7031ZM80.7266 34.7031V43.0938H84.7266V34.7031H80.7266ZM82.7266 45.0938H92.6172V41.0938H82.7266V45.0938ZM92.6172 45.0938C92.2383 45.0938 91.6373 44.9532 91.1961 44.4017C90.8231 43.9355 90.8047 43.4637 90.8047 43.3281H94.8047C94.8047 43.0363 94.7551 42.4474 94.3195 41.903C93.8159 41.2733 93.1211 41.0938 92.6172 41.0938V45.0938ZM90.8047 43.3281V48.8125H94.8047V43.3281H90.8047ZM90.8047 48.8125C90.8047 48.5667 90.8675 48.015 91.3436 47.5389C91.8197 47.0628 92.3714 47 92.6172 47V51C92.988 51 93.6334 50.9059 94.172 50.3673C94.7106 49.8287 94.8047 49.1833 94.8047 48.8125H90.8047ZM99.4703 48.7656L97.4703 48.7599V48.7656H99.4703ZM99.5641 15.7891L101.564 15.7947V15.7891H99.5641ZM117.705 20.2656L115.993 21.3001L115.997 21.307L116.001 21.3138L117.705 20.2656ZM117.213 30.6953L115.603 29.5076L115.594 29.5202L115.585 29.5328L117.213 30.6953ZM115.923 32.1484L114.674 30.5867L113.017 31.9126L114.439 33.4884L115.923 32.1484ZM118.525 38.9219H116.525L116.525 38.9314L118.525 38.9219ZM118.572 48.7656H120.572L120.572 48.7561L118.572 48.7656ZM105.33 34.6562V32.6562H103.336L103.33 34.6496L105.33 34.6562ZM105.283 48.7656L103.283 48.759V48.7656H105.283ZM105.33 21.3438V19.3438H103.33V21.3438H105.33ZM105.33 28.8906H103.33V30.8906H105.33V28.8906ZM112.08 27.7891L110.71 26.3318L110.703 26.3387L110.695 26.3457L112.08 27.7891ZM112.127 22.4688L110.712 23.883L110.72 23.8904L110.727 23.8978L112.127 22.4688ZM105.095 47H99.6578V51H105.095V47ZM99.6578 47C100.037 47 100.638 47.1405 101.079 47.692C101.452 48.1583 101.47 48.6301 101.47 48.7656H97.4703C97.4703 49.0574 97.5199 49.6464 97.9555 50.1908C98.4591 50.8204 99.1539 51 99.6578 51V47ZM101.47 48.7713L101.564 15.7947L97.5641 15.7834L97.4703 48.7599L101.47 48.7713ZM101.564 15.7891C101.564 16.0349 101.501 16.5865 101.025 17.0627C100.549 17.5388 99.9974 17.6016 99.7516 17.6016V13.6016C99.3808 13.6016 98.7353 13.6956 98.1967 14.2342C97.6581 14.7728 97.5641 15.4183 97.5641 15.7891H101.564ZM99.7516 17.6016H109.455V13.6016H99.7516V17.6016ZM109.455 17.6016C110.848 17.6016 112.094 17.936 113.232 18.5968L115.24 15.1376C113.472 14.1109 111.53 13.6016 109.455 13.6016V17.6016ZM113.232 18.5968C114.398 19.2739 115.309 20.1691 115.993 21.3001L119.416 19.2311C118.381 17.5184 116.98 16.148 115.24 15.1376L113.232 18.5968ZM116.001 21.3138C116.668 22.3964 117.017 23.6377 117.017 25.0938H121.017C121.017 22.9561 120.492 20.9786 119.408 19.2174L116.001 21.3138ZM117.017 25.0938C117.017 26.0604 116.869 26.8793 116.607 27.5756L120.35 28.9869C120.806 27.777 121.017 26.4709 121.017 25.0938H117.017ZM116.607 27.5756C116.297 28.3975 115.955 29.0306 115.603 29.5076L118.822 31.883C119.438 31.0475 119.941 30.0712 120.35 28.9869L116.607 27.5756ZM115.585 29.5328C115.167 30.1188 114.861 30.4375 114.674 30.5867L117.173 33.7102C117.768 33.2344 118.321 32.5843 118.84 31.8578L115.585 29.5328ZM114.439 33.4884C115.841 35.042 116.525 36.8221 116.525 38.9219H120.525C120.525 35.8342 119.475 33.0987 117.408 30.8085L114.439 33.4884ZM116.525 38.9314L116.572 48.7752L120.572 48.7561L120.525 38.9123L116.525 38.9314ZM116.572 48.7656C116.572 48.5355 116.631 47.9955 117.099 47.5272C117.567 47.0589 118.107 47 118.338 47V51C118.724 51 119.381 50.902 119.927 50.3556C120.474 49.8092 120.572 49.152 120.572 48.7656H116.572ZM118.338 47H112.9V51H118.338V47ZM112.9 47C113.03 47 113.492 47.0142 113.959 47.3648C114.535 47.7967 114.713 48.4183 114.713 48.8594H110.713C110.713 49.3942 110.921 50.0862 111.559 50.5648C112.089 50.9624 112.645 51 112.9 51V47ZM114.713 48.8594V38.9219H110.713V48.8594H114.713ZM114.713 38.9219C114.713 37.2408 114.101 35.7456 112.934 34.5346L110.053 37.3092C110.512 37.7857 110.713 38.2905 110.713 38.9219H114.713ZM112.934 34.5346C111.739 33.2933 110.216 32.6562 108.494 32.6562V36.6562C109.146 36.6562 109.623 36.863 110.053 37.3092L112.934 34.5346ZM108.494 32.6562H105.33V36.6562H108.494V32.6562ZM103.33 34.6496L103.283 48.759L107.283 48.7723L107.33 34.6629L103.33 34.6496ZM103.283 48.7656C103.283 48.6301 103.301 48.1583 103.674 47.692C104.115 47.1405 104.716 47 105.095 47V51C105.599 51 106.294 50.8204 106.798 50.1908C107.233 49.6464 107.283 49.0574 107.283 48.7656H103.283ZM109.455 19.3438H105.33V23.3438H109.455V19.3438ZM103.33 21.3438V28.8906H107.33V21.3438H103.33ZM105.33 30.8906H109.455V26.8906H105.33V30.8906ZM109.455 30.8906C110.997 30.8906 112.358 30.2935 113.464 29.2324L110.695 26.3457C110.27 26.7534 109.881 26.8906 109.455 26.8906V30.8906ZM113.45 29.2463C114.629 28.1379 115.252 26.7139 115.252 25.0938H111.252C111.252 25.5986 111.093 25.9715 110.71 26.3318L113.45 29.2463ZM115.252 25.0938C115.252 23.5205 114.646 22.1362 113.526 21.0397L110.727 23.8978C111.108 24.2701 111.252 24.6357 111.252 25.0938H115.252ZM113.541 21.0545C112.428 19.9414 111.033 19.3438 109.455 19.3438V23.3438C109.939 23.3438 110.325 23.4961 110.712 23.883L113.541 21.0545ZM125.073 48.6719H127.073V48.669L125.073 48.6719ZM125.027 15.9766H123.027V15.9794L125.027 15.9766ZM129.738 15.6016L131.576 14.8134L131.056 13.6016H129.738V15.6016ZM137.847 34.5156L136.009 35.3037L139.847 34.4903L137.847 34.5156ZM137.613 15.9766H135.613V15.9892L135.613 16.0018L137.613 15.9766ZM143.073 15.9766H141.073V15.9794L143.073 15.9766ZM143.12 48.7188H145.12V48.7159L143.12 48.7188ZM138.667 49L136.858 49.8519L137.398 51H138.667V49ZM130.347 31.3281L132.156 30.4762L128.347 31.3688L130.347 31.3281ZM130.698 48.625H132.698V48.6047L132.698 48.5844L130.698 48.625ZM130.253 47H125.448V51H130.253V47ZM125.448 47C125.571 47 126.036 47.021 126.484 47.4128C126.983 47.8492 127.073 48.3984 127.073 48.6719H123.073C123.073 49.1641 123.226 49.8773 123.85 50.4231C124.423 50.9243 125.076 51 125.448 51V47ZM127.073 48.669L127.027 15.9737L123.027 15.9794L123.073 48.6747L127.073 48.669ZM127.027 15.9766C127.027 16.1599 126.979 16.6647 126.535 17.1095C126.09 17.5544 125.585 17.6016 125.402 17.6016V13.6016C124.968 13.6016 124.276 13.7112 123.706 14.2811C123.136 14.851 123.027 15.5433 123.027 15.9766H127.027ZM125.402 17.6016H129.738V13.6016H125.402V17.6016ZM127.899 16.3897L136.009 35.3037L139.685 33.7275L131.576 14.8134L127.899 16.3897ZM139.847 34.4903L139.612 15.9513L135.613 16.0018L135.847 34.5409L139.847 34.4903ZM139.613 15.9766C139.613 16.2249 139.532 16.7589 139.047 17.1901C138.606 17.5815 138.148 17.6016 138.034 17.6016V13.6016C137.64 13.6016 136.97 13.6842 136.389 14.2005C135.763 14.7567 135.613 15.4783 135.613 15.9766H139.613ZM138.034 17.6016H142.792V13.6016H138.034V17.6016ZM142.792 17.6016C142.398 17.6016 141.811 17.4398 141.403 16.8953C141.076 16.459 141.073 16.0439 141.073 15.9766H145.073C145.073 15.6592 145.024 15.0566 144.603 14.4953C144.101 13.8258 143.374 13.6016 142.792 13.6016V17.6016ZM141.073 15.9794L141.12 48.7216L145.12 48.7159L145.073 15.9737L141.073 15.9794ZM141.12 48.7188C141.12 48.584 141.141 48.1106 141.525 47.6493C141.968 47.1181 142.55 47 142.886 47V51C143.378 51 144.077 50.835 144.598 50.2101C145.061 49.655 145.12 49.041 145.12 48.7188H141.12ZM142.886 47H138.667V51H142.886V47ZM140.477 48.1481L132.156 30.4762L128.537 32.1801L136.858 49.8519L140.477 48.1481ZM128.347 31.3688L128.699 48.6656L132.698 48.5844L132.346 31.2875L128.347 31.3688ZM128.698 48.625C128.698 48.343 128.798 47.7978 129.299 47.3764C129.733 47.0105 130.169 47 130.253 47V51C130.634 51 131.292 50.927 131.875 50.4361C132.524 49.8897 132.698 49.157 132.698 48.625H128.698ZM153.864 48.1562L152.816 49.8596L152.824 49.8646L153.864 48.1562ZM150.419 44.6641L148.693 45.6741L148.699 45.685L148.705 45.6958L150.419 44.6641ZM149.13 39.8359L147.13 39.8298V39.8359H149.13ZM149.177 24.625L151.177 24.6312V24.625H149.177ZM150.466 19.8203L152.177 20.8548L152.184 20.8438L152.19 20.8327L150.466 19.8203ZM153.887 16.375L154.914 18.0916L154.921 18.0875L154.927 18.0834L153.887 16.375ZM163.286 16.3516L162.235 18.0529L162.243 18.0581L163.286 16.3516ZM166.661 19.8203L164.931 20.8246L164.938 20.8356L164.944 20.8466L166.661 19.8203ZM167.95 24.625H165.95L165.95 24.6312L167.95 24.625ZM167.997 39.8359H169.997L169.997 39.8298L167.997 39.8359ZM166.731 44.6406L168.457 45.6507L168.461 45.6449L166.731 44.6406ZM161.106 42.5078L162.578 43.8619L162.585 43.8547L162.591 43.8474L161.106 42.5078ZM162.184 39.8359H164.184L164.184 39.8298L162.184 39.8359ZM162.137 24.625H160.137L160.138 24.6312L162.137 24.625ZM156.044 42.5547L154.571 43.9075L154.578 43.9151L154.585 43.9226L156.044 42.5547ZM158.575 47.4688C157.234 47.4688 156.024 47.1297 154.904 46.4479L152.824 49.8646C154.579 50.9328 156.51 51.4688 158.575 51.4688V47.4688ZM154.912 46.4529C153.767 45.7482 152.845 44.8162 152.132 43.6324L148.705 45.6958C149.743 47.4181 151.117 48.8143 152.816 49.8596L154.912 46.4529ZM152.145 43.654C151.47 42.5007 151.13 41.2415 151.13 39.8359H147.13C147.13 41.9304 147.649 43.8899 148.693 45.6741L152.145 43.654ZM151.13 39.8421L151.177 24.6312L147.177 24.6188L147.13 39.8298L151.13 39.8421ZM151.177 24.625C151.177 23.1811 151.52 21.942 152.177 20.8548L148.754 18.7858C147.692 20.5424 147.177 22.5064 147.177 24.625H151.177ZM152.19 20.8327C152.863 19.6863 153.763 18.7795 154.914 18.0916L152.861 14.6584C151.137 15.6892 149.755 17.0793 148.741 18.8079L152.19 20.8327ZM154.927 18.0834C156.051 17.3997 157.253 17.0625 158.575 17.0625V13.0625C156.522 13.0625 154.599 13.6003 152.848 14.6666L154.927 18.0834ZM158.575 17.0625C159.981 17.0625 161.182 17.4026 162.235 18.0529L164.337 14.6502C162.608 13.5817 160.669 13.0625 158.575 13.0625V17.0625ZM162.243 18.0581C163.36 18.7406 164.251 19.6531 164.931 20.8246L168.391 18.816C167.383 17.0813 166.025 15.6813 164.329 14.645L162.243 18.0581ZM164.944 20.8466C165.608 21.9568 165.95 23.2003 165.95 24.625H169.95C169.95 22.5184 169.433 20.5588 168.378 18.7941L164.944 20.8466ZM165.95 24.6312L165.997 39.8421L169.997 39.8298L169.95 24.6188L165.95 24.6312ZM165.997 39.8359C165.997 41.2484 165.661 42.5012 165.002 43.6364L168.461 45.6449C169.489 43.8738 169.997 41.9234 169.997 39.8359H165.997ZM165.005 43.6306C164.308 44.8218 163.398 45.7533 162.261 46.4529L164.358 49.8596C166.064 48.8092 167.436 47.3969 168.457 45.6507L165.005 43.6306ZM162.261 46.4529C161.167 47.1262 159.954 47.4688 158.575 47.4688V51.4688C160.664 51.4688 162.608 50.9363 164.358 49.8596L162.261 46.4529ZM158.575 45.6797C160.16 45.6797 161.521 45.0108 162.578 43.8619L159.634 41.1537C159.254 41.5673 158.927 41.6797 158.575 41.6797V45.6797ZM162.591 43.8474C163.609 42.719 164.184 41.3615 164.184 39.8359H160.184C160.184 40.2791 160.041 40.7029 159.621 41.1683L162.591 43.8474ZM164.184 39.8298L164.137 24.6188L160.138 24.6312L160.184 39.8421L164.184 39.8298ZM164.137 24.625C164.137 23.0996 163.639 21.709 162.605 20.5797L159.654 23.2797C159.965 23.6191 160.137 24.0254 160.137 24.625H164.137ZM162.605 20.5797C161.539 19.4145 160.145 18.8281 158.575 18.8281V22.8281C159.068 22.8281 159.376 22.9761 159.654 23.2797L162.605 20.5797ZM158.575 18.8281C157.04 18.8281 155.684 19.4136 154.614 20.5077L157.473 23.3048C157.809 22.9614 158.142 22.8281 158.575 22.8281V18.8281ZM154.614 20.5077C153.512 21.6347 152.989 23.0588 152.989 24.625H156.989C156.989 24.0037 157.17 23.6153 157.473 23.3048L154.614 20.5077ZM152.989 24.625V39.8359H156.989V24.625H152.989ZM152.989 39.8359C152.989 41.3799 153.526 42.77 154.571 43.9075L157.517 41.2019C157.155 40.8082 156.989 40.3857 156.989 39.8359H152.989ZM154.585 43.9226C155.647 45.0557 157.011 45.6797 158.575 45.6797V41.6797C158.17 41.6797 157.847 41.5537 157.503 41.1868L154.585 43.9226Z" fill="url(#paint0_linear_10_229)" mask="url(#path-1-outside-1_10_229)"/>
</g>
<defs>
<linearGradient id="paint0_linear_10_229" x1="14.5" y1="34" x2="170" y2="34" gradientUnits="userSpaceOnUse">
<stop stop-color="#FFBD30"/>
<stop offset="0.335" stop-color="#FF9D39"/>
<stop offset="0.66" stop-color="#FF6749"/>
<stop offset="1" stop-color="#FF4C4F"/>
</linearGradient>
<clipPath id="clip0_10_229">
<rect width="185" height="67" fill="white"/>
</clipPath>
</defs>
</svg>
