<svg width="185" height="67" viewBox="0 0 185 67" fill="none" xmlns="http://www.w3.org/2000/svg">
<g clip-path="url(#clip0_20_40)">
<mask id="path-1-outside-1_20_40" maskUnits="userSpaceOnUse" x="8" y="13" width="170" height="39" fill="black">
<rect fill="white" x="8" y="13" width="170" height="39"/>
<path d="M15.6672 49H10.2297C10.1047 49 10.0422 48.9219 10.0422 48.7656L10.1359 15.7891C10.1359 15.6641 10.1984 15.6016 10.3234 15.6016H16.1828C16.3078 15.6016 16.4172 15.6641 16.5109 15.7891L20.8938 22.1172L25.2531 15.7891C25.3469 15.6641 25.4641 15.6016 25.6047 15.6016H31.4875C31.6281 15.6016 31.6984 15.6641 31.6984 15.7891L31.7922 48.7656C31.7922 48.9219 31.7297 49 31.6047 49H26.1672C26.0422 49 25.9797 48.9219 25.9797 48.7656L25.9328 24.2734L20.8938 31.5859L15.9016 24.2734L15.8547 48.7656C15.8547 48.9219 15.7922 49 15.6672 49ZM53.9266 49H38.4109C38.2859 49 38.2234 48.9219 38.2234 48.7656L38.2703 15.7891C38.2703 15.6641 38.3328 15.6016 38.4578 15.6016H53.8797C54.0047 15.6016 54.0672 15.6797 54.0672 15.8359V21.2031C54.0672 21.3281 54.0047 21.3906 53.8797 21.3906H44.0359V28.8906H53.8797C54.0047 28.8906 54.0672 28.9531 54.0672 29.0781L54.1141 34.5156C54.1141 34.6406 54.0516 34.7031 53.9266 34.7031H44.0359V43.0938H53.9266C54.0516 43.0938 54.1141 43.1719 54.1141 43.3281V48.8125C54.1141 48.9375 54.0516 49 53.9266 49ZM66.4047 49H60.9672C60.8422 49 60.7797 48.9219 60.7797 48.7656L60.8734 15.7891C60.8734 15.6641 60.9359 15.6016 61.0609 15.6016H66.9203C67.0453 15.6016 67.1547 15.6641 67.2484 15.7891L71.6313 22.1172L75.9906 15.7891C76.0844 15.6641 76.2016 15.6016 76.3422 15.6016H82.225C82.3656 15.6016 82.4359 15.6641 82.4359 15.7891L82.5297 48.7656C82.5297 48.9219 82.4672 49 82.3422 49H76.9047C76.7797 49 76.7172 48.9219 76.7172 48.7656L76.6703 24.2734L71.6313 31.5859L66.6391 24.2734L66.5922 48.7656C66.5922 48.9219 66.5297 49 66.4047 49ZM104.664 49H89.1484C89.0234 49 88.9609 48.9219 88.9609 48.7656L89.0078 15.7891C89.0078 15.6641 89.0703 15.6016 89.1953 15.6016H104.617C104.742 15.6016 104.805 15.6797 104.805 15.8359V21.2031C104.805 21.3281 104.742 21.3906 104.617 21.3906H94.7734V28.8906H104.617C104.742 28.8906 104.805 28.9531 104.805 29.0781L104.852 34.5156C104.852 34.6406 104.789 34.7031 104.664 34.7031H94.7734V43.0938H104.664C104.789 43.0938 104.852 43.1719 104.852 43.3281V48.8125C104.852 48.9375 104.789 49 104.664 49ZM116.744 49H111.939C111.689 49 111.564 48.8906 111.564 48.6719L111.517 15.9766C111.517 15.7266 111.642 15.6016 111.892 15.6016H116.228L124.338 34.5156L124.103 15.9766C124.103 15.7266 124.244 15.6016 124.525 15.6016H129.283C129.47 15.6016 129.564 15.7266 129.564 15.9766L129.611 48.7188C129.611 48.9062 129.533 49 129.377 49H125.158L116.838 31.3281L117.189 48.625C117.189 48.875 117.041 49 116.744 49ZM146.425 49H141.011C140.87 49 140.8 48.9219 140.8 48.7656V21.3906H134.566C134.409 21.3906 134.331 21.3125 134.331 21.1562L134.378 15.7891C134.378 15.6641 134.441 15.6016 134.566 15.6016H152.8C152.972 15.6016 153.058 15.6641 153.058 15.7891V21.1562C153.058 21.3125 152.995 21.3906 152.87 21.3906H146.566L146.613 48.7656C146.613 48.9219 146.55 49 146.425 49ZM165.7 49.4688C163.997 49.4688 162.427 49.0312 160.989 48.1562C159.567 47.2812 158.419 46.1172 157.544 44.6641C156.684 43.1953 156.255 41.5859 156.255 39.8359L156.302 24.625C156.302 22.8438 156.731 21.2422 157.591 19.8203C158.434 18.3828 159.575 17.2344 161.012 16.375C162.45 15.5 164.012 15.0625 165.7 15.0625C167.45 15.0625 169.02 15.4922 170.411 16.3516C171.817 17.2109 172.942 18.3672 173.786 19.8203C174.645 21.2578 175.075 22.8594 175.075 24.625L175.122 39.8359C175.122 41.5859 174.7 43.1875 173.856 44.6406C172.997 46.1094 171.856 47.2812 170.434 48.1562C169.012 49.0312 167.434 49.4688 165.7 49.4688ZM165.7 43.6797C166.669 43.6797 167.512 43.2891 168.231 42.5078C168.95 41.7109 169.309 40.8203 169.309 39.8359L169.262 24.625C169.262 23.5625 168.927 22.6641 168.255 21.9297C167.583 21.1953 166.731 20.8281 165.7 20.8281C164.716 20.8281 163.872 21.1875 163.169 21.9062C162.466 22.625 162.114 23.5312 162.114 24.625V39.8359C162.114 40.8828 162.466 41.7891 163.169 42.5547C163.872 43.3047 164.716 43.6797 165.7 43.6797Z"/>
</mask>
<path d="M15.6672 49H10.2297C10.1047 49 10.0422 48.9219 10.0422 48.7656L10.1359 15.7891C10.1359 15.6641 10.1984 15.6016 10.3234 15.6016H16.1828C16.3078 15.6016 16.4172 15.6641 16.5109 15.7891L20.8938 22.1172L25.2531 15.7891C25.3469 15.6641 25.4641 15.6016 25.6047 15.6016H31.4875C31.6281 15.6016 31.6984 15.6641 31.6984 15.7891L31.7922 48.7656C31.7922 48.9219 31.7297 49 31.6047 49H26.1672C26.0422 49 25.9797 48.9219 25.9797 48.7656L25.9328 24.2734L20.8938 31.5859L15.9016 24.2734L15.8547 48.7656C15.8547 48.9219 15.7922 49 15.6672 49ZM53.9266 49H38.4109C38.2859 49 38.2234 48.9219 38.2234 48.7656L38.2703 15.7891C38.2703 15.6641 38.3328 15.6016 38.4578 15.6016H53.8797C54.0047 15.6016 54.0672 15.6797 54.0672 15.8359V21.2031C54.0672 21.3281 54.0047 21.3906 53.8797 21.3906H44.0359V28.8906H53.8797C54.0047 28.8906 54.0672 28.9531 54.0672 29.0781L54.1141 34.5156C54.1141 34.6406 54.0516 34.7031 53.9266 34.7031H44.0359V43.0938H53.9266C54.0516 43.0938 54.1141 43.1719 54.1141 43.3281V48.8125C54.1141 48.9375 54.0516 49 53.9266 49ZM66.4047 49H60.9672C60.8422 49 60.7797 48.9219 60.7797 48.7656L60.8734 15.7891C60.8734 15.6641 60.9359 15.6016 61.0609 15.6016H66.9203C67.0453 15.6016 67.1547 15.6641 67.2484 15.7891L71.6313 22.1172L75.9906 15.7891C76.0844 15.6641 76.2016 15.6016 76.3422 15.6016H82.225C82.3656 15.6016 82.4359 15.6641 82.4359 15.7891L82.5297 48.7656C82.5297 48.9219 82.4672 49 82.3422 49H76.9047C76.7797 49 76.7172 48.9219 76.7172 48.7656L76.6703 24.2734L71.6313 31.5859L66.6391 24.2734L66.5922 48.7656C66.5922 48.9219 66.5297 49 66.4047 49ZM104.664 49H89.1484C89.0234 49 88.9609 48.9219 88.9609 48.7656L89.0078 15.7891C89.0078 15.6641 89.0703 15.6016 89.1953 15.6016H104.617C104.742 15.6016 104.805 15.6797 104.805 15.8359V21.2031C104.805 21.3281 104.742 21.3906 104.617 21.3906H94.7734V28.8906H104.617C104.742 28.8906 104.805 28.9531 104.805 29.0781L104.852 34.5156C104.852 34.6406 104.789 34.7031 104.664 34.7031H94.7734V43.0938H104.664C104.789 43.0938 104.852 43.1719 104.852 43.3281V48.8125C104.852 48.9375 104.789 49 104.664 49ZM116.744 49H111.939C111.689 49 111.564 48.8906 111.564 48.6719L111.517 15.9766C111.517 15.7266 111.642 15.6016 111.892 15.6016H116.228L124.338 34.5156L124.103 15.9766C124.103 15.7266 124.244 15.6016 124.525 15.6016H129.283C129.47 15.6016 129.564 15.7266 129.564 15.9766L129.611 48.7188C129.611 48.9062 129.533 49 129.377 49H125.158L116.838 31.3281L117.189 48.625C117.189 48.875 117.041 49 116.744 49ZM146.425 49H141.011C140.87 49 140.8 48.9219 140.8 48.7656V21.3906H134.566C134.409 21.3906 134.331 21.3125 134.331 21.1562L134.378 15.7891C134.378 15.6641 134.441 15.6016 134.566 15.6016H152.8C152.972 15.6016 153.058 15.6641 153.058 15.7891V21.1562C153.058 21.3125 152.995 21.3906 152.87 21.3906H146.566L146.613 48.7656C146.613 48.9219 146.55 49 146.425 49ZM165.7 49.4688C163.997 49.4688 162.427 49.0312 160.989 48.1562C159.567 47.2812 158.419 46.1172 157.544 44.6641C156.684 43.1953 156.255 41.5859 156.255 39.8359L156.302 24.625C156.302 22.8438 156.731 21.2422 157.591 19.8203C158.434 18.3828 159.575 17.2344 161.012 16.375C162.45 15.5 164.012 15.0625 165.7 15.0625C167.45 15.0625 169.02 15.4922 170.411 16.3516C171.817 17.2109 172.942 18.3672 173.786 19.8203C174.645 21.2578 175.075 22.8594 175.075 24.625L175.122 39.8359C175.122 41.5859 174.7 43.1875 173.856 44.6406C172.997 46.1094 171.856 47.2812 170.434 48.1562C169.012 49.0312 167.434 49.4688 165.7 49.4688ZM165.7 43.6797C166.669 43.6797 167.512 43.2891 168.231 42.5078C168.95 41.7109 169.309 40.8203 169.309 39.8359L169.262 24.625C169.262 23.5625 168.927 22.6641 168.255 21.9297C167.583 21.1953 166.731 20.8281 165.7 20.8281C164.716 20.8281 163.872 21.1875 163.169 21.9062C162.466 22.625 162.114 23.5312 162.114 24.625V39.8359C162.114 40.8828 162.466 41.7891 163.169 42.5547C163.872 43.3047 164.716 43.6797 165.7 43.6797Z" fill="black" fill-opacity="0.6"/>
<path d="M10.0422 48.7656L8.04219 48.7599V48.7656H10.0422ZM10.1359 15.7891L12.1359 15.7947V15.7891H10.1359ZM16.5109 15.7891L18.1551 14.6503L18.1336 14.6193L18.1109 14.5891L16.5109 15.7891ZM20.8938 22.1172L19.2496 23.2559L20.8982 25.6362L22.5408 23.2518L20.8938 22.1172ZM25.2531 15.7891L23.6531 14.5891L23.629 14.6213L23.6061 14.6545L25.2531 15.7891ZM31.6984 15.7891L29.6984 15.7891L29.6984 15.7947L31.6984 15.7891ZM31.7922 48.7656L33.7922 48.7656L33.7922 48.7599L31.7922 48.7656ZM25.9797 48.7656L27.9797 48.7656L27.9797 48.7618L25.9797 48.7656ZM25.9328 24.2734L27.9328 24.2696L27.9206 17.8642L24.286 23.1386L25.9328 24.2734ZM20.8938 31.5859L19.242 32.7136L20.886 35.1218L22.5406 32.7208L20.8938 31.5859ZM15.9016 24.2734L17.5533 23.1458L13.9139 17.8148L13.9016 24.2696L15.9016 24.2734ZM15.8547 48.7656L13.8547 48.7618V48.7656H15.8547ZM15.6672 47H10.2297V51H15.6672V47ZM10.2297 47C10.6086 47 11.2096 47.1405 11.6508 47.692C12.0238 48.1583 12.0422 48.6301 12.0422 48.7656H8.04219C8.04219 49.0574 8.09181 49.6464 8.52733 50.1908C9.03102 50.8204 9.72578 51 10.2297 51V47ZM12.0422 48.7713L12.1359 15.7947L8.13595 15.7834L8.0422 48.7599L12.0422 48.7713ZM12.1359 15.7891C12.1359 16.0349 12.0731 16.5865 11.597 17.0627C11.1209 17.5388 10.5692 17.6016 10.3234 17.6016V13.6016C9.95265 13.6016 9.30721 13.6956 8.7686 14.2342C8.22999 14.7728 8.13594 15.4183 8.13594 15.7891H12.1359ZM10.3234 17.6016H16.1828V13.6016H10.3234V17.6016ZM16.1828 17.6016C15.8944 17.6016 15.6114 17.5249 15.3663 17.3849C15.1343 17.2523 14.9897 17.0941 14.9109 16.9891L18.1109 14.5891C17.7442 14.1001 17.0935 13.6016 16.1828 13.6016V17.6016ZM14.8668 16.9278L19.2496 23.2559L22.5379 20.9785L18.1551 14.6503L14.8668 16.9278ZM22.5408 23.2518L26.9001 16.9237L23.6061 14.6545L19.2467 20.9826L22.5408 23.2518ZM26.8531 16.9891C26.7551 17.1198 26.5939 17.2844 26.3525 17.4131C26.1044 17.5455 25.8427 17.6016 25.6047 17.6016V13.6016C24.7582 13.6016 24.0763 14.0248 23.6531 14.5891L26.8531 16.9891ZM25.6047 17.6016H31.4875V13.6016H25.6047V17.6016ZM31.4875 17.6016C31.3038 17.6016 30.7924 17.5658 30.317 17.1433C29.7967 16.6808 29.6984 16.0999 29.6984 15.7891H33.6984C33.6984 15.3533 33.565 14.6786 32.9744 14.1536C32.4287 13.6685 31.8119 13.6016 31.4875 13.6016V17.6016ZM29.6984 15.7947L29.7922 48.7713L33.7922 48.7599L33.6984 15.7834L29.6984 15.7947ZM29.7922 48.7656C29.7922 48.6301 29.8106 48.1583 30.1836 47.692C30.6248 47.1405 31.2258 47 31.6047 47V51C32.1086 51 32.8034 50.8204 33.3071 50.1908C33.7426 49.6464 33.7922 49.0574 33.7922 48.7656H29.7922ZM31.6047 47H26.1672V51H31.6047V47ZM26.1672 47C26.5461 47 27.1471 47.1405 27.5883 47.692C27.9613 48.1583 27.9797 48.6301 27.9797 48.7656H23.9797C23.9797 49.0574 24.0293 49.6464 24.4648 50.1908C24.9685 50.8204 25.6633 51 26.1672 51V47ZM27.9797 48.7618L27.9328 24.2696L23.9328 24.2773L23.9797 48.7695L27.9797 48.7618ZM24.286 23.1386L19.2469 30.4511L22.5406 32.7208L27.5797 25.4083L24.286 23.1386ZM22.5455 30.4583L17.5533 23.1458L14.2498 25.4011L19.242 32.7136L22.5455 30.4583ZM13.9016 24.2696L13.8547 48.7618L17.8547 48.7695L17.9016 24.2773L13.9016 24.2696ZM13.8547 48.7656C13.8547 48.6301 13.8731 48.1583 14.2461 47.692C14.6873 47.1405 15.2883 47 15.6672 47V51C16.1711 51 16.8659 50.8204 17.3696 50.1908C17.8051 49.6464 17.8547 49.0574 17.8547 48.7656H13.8547ZM38.2234 48.7656L36.2234 48.7628V48.7656H38.2234ZM38.2703 15.7891L40.2703 15.7919V15.7891H38.2703ZM44.0359 21.3906V19.3906H42.0359V21.3906H44.0359ZM44.0359 28.8906H42.0359V30.8906H44.0359V28.8906ZM54.0672 29.0781H52.0672V29.0867L52.0673 29.0954L54.0672 29.0781ZM54.1141 34.5156H56.1141V34.507L56.114 34.4984L54.1141 34.5156ZM44.0359 34.7031V32.7031H42.0359V34.7031H44.0359ZM44.0359 43.0938H42.0359V45.0938H44.0359V43.0938ZM53.9266 47H38.4109V51H53.9266V47ZM38.4109 47C38.7899 47 39.3909 47.1405 39.8321 47.692C40.2051 48.1583 40.2234 48.6301 40.2234 48.7656H36.2234C36.2234 49.0574 36.2731 49.6464 36.7086 50.1908C37.2123 50.8204 37.907 51 38.4109 51V47ZM40.2234 48.7685L40.2703 15.7919L36.2703 15.7862L36.2234 48.7628L40.2234 48.7685ZM40.2703 15.7891C40.2703 16.0349 40.2075 16.5865 39.7314 17.0627C39.2553 17.5388 38.7036 17.6016 38.4578 17.6016V13.6016C38.087 13.6016 37.4416 13.6956 36.903 14.2342C36.3644 14.7728 36.2703 15.4183 36.2703 15.7891H40.2703ZM38.4578 17.6016H53.8797V13.6016H38.4578V17.6016ZM53.8797 17.6016C53.5008 17.6016 52.8998 17.461 52.4586 16.9095C52.0856 16.4433 52.0672 15.9715 52.0672 15.8359H56.0672C56.0672 15.5441 56.0176 14.9552 55.5821 14.4108C55.0784 13.7811 54.3836 13.6016 53.8797 13.6016V17.6016ZM52.0672 15.8359V21.2031H56.0672V15.8359H52.0672ZM52.0672 21.2031C52.0672 20.9573 52.13 20.4056 52.6061 19.9295C53.0822 19.4534 53.6339 19.3906 53.8797 19.3906V23.3906C54.2505 23.3906 54.8959 23.2966 55.4345 22.758C55.9731 22.2194 56.0672 21.5739 56.0672 21.2031H52.0672ZM53.8797 19.3906H44.0359V23.3906H53.8797V19.3906ZM42.0359 21.3906V28.8906H46.0359V21.3906H42.0359ZM44.0359 30.8906H53.8797V26.8906H44.0359V30.8906ZM53.8797 30.8906C53.6339 30.8906 53.0822 30.8278 52.6061 30.3517C52.13 29.8756 52.0672 29.3239 52.0672 29.0781H56.0672C56.0672 28.7073 55.9731 28.0619 55.4345 27.5233C54.8959 26.9847 54.2505 26.8906 53.8797 26.8906V30.8906ZM52.0673 29.0954L52.1141 34.5329L56.114 34.4984L56.0671 29.0609L52.0673 29.0954ZM52.1141 34.5156C52.1141 34.2698 52.1769 33.7181 52.653 33.242C53.1291 32.7659 53.6808 32.7031 53.9266 32.7031V36.7031C54.2974 36.7031 54.9428 36.6091 55.4814 36.0705C56.02 35.5319 56.1141 34.8864 56.1141 34.5156H52.1141ZM53.9266 32.7031H44.0359V36.7031H53.9266V32.7031ZM42.0359 34.7031V43.0938H46.0359V34.7031H42.0359ZM44.0359 45.0938H53.9266V41.0938H44.0359V45.0938ZM53.9266 45.0938C53.5477 45.0938 52.9466 44.9532 52.5055 44.4017C52.1324 43.9355 52.1141 43.4637 52.1141 43.3281H56.1141C56.1141 43.0363 56.0644 42.4474 55.6289 41.903C55.1252 41.2733 54.4305 41.0938 53.9266 41.0938V45.0938ZM52.1141 43.3281V48.8125H56.1141V43.3281H52.1141ZM52.1141 48.8125C52.1141 48.5667 52.1769 48.015 52.653 47.5389C53.1291 47.0628 53.6808 47 53.9266 47V51C54.2974 51 54.9428 50.9059 55.4814 50.3673C56.02 49.8287 56.1141 49.1833 56.1141 48.8125H52.1141ZM60.7797 48.7656L58.7797 48.7599V48.7656H60.7797ZM60.8734 15.7891L62.8734 15.7947V15.7891H60.8734ZM67.2484 15.7891L68.8926 14.6503L68.8711 14.6193L68.8484 14.5891L67.2484 15.7891ZM71.6313 22.1172L69.9871 23.2559L71.6357 25.6362L73.2783 23.2518L71.6313 22.1172ZM75.9906 15.7891L74.3906 14.5891L74.3665 14.6213L74.3436 14.6545L75.9906 15.7891ZM82.4359 15.7891L80.4359 15.7891L80.4359 15.7947L82.4359 15.7891ZM82.5297 48.7656L84.5297 48.7656L84.5297 48.7599L82.5297 48.7656ZM76.7172 48.7656L78.7172 48.7656L78.7172 48.7618L76.7172 48.7656ZM76.6703 24.2734L78.6703 24.2696L78.6581 17.8642L75.0235 23.1386L76.6703 24.2734ZM71.6313 31.5859L69.9795 32.7136L71.6235 35.1218L73.2781 32.7208L71.6313 31.5859ZM66.6391 24.2734L68.2908 23.1458L64.6514 17.8148L64.6391 24.2696L66.6391 24.2734ZM66.5922 48.7656L64.5922 48.7618V48.7656H66.5922ZM66.4047 47H60.9672V51H66.4047V47ZM60.9672 47C61.3461 47 61.9471 47.1405 62.3883 47.692C62.7613 48.1583 62.7797 48.6301 62.7797 48.7656H58.7797C58.7797 49.0574 58.8293 49.6464 59.2648 50.1908C59.7685 50.8204 60.4633 51 60.9672 51V47ZM62.7797 48.7713L62.8734 15.7947L58.8734 15.7834L58.7797 48.7599L62.7797 48.7713ZM62.8734 15.7891C62.8734 16.0349 62.8106 16.5865 62.3345 17.0627C61.8584 17.5388 61.3067 17.6016 61.0609 17.6016V13.6016C60.6902 13.6016 60.0447 13.6956 59.5061 14.2342C58.9675 14.7728 58.8734 15.4183 58.8734 15.7891H62.8734ZM61.0609 17.6016H66.9203V13.6016H61.0609V17.6016ZM66.9203 17.6016C66.6319 17.6016 66.3489 17.5249 66.1038 17.3849C65.8718 17.2523 65.7272 17.0941 65.6484 16.9891L68.8484 14.5891C68.4817 14.1001 67.831 13.6016 66.9203 13.6016V17.6016ZM65.6043 16.9278L69.9871 23.2559L73.2754 20.9785L68.8926 14.6503L65.6043 16.9278ZM73.2783 23.2518L77.6376 16.9237L74.3436 14.6545L69.9842 20.9826L73.2783 23.2518ZM77.5906 16.9891C77.4926 17.1198 77.3314 17.2844 77.09 17.4131C76.8419 17.5455 76.5802 17.6016 76.3422 17.6016V13.6016C75.4957 13.6016 74.8138 14.0248 74.3906 14.5891L77.5906 16.9891ZM76.3422 17.6016H82.225V13.6016H76.3422V17.6016ZM82.225 17.6016C82.0413 17.6016 81.5299 17.5658 81.0545 17.1433C80.5342 16.6808 80.4359 16.0999 80.4359 15.7891H84.4359C84.4359 15.3533 84.3025 14.6786 83.7119 14.1536C83.1662 13.6685 82.5494 13.6016 82.225 13.6016V17.6016ZM80.4359 15.7947L80.5297 48.7713L84.5297 48.7599L84.4359 15.7834L80.4359 15.7947ZM80.5297 48.7656C80.5297 48.6301 80.5481 48.1583 80.9211 47.692C81.3623 47.1405 81.9633 47 82.3422 47V51C82.8461 51 83.5409 50.8204 84.0446 50.1908C84.4801 49.6464 84.5297 49.0574 84.5297 48.7656H80.5297ZM82.3422 47H76.9047V51H82.3422V47ZM76.9047 47C77.2836 47 77.8846 47.1405 78.3258 47.692C78.6988 48.1583 78.7172 48.6301 78.7172 48.7656H74.7172C74.7172 49.0574 74.7668 49.6464 75.2023 50.1908C75.706 50.8204 76.4008 51 76.9047 51V47ZM78.7172 48.7618L78.6703 24.2696L74.6703 24.2773L74.7172 48.7695L78.7172 48.7618ZM75.0235 23.1386L69.9844 30.4511L73.2781 32.7208L78.3172 25.4083L75.0235 23.1386ZM73.283 30.4583L68.2908 23.1458L64.9873 25.4011L69.9795 32.7136L73.283 30.4583ZM64.6391 24.2696L64.5922 48.7618L68.5922 48.7695L68.6391 24.2773L64.6391 24.2696ZM64.5922 48.7656C64.5922 48.6301 64.6106 48.1583 64.9836 47.692C65.4248 47.1405 66.0258 47 66.4047 47V51C66.9086 51 67.6034 50.8204 68.1071 50.1908C68.5426 49.6464 68.5922 49.0574 68.5922 48.7656H64.5922ZM88.9609 48.7656L86.9609 48.7628V48.7656H88.9609ZM89.0078 15.7891L91.0078 15.7919V15.7891H89.0078ZM94.7734 21.3906V19.3906H92.7734V21.3906H94.7734ZM94.7734 28.8906H92.7734V30.8906H94.7734V28.8906ZM104.805 29.0781H102.805V29.0867L102.805 29.0954L104.805 29.0781ZM104.852 34.5156H106.852V34.507L106.851 34.4984L104.852 34.5156ZM94.7734 34.7031V32.7031H92.7734V34.7031H94.7734ZM94.7734 43.0938H92.7734V45.0938H94.7734V43.0938ZM104.664 47H89.1484V51H104.664V47ZM89.1484 47C89.5273 47 90.1284 47.1405 90.5696 47.692C90.9426 48.1583 90.9609 48.6301 90.9609 48.7656H86.9609C86.9609 49.0574 87.0106 49.6464 87.4461 50.1908C87.9498 50.8204 88.6445 51 89.1484 51V47ZM90.9609 48.7685L91.0078 15.7919L87.0078 15.7862L86.9609 48.7628L90.9609 48.7685ZM91.0078 15.7891C91.0078 16.0349 90.945 16.5865 90.4689 17.0627C89.9928 17.5388 89.4411 17.6016 89.1953 17.6016V13.6016C88.8245 13.6016 88.1791 13.6956 87.6405 14.2342C87.1019 14.7728 87.0078 15.4183 87.0078 15.7891H91.0078ZM89.1953 17.6016H104.617V13.6016H89.1953V17.6016ZM104.617 17.6016C104.238 17.6016 103.637 17.461 103.196 16.9095C102.823 16.4433 102.805 15.9715 102.805 15.8359H106.805C106.805 15.5441 106.755 14.9552 106.32 14.4108C105.816 13.7811 105.121 13.6016 104.617 13.6016V17.6016ZM102.805 15.8359V21.2031H106.805V15.8359H102.805ZM102.805 21.2031C102.805 20.9573 102.867 20.4056 103.344 19.9295C103.82 19.4534 104.371 19.3906 104.617 19.3906V23.3906C104.988 23.3906 105.633 23.2966 106.172 22.758C106.711 22.2194 106.805 21.5739 106.805 21.2031H102.805ZM104.617 19.3906H94.7734V23.3906H104.617V19.3906ZM92.7734 21.3906V28.8906H96.7734V21.3906H92.7734ZM94.7734 30.8906H104.617V26.8906H94.7734V30.8906ZM104.617 30.8906C104.371 30.8906 103.82 30.8278 103.344 30.3517C102.867 29.8756 102.805 29.3239 102.805 29.0781H106.805C106.805 28.7073 106.711 28.0619 106.172 27.5233C105.633 26.9847 104.988 26.8906 104.617 26.8906V30.8906ZM102.805 29.0954L102.852 34.5329L106.851 34.4984L106.805 29.0609L102.805 29.0954ZM102.852 34.5156C102.852 34.2698 102.914 33.7181 103.39 33.242C103.867 32.7659 104.418 32.7031 104.664 32.7031V36.7031C105.035 36.7031 105.68 36.6091 106.219 36.0705C106.758 35.5319 106.852 34.8864 106.852 34.5156H102.852ZM104.664 32.7031H94.7734V36.7031H104.664V32.7031ZM92.7734 34.7031V43.0938H96.7734V34.7031H92.7734ZM94.7734 45.0938H104.664V41.0938H94.7734V45.0938ZM104.664 45.0938C104.285 45.0938 103.684 44.9532 103.243 44.4017C102.87 43.9355 102.852 43.4637 102.852 43.3281H106.852C106.852 43.0363 106.802 42.4474 106.366 41.903C105.863 41.2733 105.168 41.0938 104.664 41.0938V45.0938ZM102.852 43.3281V48.8125H106.852V43.3281H102.852ZM102.852 48.8125C102.852 48.5667 102.914 48.015 103.39 47.5389C103.867 47.0628 104.418 47 104.664 47V51C105.035 51 105.68 50.9059 106.219 50.3673C106.758 49.8287 106.852 49.1833 106.852 48.8125H102.852ZM111.564 48.6719L113.564 48.6719L113.564 48.669L111.564 48.6719ZM111.517 15.9766L109.517 15.9766L109.517 15.9794L111.517 15.9766ZM116.228 15.6016L118.066 14.8134L117.547 13.6016H116.228V15.6016ZM124.338 34.5156L122.499 35.3037L126.337 34.4903L124.338 34.5156ZM124.103 15.9766H122.103V15.9892L122.103 16.0018L124.103 15.9766ZM129.564 15.9766L127.564 15.9766L127.564 15.9794L129.564 15.9766ZM129.611 48.7188L131.611 48.7187L131.611 48.7159L129.611 48.7188ZM125.158 49L123.348 49.8519L123.889 51H125.158V49ZM116.838 31.3281L118.647 30.4762L114.838 31.3688L116.838 31.3281ZM117.189 48.625H119.189V48.6047L119.189 48.5844L117.189 48.625ZM116.744 47H111.939V51H116.744V47ZM111.939 47C112.062 47 112.527 47.021 112.975 47.4128C113.474 47.8492 113.564 48.3984 113.564 48.6719H109.564C109.564 49.1641 109.717 49.8773 110.341 50.4231C110.914 50.9243 111.567 51 111.939 51V47ZM113.564 48.669L113.517 15.9737L109.517 15.9794L109.564 48.6747L113.564 48.669ZM113.517 15.9766C113.517 16.1599 113.47 16.6647 113.025 17.1095C112.58 17.5544 112.075 17.6016 111.892 17.6016V13.6016C111.459 13.6016 110.767 13.7112 110.197 14.2811C109.627 14.851 109.517 15.5433 109.517 15.9766H113.517ZM111.892 17.6016H116.228V13.6016H111.892V17.6016ZM114.39 16.3897L122.499 35.3037L126.176 33.7275L118.066 14.8134L114.39 16.3897ZM126.337 34.4903L126.103 15.9513L122.103 16.0018L122.338 34.5409L126.337 34.4903ZM126.103 15.9766C126.103 16.2249 126.022 16.7589 125.537 17.1901C125.097 17.5815 124.638 17.6016 124.525 17.6016V13.6016C124.13 13.6016 123.461 13.6842 122.88 14.2005C122.254 14.7567 122.103 15.4783 122.103 15.9766H126.103ZM124.525 17.6016H129.283V13.6016H124.525V17.6016ZM129.283 17.6016C128.889 17.6016 128.302 17.4398 127.894 16.8953C127.567 16.459 127.564 16.0439 127.564 15.9766H131.564C131.564 15.6592 131.515 15.0566 131.094 14.4953C130.592 13.8258 129.865 13.6016 129.283 13.6016V17.6016ZM127.564 15.9794L127.611 48.7216L131.611 48.7159L131.564 15.9737L127.564 15.9794ZM127.611 48.7188C127.611 48.584 127.631 48.1107 128.016 47.6493C128.459 47.1181 129.041 47 129.377 47V51C129.869 51 130.568 50.835 131.089 50.2101C131.551 49.655 131.611 49.041 131.611 48.7188H127.611ZM129.377 47H125.158V51H129.377V47ZM126.967 48.1481L118.647 30.4762L115.028 32.1801L123.348 49.8519L126.967 48.1481ZM114.838 31.3688L115.189 48.6656L119.189 48.5844L118.837 31.2875L114.838 31.3688ZM115.189 48.625C115.189 48.343 115.289 47.7978 115.789 47.3764C116.224 47.0105 116.66 47 116.744 47V51C117.125 51 117.783 50.927 118.366 50.4361C119.015 49.8897 119.189 49.157 119.189 48.625H115.189ZM140.8 21.3906H142.8V19.3906H140.8V21.3906ZM134.331 21.1562L132.331 21.1388L132.331 21.1475V21.1562H134.331ZM134.378 15.7891L136.378 15.8065L136.378 15.7978V15.7891H134.378ZM146.566 21.3906V19.3906H144.562L144.566 21.394L146.566 21.3906ZM146.613 48.7656H148.613L148.613 48.7622L146.613 48.7656ZM146.425 47H141.011V51H146.425V47ZM141.011 47C141.307 47 141.879 47.0918 142.339 47.6035C142.764 48.0751 142.8 48.5844 142.8 48.7656H138.8C138.8 49.1031 138.871 49.7296 139.366 50.2793C139.897 50.8692 140.575 51 141.011 51V47ZM142.8 48.7656V21.3906H138.8V48.7656H142.8ZM140.8 19.3906H134.566V23.3906H140.8V19.3906ZM134.566 19.3906C134.796 19.3906 135.336 19.4495 135.804 19.9178C136.272 20.3861 136.331 20.9261 136.331 21.1562H132.331C132.331 21.5427 132.429 22.1998 132.976 22.7462C133.522 23.2927 134.179 23.3906 134.566 23.3906V19.3906ZM136.331 21.1737L136.378 15.8065L132.378 15.7716L132.331 21.1388L136.331 21.1737ZM136.378 15.7891C136.378 16.0349 136.315 16.5865 135.839 17.0627C135.363 17.5388 134.811 17.6016 134.566 17.6016V13.6016C134.195 13.6016 133.549 13.6956 133.011 14.2342C132.472 14.7728 132.378 15.4183 132.378 15.7891H136.378ZM134.566 17.6016H152.8V13.6016H134.566V17.6016ZM152.8 17.6016C152.703 17.6016 152.269 17.5946 151.817 17.2659C151.247 16.8512 151.058 16.2381 151.058 15.7891H155.058C155.058 15.2151 154.826 14.5082 154.17 14.031C153.632 13.6398 153.069 13.6016 152.8 13.6016V17.6016ZM151.058 15.7891V21.1562H155.058V15.7891H151.058ZM151.058 21.1562C151.058 21.0207 151.076 20.5489 151.449 20.0826C151.89 19.5311 152.491 19.3906 152.87 19.3906V23.3906C153.374 23.3906 154.069 23.211 154.573 22.5814C155.008 22.037 155.058 21.4481 155.058 21.1562H151.058ZM152.87 19.3906H146.566V23.3906H152.87V19.3906ZM144.566 21.394L144.613 48.769L148.613 48.7622L148.566 21.3872L144.566 21.394ZM144.613 48.7656C144.613 48.6301 144.631 48.1583 145.004 47.692C145.445 47.1405 146.046 47 146.425 47V51C146.929 51 147.624 50.8204 148.127 50.1908C148.563 49.6464 148.613 49.0574 148.613 48.7656H144.613ZM160.989 48.1562L159.941 49.8596L159.949 49.8646L160.989 48.1562ZM157.544 44.6641L155.818 45.6741L155.824 45.685L155.83 45.6958L157.544 44.6641ZM156.255 39.8359L154.255 39.8298V39.8359H156.255ZM156.302 24.625L158.302 24.6312V24.625H156.302ZM157.591 19.8203L159.302 20.8548L159.309 20.8438L159.315 20.8327L157.591 19.8203ZM161.012 16.375L162.039 18.0916L162.046 18.0875L162.052 18.0834L161.012 16.375ZM170.411 16.3516L169.36 18.0529L169.368 18.0581L170.411 16.3516ZM173.786 19.8203L172.056 20.8246L172.063 20.8356L172.069 20.8466L173.786 19.8203ZM175.075 24.625L173.075 24.625L173.075 24.6312L175.075 24.625ZM175.122 39.8359L177.122 39.8359L177.122 39.8298L175.122 39.8359ZM173.856 44.6406L175.582 45.6507L175.586 45.6449L173.856 44.6406ZM168.231 42.5078L169.703 43.8619L169.71 43.8547L169.716 43.8474L168.231 42.5078ZM169.309 39.8359L171.309 39.8359L171.309 39.8298L169.309 39.8359ZM169.262 24.625L167.262 24.625L167.263 24.6312L169.262 24.625ZM163.169 42.5547L161.696 43.9075L161.703 43.9151L161.71 43.9226L163.169 42.5547ZM165.7 47.4688C164.359 47.4688 163.149 47.1297 162.029 46.4479L159.949 49.8646C161.704 50.9328 163.635 51.4688 165.7 51.4688V47.4688ZM162.037 46.4529C160.892 45.7482 159.97 44.8162 159.257 43.6324L155.83 45.6958C156.868 47.4181 158.242 48.8143 159.941 49.8596L162.037 46.4529ZM159.27 43.654C158.595 42.5007 158.255 41.2415 158.255 39.8359H154.255C154.255 41.9304 154.774 43.8899 155.818 45.6741L159.27 43.654ZM158.255 39.8421L158.302 24.6312L154.302 24.6188L154.255 39.8298L158.255 39.8421ZM158.302 24.625C158.302 23.1811 158.645 21.942 159.302 20.8548L155.879 18.7858C154.817 20.5424 154.302 22.5064 154.302 24.625H158.302ZM159.315 20.8327C159.988 19.6863 160.888 18.7795 162.039 18.0916L159.986 14.6584C158.262 15.6892 156.88 17.0793 155.866 18.8079L159.315 20.8327ZM162.052 18.0834C163.176 17.3997 164.378 17.0625 165.7 17.0625V13.0625C163.647 13.0625 161.724 13.6003 159.973 14.6666L162.052 18.0834ZM165.7 17.0625C167.106 17.0625 168.307 17.4026 169.36 18.0529L171.462 14.6502C169.733 13.5817 167.794 13.0625 165.7 13.0625V17.0625ZM169.368 18.0581C170.485 18.7406 171.376 19.6531 172.056 20.8246L175.516 18.816C174.508 17.0813 173.15 15.6813 171.454 14.645L169.368 18.0581ZM172.069 20.8466C172.733 21.9568 173.075 23.2003 173.075 24.625H177.075C177.075 22.5184 176.558 20.5588 175.503 18.7941L172.069 20.8466ZM173.075 24.6312L173.122 39.8421L177.122 39.8298L177.075 24.6188L173.075 24.6312ZM173.122 39.8359C173.122 41.2484 172.786 42.5012 172.127 43.6364L175.586 45.6449C176.614 43.8738 177.122 41.9234 177.122 39.8359H173.122ZM172.13 43.6306C171.433 44.8218 170.523 45.7533 169.386 46.4529L171.483 49.8596C173.189 48.8092 174.561 47.3969 175.582 45.6506L172.13 43.6306ZM169.386 46.4529C168.292 47.1262 167.079 47.4688 165.7 47.4688V51.4688C167.789 51.4688 169.733 50.9363 171.483 49.8596L169.386 46.4529ZM165.7 45.6797C167.285 45.6797 168.646 45.0108 169.703 43.8619L166.759 41.1537C166.379 41.5673 166.052 41.6797 165.7 41.6797V45.6797ZM169.716 43.8474C170.734 42.719 171.309 41.3615 171.309 39.8359H167.309C167.309 40.2791 167.166 40.7029 166.746 41.1683L169.716 43.8474ZM171.309 39.8298L171.262 24.6188L167.263 24.6312L167.309 39.8421L171.309 39.8298ZM171.262 24.625C171.262 23.0996 170.764 21.709 169.73 20.5797L166.779 23.2797C167.09 23.6191 167.262 24.0254 167.262 24.625H171.262ZM169.73 20.5797C168.664 19.4145 167.27 18.8281 165.7 18.8281V22.8281C166.193 22.8281 166.501 22.9761 166.779 23.2797L169.73 20.5797ZM165.7 18.8281C164.165 18.8281 162.809 19.4136 161.739 20.5077L164.598 23.3048C164.934 22.9614 165.267 22.8281 165.7 22.8281V18.8281ZM161.739 20.5077C160.637 21.6347 160.114 23.0588 160.114 24.625H164.114C164.114 24.0037 164.295 23.6153 164.598 23.3048L161.739 20.5077ZM160.114 24.625V39.8359H164.114V24.625H160.114ZM160.114 39.8359C160.114 41.3799 160.651 42.77 161.696 43.9075L164.642 41.2019C164.28 40.8082 164.114 40.3857 164.114 39.8359H160.114ZM161.71 43.9226C162.772 45.0557 164.136 45.6797 165.7 45.6797V41.6797C165.295 41.6797 164.972 41.5537 164.628 41.1868L161.71 43.9226Z" fill="url(#paint0_linear_20_40)" mask="url(#path-1-outside-1_20_40)"/>
</g>
<defs>
<linearGradient id="paint0_linear_20_40" x1="14.5" y1="34" x2="170" y2="34" gradientUnits="userSpaceOnUse">
<stop stop-color="#FFBD30"/>
<stop offset="0.335" stop-color="#FF9D39"/>
<stop offset="0.66" stop-color="#FF6749"/>
<stop offset="1" stop-color="#FF4C4F"/>
</linearGradient>
<clipPath id="clip0_20_40">
<rect width="185" height="67" fill="white"/>
</clipPath>
</defs>
</svg>
