<svg width="185" height="67" viewBox="0 0 185 67" fill="none" xmlns="http://www.w3.org/2000/svg">
<g clip-path="url(#clip0_20_34)">
<mask id="path-1-outside-1_20_34" maskUnits="userSpaceOnUse" x="45" y="13" width="95" height="39" fill="black">
<rect fill="white" x="45" y="13" width="95" height="39"/>
<path d="M52.525 49H47.7203C47.4703 49 47.3453 48.8906 47.3453 48.6719L47.2984 15.9766C47.2984 15.7266 47.4234 15.6016 47.6734 15.6016H52.0094L60.1188 34.5156L59.8844 15.9766C59.8844 15.7266 60.025 15.6016 60.3063 15.6016H65.0641C65.2516 15.6016 65.3453 15.7266 65.3453 15.9766L65.3922 48.7188C65.3922 48.9062 65.3141 49 65.1578 49H60.9391L52.6188 31.3281L52.9703 48.625C52.9703 48.875 52.8219 49 52.525 49ZM80.8 49.4688C79.1125 49.4688 77.55 49.0312 76.1125 48.1562C74.675 47.2812 73.5266 46.1094 72.6672 44.6406C71.8234 43.1562 71.4016 41.5391 71.4016 39.7891L71.4953 15.7891C71.4953 15.6641 71.5578 15.6016 71.6828 15.6016H77.0734C77.1984 15.6016 77.2609 15.6641 77.2609 15.7891V39.7891C77.2609 40.8672 77.6047 41.7891 78.2922 42.5547C78.9797 43.3047 79.8156 43.6797 80.8 43.6797C81.8313 43.6797 82.6906 43.3047 83.3781 42.5547C84.0656 41.7891 84.4094 40.8672 84.4094 39.7891V15.7891C84.4094 15.6641 84.4719 15.6016 84.5969 15.6016H89.9875C90.1125 15.6016 90.175 15.6641 90.175 15.7891L90.2688 39.7891C90.2688 41.5547 89.8469 43.1797 89.0031 44.6641C88.1438 46.1328 87.0031 47.3047 85.5813 48.1797C84.1594 49.0391 82.5656 49.4688 80.8 49.4688ZM102.067 49H96.6297C96.5047 49 96.4422 48.9219 96.4422 48.7656L96.5359 15.8359C96.5359 15.6797 96.5984 15.6016 96.7234 15.6016H102.114C102.239 15.6016 102.302 15.6797 102.302 15.8359V27.2031L109.825 15.7891C109.95 15.6641 110.067 15.6016 110.177 15.6016H115.684C115.825 15.6016 115.856 15.6641 115.778 15.7891L107.481 29.0312L116.786 48.8125C116.864 48.9375 116.786 49 116.552 49H110.692C110.536 49 110.442 48.9375 110.411 48.8125L103.919 34.7031L102.255 37.3281V48.7656C102.255 48.9219 102.192 49 102.067 49ZM137.045 49H121.53C121.405 49 121.342 48.9219 121.342 48.7656L121.389 15.7891C121.389 15.6641 121.452 15.6016 121.577 15.6016H136.998C137.123 15.6016 137.186 15.6797 137.186 15.8359V21.2031C137.186 21.3281 137.123 21.3906 136.998 21.3906H127.155V28.8906H136.998C137.123 28.8906 137.186 28.9531 137.186 29.0781L137.233 34.5156C137.233 34.6406 137.17 34.7031 137.045 34.7031H127.155V43.0938H137.045C137.17 43.0938 137.233 43.1719 137.233 43.3281V48.8125C137.233 48.9375 137.17 49 137.045 49Z"/>
</mask>
<path d="M52.525 49H47.7203C47.4703 49 47.3453 48.8906 47.3453 48.6719L47.2984 15.9766C47.2984 15.7266 47.4234 15.6016 47.6734 15.6016H52.0094L60.1188 34.5156L59.8844 15.9766C59.8844 15.7266 60.025 15.6016 60.3063 15.6016H65.0641C65.2516 15.6016 65.3453 15.7266 65.3453 15.9766L65.3922 48.7188C65.3922 48.9062 65.3141 49 65.1578 49H60.9391L52.6188 31.3281L52.9703 48.625C52.9703 48.875 52.8219 49 52.525 49ZM80.8 49.4688C79.1125 49.4688 77.55 49.0312 76.1125 48.1562C74.675 47.2812 73.5266 46.1094 72.6672 44.6406C71.8234 43.1562 71.4016 41.5391 71.4016 39.7891L71.4953 15.7891C71.4953 15.6641 71.5578 15.6016 71.6828 15.6016H77.0734C77.1984 15.6016 77.2609 15.6641 77.2609 15.7891V39.7891C77.2609 40.8672 77.6047 41.7891 78.2922 42.5547C78.9797 43.3047 79.8156 43.6797 80.8 43.6797C81.8313 43.6797 82.6906 43.3047 83.3781 42.5547C84.0656 41.7891 84.4094 40.8672 84.4094 39.7891V15.7891C84.4094 15.6641 84.4719 15.6016 84.5969 15.6016H89.9875C90.1125 15.6016 90.175 15.6641 90.175 15.7891L90.2688 39.7891C90.2688 41.5547 89.8469 43.1797 89.0031 44.6641C88.1438 46.1328 87.0031 47.3047 85.5813 48.1797C84.1594 49.0391 82.5656 49.4688 80.8 49.4688ZM102.067 49H96.6297C96.5047 49 96.4422 48.9219 96.4422 48.7656L96.5359 15.8359C96.5359 15.6797 96.5984 15.6016 96.7234 15.6016H102.114C102.239 15.6016 102.302 15.6797 102.302 15.8359V27.2031L109.825 15.7891C109.95 15.6641 110.067 15.6016 110.177 15.6016H115.684C115.825 15.6016 115.856 15.6641 115.778 15.7891L107.481 29.0312L116.786 48.8125C116.864 48.9375 116.786 49 116.552 49H110.692C110.536 49 110.442 48.9375 110.411 48.8125L103.919 34.7031L102.255 37.3281V48.7656C102.255 48.9219 102.192 49 102.067 49ZM137.045 49H121.53C121.405 49 121.342 48.9219 121.342 48.7656L121.389 15.7891C121.389 15.6641 121.452 15.6016 121.577 15.6016H136.998C137.123 15.6016 137.186 15.6797 137.186 15.8359V21.2031C137.186 21.3281 137.123 21.3906 136.998 21.3906H127.155V28.8906H136.998C137.123 28.8906 137.186 28.9531 137.186 29.0781L137.233 34.5156C137.233 34.6406 137.17 34.7031 137.045 34.7031H127.155V43.0938H137.045C137.17 43.0938 137.233 43.1719 137.233 43.3281V48.8125C137.233 48.9375 137.17 49 137.045 49Z" fill="black" fill-opacity="0.6"/>
<path d="M47.3453 48.6719L49.3453 48.6719L49.3453 48.669L47.3453 48.6719ZM47.2984 15.9766L45.2984 15.9766L45.2984 15.9794L47.2984 15.9766ZM52.0094 15.6016L53.8475 14.8134L53.328 13.6016H52.0094V15.6016ZM60.1188 34.5156L58.2806 35.3037L62.1186 34.4903L60.1188 34.5156ZM59.8844 15.9766H57.8844V15.9892L57.8845 16.0018L59.8844 15.9766ZM65.3453 15.9766L63.3453 15.9766L63.3453 15.9794L65.3453 15.9766ZM65.3922 48.7188L67.3922 48.7187L67.3922 48.7159L65.3922 48.7188ZM60.9391 49L59.1296 49.8519L59.6701 51H60.9391V49ZM52.6188 31.3281L54.4282 30.4762L50.6192 31.3688L52.6188 31.3281ZM52.9703 48.625H54.9703V48.6047L54.9699 48.5844L52.9703 48.625ZM52.525 47H47.7203V51H52.525V47ZM47.7203 47C47.8429 47 48.3083 47.021 48.7561 47.4128C49.2548 47.8492 49.3453 48.3984 49.3453 48.6719H45.3453C45.3453 49.1641 45.4983 49.8773 46.1221 50.4231C46.6948 50.9243 47.3478 51 47.7203 51V47ZM49.3453 48.669L49.2984 15.9737L45.2984 15.9794L45.3453 48.6747L49.3453 48.669ZM49.2984 15.9766C49.2984 16.1599 49.2513 16.6647 48.8064 17.1095C48.3615 17.5544 47.8567 17.6016 47.6734 17.6016V13.6016C47.2401 13.6016 46.5478 13.7112 45.978 14.2811C45.4081 14.851 45.2984 15.5433 45.2984 15.9766H49.2984ZM47.6734 17.6016H52.0094V13.6016H47.6734V17.6016ZM50.1712 16.3897L58.2806 35.3037L61.9569 33.7275L53.8475 14.8134L50.1712 16.3897ZM62.1186 34.4903L61.8842 15.9513L57.8845 16.0018L58.1189 34.5409L62.1186 34.4903ZM61.8844 15.9766C61.8844 16.2249 61.8037 16.7589 61.3186 17.1901C60.8783 17.5815 60.4197 17.6016 60.3063 17.6016V13.6016C59.9116 13.6016 59.242 13.6842 58.6611 14.2005C58.0354 14.7567 57.8844 15.4783 57.8844 15.9766H61.8844ZM60.3063 17.6016H65.0641V13.6016H60.3063V17.6016ZM65.0641 17.6016C64.6698 17.6016 64.0834 17.4398 63.675 16.8953C63.3478 16.459 63.3453 16.0439 63.3453 15.9766H67.3453C67.3453 15.6592 67.296 15.0566 66.875 14.4953C66.3729 13.8258 65.6458 13.6016 65.0641 13.6016V17.6016ZM63.3453 15.9794L63.3922 48.7216L67.3922 48.7159L67.3453 15.9737L63.3453 15.9794ZM63.3922 48.7188C63.3922 48.584 63.4127 48.1107 63.7972 47.6493C64.2398 47.1181 64.8221 47 65.1578 47V51C65.6498 51 66.3493 50.835 66.87 50.2101C67.3326 49.655 67.3922 49.041 67.3922 48.7188H63.3922ZM65.1578 47H60.9391V51H65.1578V47ZM62.7485 48.1481L54.4282 30.4762L50.8093 32.1801L59.1296 49.8519L62.7485 48.1481ZM50.6192 31.3688L50.9707 48.6656L54.9699 48.5844L54.6183 31.2875L50.6192 31.3688ZM50.9703 48.625C50.9703 48.343 51.0703 47.7978 51.5707 47.3764C52.0053 47.0105 52.441 47 52.525 47V51C52.9059 51 53.5643 50.927 54.1473 50.4361C54.7961 49.8897 54.9703 49.157 54.9703 48.625H50.9703ZM72.6672 44.6406L70.9285 45.629L70.9346 45.6398L70.941 45.6506L72.6672 44.6406ZM71.4016 39.7891L69.4016 39.7813V39.7891H71.4016ZM71.4953 15.7891L73.4953 15.7969V15.7891H71.4953ZM78.2922 42.5547L76.8041 43.8909L76.8109 43.8986L76.8179 43.9061L78.2922 42.5547ZM83.3781 42.5547L84.8524 43.9061L84.8594 43.8986L84.8662 43.8909L83.3781 42.5547ZM90.175 15.7891L88.175 15.7891L88.175 15.7969L90.175 15.7891ZM90.2688 39.7891L92.2688 39.7891L92.2687 39.7813L90.2688 39.7891ZM89.0031 44.6641L90.7294 45.6741L90.7357 45.6633L90.7419 45.6524L89.0031 44.6641ZM85.5813 48.1797L86.6158 49.8913L86.6226 49.8872L86.6294 49.883L85.5813 48.1797ZM80.8 47.4688C79.4782 47.4688 78.2757 47.1316 77.1524 46.4479L75.0726 49.8646C76.8244 50.9309 78.7468 51.4688 80.8 51.4688V47.4688ZM77.1524 46.4479C76.0013 45.7472 75.0874 44.8166 74.3934 43.6306L70.941 45.6506C71.9658 47.4021 73.3487 48.8153 75.0726 49.8646L77.1524 46.4479ZM74.4059 43.6523C73.7378 42.4769 73.4016 41.2016 73.4016 39.7891H69.4016C69.4016 41.8765 69.9091 43.8356 70.9285 45.629L74.4059 43.6523ZM73.4016 39.7969L73.4953 15.7969L69.4953 15.7813L69.4016 39.7813L73.4016 39.7969ZM73.4953 15.7891C73.4953 16.0349 73.4325 16.5865 72.9564 17.0627C72.4803 17.5388 71.9286 17.6016 71.6828 17.6016V13.6016C71.312 13.6016 70.6666 13.6956 70.128 14.2342C69.5894 14.7728 69.4953 15.4183 69.4953 15.7891H73.4953ZM71.6828 17.6016H77.0734V13.6016H71.6828V17.6016ZM77.0734 17.6016C76.8277 17.6016 76.276 17.5388 75.7999 17.0627C75.3237 16.5865 75.2609 16.0349 75.2609 15.7891H79.2609C79.2609 15.4183 79.1669 14.7728 78.6283 14.2342C78.0897 13.6956 77.4442 13.6016 77.0734 13.6016V17.6016ZM75.2609 15.7891V39.7891H79.2609V15.7891H75.2609ZM75.2609 39.7891C75.2609 41.3347 75.7702 42.7395 76.8041 43.8909L79.7803 41.2184C79.4392 40.8386 79.2609 40.3997 79.2609 39.7891H75.2609ZM76.8179 43.9061C77.8698 45.0537 79.234 45.6797 80.8 45.6797V41.6797C80.3972 41.6797 80.0896 41.5557 79.7665 41.2032L76.8179 43.9061ZM80.8 45.6797C82.3832 45.6797 83.7803 45.0757 84.8524 43.9061L81.9038 41.2032C81.601 41.5336 81.2793 41.6797 80.8 41.6797V45.6797ZM84.8662 43.8909C85.9002 42.7395 86.4094 41.3347 86.4094 39.7891H82.4094C82.4094 40.3997 82.2311 40.8386 81.89 41.2184L84.8662 43.8909ZM86.4094 39.7891V15.7891H82.4094V39.7891H86.4094ZM86.4094 15.7891C86.4094 16.0349 86.3466 16.5865 85.8705 17.0627C85.3944 17.5388 84.8427 17.6016 84.5969 17.6016V13.6016C84.2261 13.6016 83.5806 13.6956 83.042 14.2342C82.5034 14.7728 82.4094 15.4183 82.4094 15.7891H86.4094ZM84.5969 17.6016H89.9875V13.6016H84.5969V17.6016ZM89.9875 17.6016C89.7417 17.6016 89.19 17.5388 88.7139 17.0627C88.2378 16.5865 88.175 16.0349 88.175 15.7891H92.175C92.175 15.4183 92.081 14.7728 91.5423 14.2342C91.0037 13.6956 90.3583 13.6016 89.9875 13.6016V17.6016ZM88.175 15.7969L88.2688 39.7969L92.2687 39.7813L92.175 15.7813L88.175 15.7969ZM88.2688 39.7891C88.2688 41.2205 87.9309 42.5031 87.2644 43.6757L90.7419 45.6524C91.7628 43.8562 92.2688 41.8889 92.2688 39.7891H88.2688ZM87.2769 43.654C86.5799 44.8452 85.6699 45.7768 84.5331 46.4764L86.6294 49.883C88.3363 48.8326 89.7076 47.4204 90.7294 45.6741L87.2769 43.654ZM84.5467 46.468C83.4567 47.1268 82.2248 47.4688 80.8 47.4688V51.4688C82.9065 51.4688 84.862 50.9513 86.6158 49.8913L84.5467 46.468ZM96.4422 48.7656L94.4422 48.7599V48.7656H96.4422ZM96.5359 15.8359L98.5359 15.8416V15.8359H96.5359ZM102.302 27.2031H100.302V33.8715L103.971 28.3038L102.302 27.2031ZM109.825 15.7891L108.411 14.3748L108.267 14.5186L108.155 14.6884L109.825 15.7891ZM115.778 15.7891L117.473 16.8509L117.474 16.8491L115.778 15.7891ZM107.481 29.0312L105.786 27.9694L105.207 28.8946L105.671 29.8825L107.481 29.0312ZM116.786 48.8125L114.976 49.6638L115.027 49.7715L115.09 49.8725L116.786 48.8125ZM110.411 48.8125L112.351 48.3274L112.306 48.1462L112.228 47.9765L110.411 48.8125ZM103.919 34.7031L105.736 33.8671L104.198 30.5264L102.23 33.6323L103.919 34.7031ZM102.255 37.3281L100.566 36.2573L100.255 36.7476V37.3281H102.255ZM102.067 47H96.6297V51H102.067V47ZM96.6297 47C97.0086 47 97.6096 47.1405 98.0508 47.692C98.4238 48.1583 98.4422 48.6301 98.4422 48.7656H94.4422C94.4422 49.0574 94.4918 49.6464 94.9273 50.1908C95.431 50.8204 96.1258 51 96.6297 51V47ZM98.4422 48.7713L98.5359 15.8416L94.5359 15.8302L94.4422 48.7599L98.4422 48.7713ZM98.5359 15.8359C98.5359 15.9715 98.5176 16.4433 98.1445 16.9095C97.7034 17.461 97.1023 17.6016 96.7234 17.6016V13.6016C96.2195 13.6016 95.5248 13.7811 95.0211 14.4108C94.5856 14.9552 94.5359 15.5441 94.5359 15.8359H98.5359ZM96.7234 17.6016H102.114V13.6016H96.7234V17.6016ZM102.114 17.6016C101.735 17.6016 101.134 17.461 100.693 16.9095C100.32 16.4433 100.302 15.9715 100.302 15.8359H104.302C104.302 15.5441 104.252 14.9552 103.816 14.4108C103.313 13.7811 102.618 13.6016 102.114 13.6016V17.6016ZM100.302 15.8359V27.2031H104.302V15.8359H100.302ZM103.971 28.3038L111.495 16.8897L108.155 14.6884L100.632 26.1024L103.971 28.3038ZM111.239 17.2033C111.205 17.2372 111.11 17.3266 110.948 17.4131C110.778 17.5036 110.513 17.6016 110.177 17.6016V13.6016C109.289 13.6016 108.689 14.0963 108.411 14.3748L111.239 17.2033ZM110.177 17.6016H115.684V13.6016H110.177V17.6016ZM115.684 17.6016C115.598 17.6016 115.368 17.5956 115.086 17.4929C114.779 17.3815 114.309 17.1124 114.024 16.5429C113.749 15.9927 113.81 15.4849 113.876 15.222C113.94 14.965 114.043 14.7924 114.082 14.7291L117.474 16.8491C117.553 16.7232 117.681 16.4959 117.756 16.1921C117.834 15.8823 117.893 15.3355 117.602 14.754C117.302 14.1532 116.802 13.8607 116.453 13.7337C116.127 13.6154 115.841 13.6016 115.684 13.6016V17.6016ZM114.083 14.7272L105.786 27.9694L109.176 30.0931L117.473 16.8509L114.083 14.7272ZM105.671 29.8825L114.976 49.6638L118.596 47.9612L109.291 28.18L105.671 29.8825ZM115.09 49.8725C115.015 49.7523 114.815 49.403 114.815 48.8945C114.815 48.2649 115.118 47.726 115.537 47.3914C115.872 47.1229 116.198 47.0487 116.306 47.0271C116.441 47.0001 116.534 47 116.552 47V51C116.686 51 116.877 50.9921 117.09 50.9494C117.276 50.9122 117.661 50.8146 118.035 50.5149C118.493 50.149 118.815 49.571 118.815 48.8945C118.815 48.3392 118.596 47.9352 118.482 47.7525L115.09 49.8725ZM116.552 47H110.692V51H116.552V47ZM110.692 47C110.861 47 111.228 47.0316 111.614 47.289C112.041 47.5734 112.265 47.9814 112.351 48.3274L108.471 49.2976C108.588 49.7686 108.875 50.2703 109.395 50.6172C109.875 50.9371 110.367 51 110.692 51V47ZM112.228 47.9765L105.736 33.8671L102.102 35.5391L108.594 49.6485L112.228 47.9765ZM102.23 33.6323L100.566 36.2573L103.944 38.3989L105.608 35.7739L102.23 33.6323ZM100.255 37.3281V48.7656H104.255V37.3281H100.255ZM100.255 48.7656C100.255 48.6301 100.273 48.1583 100.646 47.692C101.087 47.1405 101.688 47 102.067 47V51C102.571 51 103.266 50.8204 103.77 50.1908C104.205 49.6464 104.255 49.0574 104.255 48.7656H100.255ZM121.342 48.7656L119.342 48.7628V48.7656H121.342ZM121.389 15.7891L123.389 15.7919V15.7891H121.389ZM127.155 21.3906V19.3906H125.155V21.3906H127.155ZM127.155 28.8906H125.155V30.8906H127.155V28.8906ZM137.186 29.0781H135.186V29.0867L135.186 29.0954L137.186 29.0781ZM137.233 34.5156H139.233V34.507L139.233 34.4984L137.233 34.5156ZM127.155 34.7031V32.7031H125.155V34.7031H127.155ZM127.155 43.0938H125.155V45.0938H127.155V43.0938ZM137.045 47H121.53V51H137.045V47ZM121.53 47C121.909 47 122.51 47.1405 122.951 47.692C123.324 48.1583 123.342 48.6301 123.342 48.7656H119.342C119.342 49.0574 119.392 49.6464 119.827 50.1908C120.331 50.8204 121.026 51 121.53 51V47ZM123.342 48.7685L123.389 15.7919L119.389 15.7862L119.342 48.7628L123.342 48.7685ZM123.389 15.7891C123.389 16.0349 123.326 16.5865 122.85 17.0627C122.374 17.5388 121.822 17.6016 121.577 17.6016V13.6016C121.206 13.6016 120.56 13.6956 120.022 14.2342C119.483 14.7728 119.389 15.4183 119.389 15.7891H123.389ZM121.577 17.6016H136.998V13.6016H121.577V17.6016ZM136.998 17.6016C136.62 17.6016 136.019 17.461 135.577 16.9095C135.204 16.4433 135.186 15.9715 135.186 15.8359H139.186C139.186 15.5441 139.136 14.9552 138.701 14.4108C138.197 13.7811 137.502 13.6016 136.998 13.6016V17.6016ZM135.186 15.8359V21.2031H139.186V15.8359H135.186ZM135.186 21.2031C135.186 20.9573 135.249 20.4056 135.725 19.9295C136.201 19.4534 136.753 19.3906 136.998 19.3906V23.3906C137.369 23.3906 138.015 23.2966 138.553 22.758C139.092 22.2194 139.186 21.5739 139.186 21.2031H135.186ZM136.998 19.3906H127.155V23.3906H136.998V19.3906ZM125.155 21.3906V28.8906H129.155V21.3906H125.155ZM127.155 30.8906H136.998V26.8906H127.155V30.8906ZM136.998 30.8906C136.753 30.8906 136.201 30.8278 135.725 30.3517C135.249 29.8756 135.186 29.3239 135.186 29.0781H139.186C139.186 28.7073 139.092 28.0619 138.553 27.5233C138.015 26.9847 137.369 26.8906 136.998 26.8906V30.8906ZM135.186 29.0954L135.233 34.5329L139.233 34.4984L139.186 29.0609L135.186 29.0954ZM135.233 34.5156C135.233 34.2698 135.296 33.7181 135.772 33.242C136.248 32.7659 136.8 32.7031 137.045 32.7031V36.7031C137.416 36.7031 138.062 36.6091 138.6 36.0705C139.139 35.5319 139.233 34.8864 139.233 34.5156H135.233ZM137.045 32.7031H127.155V36.7031H137.045V32.7031ZM125.155 34.7031V43.0938H129.155V34.7031H125.155ZM127.155 45.0938H137.045V41.0938H127.155V45.0938ZM137.045 45.0938C136.666 45.0938 136.065 44.9532 135.624 44.4017C135.251 43.9355 135.233 43.4637 135.233 43.3281H139.233C139.233 43.0363 139.183 42.4474 138.748 41.903C138.244 41.2733 137.549 41.0938 137.045 41.0938V45.0938ZM135.233 43.3281V48.8125H139.233V43.3281H135.233ZM135.233 48.8125C135.233 48.5667 135.296 48.015 135.772 47.5389C136.248 47.0628 136.8 47 137.045 47V51C137.416 51 138.062 50.9059 138.6 50.3673C139.139 49.8287 139.233 49.1833 139.233 48.8125H135.233Z" fill="url(#paint0_linear_20_34)" mask="url(#path-1-outside-1_20_34)"/>
</g>
<defs>
<linearGradient id="paint0_linear_20_34" x1="14.5" y1="34" x2="170" y2="34" gradientUnits="userSpaceOnUse">
<stop stop-color="#FFBD30"/>
<stop offset="0.335" stop-color="#FF9D39"/>
<stop offset="0.66" stop-color="#FF6749"/>
<stop offset="1" stop-color="#FF4C4F"/>
</linearGradient>
<clipPath id="clip0_20_34">
<rect width="185" height="67" fill="white"/>
</clipPath>
</defs>
</svg>
