<svg width="185" height="67" viewBox="0 0 185 67" fill="none" xmlns="http://www.w3.org/2000/svg">
<g clip-path="url(#clip0_20_36)">
<mask id="path-1-outside-1_20_36" maskUnits="userSpaceOnUse" x="-1" y="13" width="186" height="39" fill="black">
<rect fill="white" x="-1" y="13" width="186" height="39"/>
<path d="M11.4437 49.4688C9.74062 49.4688 8.17031 49.0312 6.73281 48.1562C5.31094 47.2812 4.1625 46.1172 3.2875 44.6641C2.42812 43.1953 1.99844 41.5859 1.99844 39.8359L2.04531 24.625C2.04531 22.8438 2.475 21.2422 3.33437 19.8203C4.17812 18.3828 5.31875 17.2344 6.75625 16.375C8.19375 15.5 9.75625 15.0625 11.4437 15.0625C13.1937 15.0625 14.7641 15.4922 16.1547 16.3516C17.5609 17.2109 18.6859 18.3672 19.5297 19.8203C20.3891 21.2578 20.8187 22.8594 20.8187 24.625L20.8656 39.8359C20.8656 41.5859 20.4437 43.1875 19.6 44.6406C18.7406 46.1094 17.6 47.2812 16.1781 48.1562C14.7562 49.0312 13.1781 49.4688 11.4437 49.4688ZM11.4437 43.6797C12.4125 43.6797 13.2562 43.2891 13.975 42.5078C14.6937 41.7109 15.0531 40.8203 15.0531 39.8359L15.0062 24.625C15.0062 23.5625 14.6703 22.6641 13.9984 21.9297C13.3266 21.1953 12.475 20.8281 11.4437 20.8281C10.4594 20.8281 9.61562 21.1875 8.9125 21.9062C8.20937 22.625 7.85781 23.5312 7.85781 24.625V39.8359C7.85781 40.8828 8.20937 41.7891 8.9125 42.5547C9.61562 43.3047 10.4594 43.6797 11.4437 43.6797ZM37.1172 49H31.3047C31.1641 49 31.0859 48.9219 31.0703 48.7656L24.4375 15.7891C24.4062 15.6641 24.4687 15.6016 24.625 15.6016H30.0625C30.1875 15.6016 30.2656 15.6641 30.2969 15.7891L34.2344 37.7734L38.0781 15.7891C38.1094 15.6641 38.1875 15.6016 38.3125 15.6016H43.6797C43.8516 15.6016 43.9141 15.6641 43.8672 15.7891L37.3516 48.7656C37.3359 48.9219 37.2578 49 37.1172 49ZM64.7828 49H49.2672C49.1422 49 49.0797 48.9219 49.0797 48.7656L49.1266 15.7891C49.1266 15.6641 49.1891 15.6016 49.3141 15.6016H64.7359C64.8609 15.6016 64.9234 15.6797 64.9234 15.8359V21.2031C64.9234 21.3281 64.8609 21.3906 64.7359 21.3906H54.8922V28.8906H64.7359C64.8609 28.8906 64.9234 28.9531 64.9234 29.0781L64.9703 34.5156C64.9703 34.6406 64.9078 34.7031 64.7828 34.7031H54.8922V43.0938H64.7828C64.9078 43.0938 64.9703 43.1719 64.9703 43.3281V48.8125C64.9703 48.9375 64.9078 49 64.7828 49ZM77.2609 49H71.8234C71.6984 49 71.6359 48.9219 71.6359 48.7656L71.7297 15.7891C71.7297 15.6641 71.7922 15.6016 71.9172 15.6016H81.6203C83.3547 15.6016 84.9484 16.0234 86.4016 16.8672C87.8547 17.7109 89.0109 18.8438 89.8703 20.2656C90.7453 21.6875 91.1828 23.2969 91.1828 25.0938C91.1828 26.2656 91.0031 27.3281 90.6437 28.2812C90.2844 29.2344 89.8625 30.0391 89.3781 30.6953C88.9094 31.3516 88.4797 31.8359 88.0891 32.1484C89.8234 34.0703 90.6906 36.3281 90.6906 38.9219L90.7375 48.7656C90.7375 48.9219 90.6594 49 90.5031 49H85.0656C84.9406 49 84.8781 48.9531 84.8781 48.8594V38.9219C84.8781 37.7656 84.4719 36.7656 83.6594 35.9219C82.8469 35.0781 81.8469 34.6562 80.6594 34.6562H77.4953L77.4484 48.7656C77.4484 48.9219 77.3859 49 77.2609 49ZM81.6203 21.3438H77.4953V28.8906H81.6203C82.6047 28.8906 83.4797 28.5234 84.2453 27.7891C85.0266 27.0547 85.4172 26.1562 85.4172 25.0938C85.4172 24.0781 85.0422 23.2031 84.2922 22.4688C83.5422 21.7188 82.6516 21.3438 81.6203 21.3438ZM102.817 49H97.4266C97.2703 49 97.1922 48.9219 97.1922 48.7656L97.2859 15.7891C97.2859 15.6641 97.3484 15.6016 97.4734 15.6016H106.708C109.645 15.6016 111.966 16.5 113.669 18.2969C115.387 20.0781 116.247 22.5078 116.247 25.5859C116.247 27.8359 115.802 29.7969 114.911 31.4688C114.005 33.125 112.833 34.4062 111.395 35.3125C109.958 36.2188 108.395 36.6719 106.708 36.6719H103.052V48.7656C103.052 48.9219 102.973 49 102.817 49ZM106.708 21.2969L103.052 21.3438V30.8594H106.708C107.723 30.8594 108.606 30.375 109.356 29.4062C110.106 28.4219 110.481 27.1484 110.481 25.5859C110.481 24.3359 110.145 23.3125 109.473 22.5156C108.802 21.7031 107.88 21.2969 106.708 21.2969ZM117.522 48.7656L123.475 15.7891C123.506 15.6641 123.584 15.6016 123.709 15.6016H130.67C130.795 15.6016 130.873 15.6641 130.905 15.7891L136.623 48.7656C136.639 48.9219 136.577 49 136.436 49H131.116C130.959 49 130.873 48.9219 130.858 48.7656L130.342 45.25H123.803L123.287 48.7656C123.272 48.9219 123.194 49 123.053 49H117.709C117.584 49 117.522 48.9219 117.522 48.7656ZM126.92 26.6406L124.764 40.1172H129.381L127.412 26.6406L127.131 24.8594L126.92 26.6406ZM150.18 49.4688C148.477 49.4688 146.906 49.0312 145.469 48.1562C144.047 47.2812 142.906 46.1172 142.047 44.6641C141.203 43.1953 140.781 41.5859 140.781 39.8359V37.6328C140.781 37.4609 140.859 37.375 141.016 37.375H146.406C146.531 37.375 146.594 37.4609 146.594 37.6328V39.8359C146.594 40.8828 146.945 41.7891 147.648 42.5547C148.352 43.3047 149.195 43.6797 150.18 43.6797C151.18 43.6797 152.031 43.2969 152.734 42.5312C153.438 41.75 153.789 40.8516 153.789 39.8359C153.789 38.6641 153.023 37.6406 151.492 36.7656C151.242 36.6094 150.914 36.4219 150.508 36.2031C150.117 35.9688 149.648 35.7031 149.102 35.4062C148.555 35.1094 148.023 34.8203 147.508 34.5391C146.992 34.2422 146.492 33.9609 146.008 33.6953C144.258 32.6641 142.953 31.375 142.094 29.8281C141.25 28.2656 140.828 26.5156 140.828 24.5781C140.828 22.7969 141.266 21.1875 142.141 19.75C143.016 18.3281 144.156 17.2031 145.562 16.375C146.984 15.5312 148.523 15.1094 150.18 15.1094C151.883 15.1094 153.445 15.5312 154.867 16.375C156.289 17.2344 157.422 18.375 158.266 19.7969C159.125 21.2188 159.555 22.8125 159.555 24.5781V28.5156C159.555 28.6406 159.492 28.7031 159.367 28.7031H153.977C153.852 28.7031 153.789 28.6406 153.789 28.5156L153.742 24.5781C153.742 23.4531 153.391 22.5391 152.688 21.8359C151.984 21.1328 151.148 20.7812 150.18 20.7812C149.195 20.7812 148.352 21.1562 147.648 21.9062C146.945 22.6562 146.594 23.5469 146.594 24.5781C146.594 25.625 146.812 26.5 147.25 27.2031C147.703 27.9062 148.523 28.5781 149.711 29.2188C149.836 29.2812 150.125 29.4375 150.578 29.6875C151.031 29.9375 151.531 30.2188 152.078 30.5312C152.641 30.8281 153.148 31.1016 153.602 31.3516C154.055 31.5859 154.328 31.7266 154.422 31.7734C156.016 32.6641 157.273 33.7578 158.195 35.0547C159.133 36.3516 159.602 37.9453 159.602 39.8359C159.602 41.6641 159.18 43.3047 158.336 44.7578C157.477 46.2109 156.336 47.3594 154.914 48.2031C153.492 49.0469 151.914 49.4688 150.18 49.4688ZM173.486 49.4688C171.783 49.4688 170.212 49.0312 168.775 48.1562C167.353 47.2812 166.212 46.1172 165.353 44.6641C164.509 43.1953 164.087 41.5859 164.087 39.8359V37.6328C164.087 37.4609 164.166 37.375 164.322 37.375H169.712C169.837 37.375 169.9 37.4609 169.9 37.6328V39.8359C169.9 40.8828 170.252 41.7891 170.955 42.5547C171.658 43.3047 172.502 43.6797 173.486 43.6797C174.486 43.6797 175.337 43.2969 176.041 42.5312C176.744 41.75 177.095 40.8516 177.095 39.8359C177.095 38.6641 176.33 37.6406 174.798 36.7656C174.548 36.6094 174.22 36.4219 173.814 36.2031C173.423 35.9688 172.955 35.7031 172.408 35.4062C171.861 35.1094 171.33 34.8203 170.814 34.5391C170.298 34.2422 169.798 33.9609 169.314 33.6953C167.564 32.6641 166.259 31.375 165.4 29.8281C164.556 28.2656 164.134 26.5156 164.134 24.5781C164.134 22.7969 164.572 21.1875 165.447 19.75C166.322 18.3281 167.462 17.2031 168.869 16.375C170.291 15.5312 171.83 15.1094 173.486 15.1094C175.189 15.1094 176.752 15.5312 178.173 16.375C179.595 17.2344 180.728 18.375 181.572 19.7969C182.431 21.2188 182.861 22.8125 182.861 24.5781V28.5156C182.861 28.6406 182.798 28.7031 182.673 28.7031H177.283C177.158 28.7031 177.095 28.6406 177.095 28.5156L177.048 24.5781C177.048 23.4531 176.697 22.5391 175.994 21.8359C175.291 21.1328 174.455 20.7812 173.486 20.7812C172.502 20.7812 171.658 21.1562 170.955 21.9062C170.252 22.6562 169.9 23.5469 169.9 24.5781C169.9 25.625 170.119 26.5 170.556 27.2031C171.009 27.9062 171.83 28.5781 173.017 29.2188C173.142 29.2812 173.431 29.4375 173.884 29.6875C174.337 29.9375 174.837 30.2188 175.384 30.5312C175.947 30.8281 176.455 31.1016 176.908 31.3516C177.361 31.5859 177.634 31.7266 177.728 31.7734C179.322 32.6641 180.58 33.7578 181.502 35.0547C182.439 36.3516 182.908 37.9453 182.908 39.8359C182.908 41.6641 182.486 43.3047 181.642 44.7578C180.783 46.2109 179.642 47.3594 178.22 48.2031C176.798 49.0469 175.22 49.4688 173.486 49.4688Z"/>
</mask>
<path d="M11.4437 49.4688C9.74062 49.4688 8.17031 49.0312 6.73281 48.1562C5.31094 47.2812 4.1625 46.1172 3.2875 44.6641C2.42812 43.1953 1.99844 41.5859 1.99844 39.8359L2.04531 24.625C2.04531 22.8438 2.475 21.2422 3.33437 19.8203C4.17812 18.3828 5.31875 17.2344 6.75625 16.375C8.19375 15.5 9.75625 15.0625 11.4437 15.0625C13.1937 15.0625 14.7641 15.4922 16.1547 16.3516C17.5609 17.2109 18.6859 18.3672 19.5297 19.8203C20.3891 21.2578 20.8187 22.8594 20.8187 24.625L20.8656 39.8359C20.8656 41.5859 20.4437 43.1875 19.6 44.6406C18.7406 46.1094 17.6 47.2812 16.1781 48.1562C14.7562 49.0312 13.1781 49.4688 11.4437 49.4688ZM11.4437 43.6797C12.4125 43.6797 13.2562 43.2891 13.975 42.5078C14.6937 41.7109 15.0531 40.8203 15.0531 39.8359L15.0062 24.625C15.0062 23.5625 14.6703 22.6641 13.9984 21.9297C13.3266 21.1953 12.475 20.8281 11.4437 20.8281C10.4594 20.8281 9.61562 21.1875 8.9125 21.9062C8.20937 22.625 7.85781 23.5312 7.85781 24.625V39.8359C7.85781 40.8828 8.20937 41.7891 8.9125 42.5547C9.61562 43.3047 10.4594 43.6797 11.4437 43.6797ZM37.1172 49H31.3047C31.1641 49 31.0859 48.9219 31.0703 48.7656L24.4375 15.7891C24.4062 15.6641 24.4687 15.6016 24.625 15.6016H30.0625C30.1875 15.6016 30.2656 15.6641 30.2969 15.7891L34.2344 37.7734L38.0781 15.7891C38.1094 15.6641 38.1875 15.6016 38.3125 15.6016H43.6797C43.8516 15.6016 43.9141 15.6641 43.8672 15.7891L37.3516 48.7656C37.3359 48.9219 37.2578 49 37.1172 49ZM64.7828 49H49.2672C49.1422 49 49.0797 48.9219 49.0797 48.7656L49.1266 15.7891C49.1266 15.6641 49.1891 15.6016 49.3141 15.6016H64.7359C64.8609 15.6016 64.9234 15.6797 64.9234 15.8359V21.2031C64.9234 21.3281 64.8609 21.3906 64.7359 21.3906H54.8922V28.8906H64.7359C64.8609 28.8906 64.9234 28.9531 64.9234 29.0781L64.9703 34.5156C64.9703 34.6406 64.9078 34.7031 64.7828 34.7031H54.8922V43.0938H64.7828C64.9078 43.0938 64.9703 43.1719 64.9703 43.3281V48.8125C64.9703 48.9375 64.9078 49 64.7828 49ZM77.2609 49H71.8234C71.6984 49 71.6359 48.9219 71.6359 48.7656L71.7297 15.7891C71.7297 15.6641 71.7922 15.6016 71.9172 15.6016H81.6203C83.3547 15.6016 84.9484 16.0234 86.4016 16.8672C87.8547 17.7109 89.0109 18.8438 89.8703 20.2656C90.7453 21.6875 91.1828 23.2969 91.1828 25.0938C91.1828 26.2656 91.0031 27.3281 90.6437 28.2812C90.2844 29.2344 89.8625 30.0391 89.3781 30.6953C88.9094 31.3516 88.4797 31.8359 88.0891 32.1484C89.8234 34.0703 90.6906 36.3281 90.6906 38.9219L90.7375 48.7656C90.7375 48.9219 90.6594 49 90.5031 49H85.0656C84.9406 49 84.8781 48.9531 84.8781 48.8594V38.9219C84.8781 37.7656 84.4719 36.7656 83.6594 35.9219C82.8469 35.0781 81.8469 34.6562 80.6594 34.6562H77.4953L77.4484 48.7656C77.4484 48.9219 77.3859 49 77.2609 49ZM81.6203 21.3438H77.4953V28.8906H81.6203C82.6047 28.8906 83.4797 28.5234 84.2453 27.7891C85.0266 27.0547 85.4172 26.1562 85.4172 25.0938C85.4172 24.0781 85.0422 23.2031 84.2922 22.4688C83.5422 21.7188 82.6516 21.3438 81.6203 21.3438ZM102.817 49H97.4266C97.2703 49 97.1922 48.9219 97.1922 48.7656L97.2859 15.7891C97.2859 15.6641 97.3484 15.6016 97.4734 15.6016H106.708C109.645 15.6016 111.966 16.5 113.669 18.2969C115.387 20.0781 116.247 22.5078 116.247 25.5859C116.247 27.8359 115.802 29.7969 114.911 31.4688C114.005 33.125 112.833 34.4062 111.395 35.3125C109.958 36.2188 108.395 36.6719 106.708 36.6719H103.052V48.7656C103.052 48.9219 102.973 49 102.817 49ZM106.708 21.2969L103.052 21.3438V30.8594H106.708C107.723 30.8594 108.606 30.375 109.356 29.4062C110.106 28.4219 110.481 27.1484 110.481 25.5859C110.481 24.3359 110.145 23.3125 109.473 22.5156C108.802 21.7031 107.88 21.2969 106.708 21.2969ZM117.522 48.7656L123.475 15.7891C123.506 15.6641 123.584 15.6016 123.709 15.6016H130.67C130.795 15.6016 130.873 15.6641 130.905 15.7891L136.623 48.7656C136.639 48.9219 136.577 49 136.436 49H131.116C130.959 49 130.873 48.9219 130.858 48.7656L130.342 45.25H123.803L123.287 48.7656C123.272 48.9219 123.194 49 123.053 49H117.709C117.584 49 117.522 48.9219 117.522 48.7656ZM126.92 26.6406L124.764 40.1172H129.381L127.412 26.6406L127.131 24.8594L126.92 26.6406ZM150.18 49.4688C148.477 49.4688 146.906 49.0312 145.469 48.1562C144.047 47.2812 142.906 46.1172 142.047 44.6641C141.203 43.1953 140.781 41.5859 140.781 39.8359V37.6328C140.781 37.4609 140.859 37.375 141.016 37.375H146.406C146.531 37.375 146.594 37.4609 146.594 37.6328V39.8359C146.594 40.8828 146.945 41.7891 147.648 42.5547C148.352 43.3047 149.195 43.6797 150.18 43.6797C151.18 43.6797 152.031 43.2969 152.734 42.5312C153.438 41.75 153.789 40.8516 153.789 39.8359C153.789 38.6641 153.023 37.6406 151.492 36.7656C151.242 36.6094 150.914 36.4219 150.508 36.2031C150.117 35.9688 149.648 35.7031 149.102 35.4062C148.555 35.1094 148.023 34.8203 147.508 34.5391C146.992 34.2422 146.492 33.9609 146.008 33.6953C144.258 32.6641 142.953 31.375 142.094 29.8281C141.25 28.2656 140.828 26.5156 140.828 24.5781C140.828 22.7969 141.266 21.1875 142.141 19.75C143.016 18.3281 144.156 17.2031 145.562 16.375C146.984 15.5312 148.523 15.1094 150.18 15.1094C151.883 15.1094 153.445 15.5312 154.867 16.375C156.289 17.2344 157.422 18.375 158.266 19.7969C159.125 21.2188 159.555 22.8125 159.555 24.5781V28.5156C159.555 28.6406 159.492 28.7031 159.367 28.7031H153.977C153.852 28.7031 153.789 28.6406 153.789 28.5156L153.742 24.5781C153.742 23.4531 153.391 22.5391 152.688 21.8359C151.984 21.1328 151.148 20.7812 150.18 20.7812C149.195 20.7812 148.352 21.1562 147.648 21.9062C146.945 22.6562 146.594 23.5469 146.594 24.5781C146.594 25.625 146.812 26.5 147.25 27.2031C147.703 27.9062 148.523 28.5781 149.711 29.2188C149.836 29.2812 150.125 29.4375 150.578 29.6875C151.031 29.9375 151.531 30.2188 152.078 30.5312C152.641 30.8281 153.148 31.1016 153.602 31.3516C154.055 31.5859 154.328 31.7266 154.422 31.7734C156.016 32.6641 157.273 33.7578 158.195 35.0547C159.133 36.3516 159.602 37.9453 159.602 39.8359C159.602 41.6641 159.18 43.3047 158.336 44.7578C157.477 46.2109 156.336 47.3594 154.914 48.2031C153.492 49.0469 151.914 49.4688 150.18 49.4688ZM173.486 49.4688C171.783 49.4688 170.212 49.0312 168.775 48.1562C167.353 47.2812 166.212 46.1172 165.353 44.6641C164.509 43.1953 164.087 41.5859 164.087 39.8359V37.6328C164.087 37.4609 164.166 37.375 164.322 37.375H169.712C169.837 37.375 169.9 37.4609 169.9 37.6328V39.8359C169.9 40.8828 170.252 41.7891 170.955 42.5547C171.658 43.3047 172.502 43.6797 173.486 43.6797C174.486 43.6797 175.337 43.2969 176.041 42.5312C176.744 41.75 177.095 40.8516 177.095 39.8359C177.095 38.6641 176.33 37.6406 174.798 36.7656C174.548 36.6094 174.22 36.4219 173.814 36.2031C173.423 35.9688 172.955 35.7031 172.408 35.4062C171.861 35.1094 171.33 34.8203 170.814 34.5391C170.298 34.2422 169.798 33.9609 169.314 33.6953C167.564 32.6641 166.259 31.375 165.4 29.8281C164.556 28.2656 164.134 26.5156 164.134 24.5781C164.134 22.7969 164.572 21.1875 165.447 19.75C166.322 18.3281 167.462 17.2031 168.869 16.375C170.291 15.5312 171.83 15.1094 173.486 15.1094C175.189 15.1094 176.752 15.5312 178.173 16.375C179.595 17.2344 180.728 18.375 181.572 19.7969C182.431 21.2188 182.861 22.8125 182.861 24.5781V28.5156C182.861 28.6406 182.798 28.7031 182.673 28.7031H177.283C177.158 28.7031 177.095 28.6406 177.095 28.5156L177.048 24.5781C177.048 23.4531 176.697 22.5391 175.994 21.8359C175.291 21.1328 174.455 20.7812 173.486 20.7812C172.502 20.7812 171.658 21.1562 170.955 21.9062C170.252 22.6562 169.9 23.5469 169.9 24.5781C169.9 25.625 170.119 26.5 170.556 27.2031C171.009 27.9062 171.83 28.5781 173.017 29.2188C173.142 29.2812 173.431 29.4375 173.884 29.6875C174.337 29.9375 174.837 30.2188 175.384 30.5312C175.947 30.8281 176.455 31.1016 176.908 31.3516C177.361 31.5859 177.634 31.7266 177.728 31.7734C179.322 32.6641 180.58 33.7578 181.502 35.0547C182.439 36.3516 182.908 37.9453 182.908 39.8359C182.908 41.6641 182.486 43.3047 181.642 44.7578C180.783 46.2109 179.642 47.3594 178.22 48.2031C176.798 49.0469 175.22 49.4688 173.486 49.4688Z" fill="black" fill-opacity="0.6"/>
<path d="M6.73281 48.1562L5.6846 49.8596L5.69292 49.8646L6.73281 48.1562ZM3.2875 44.6641L1.56127 45.6741L1.56764 45.685L1.57414 45.6958L3.2875 44.6641ZM1.99844 39.8359L-0.00156403 39.8298V39.8359H1.99844ZM2.04531 24.625L4.04531 24.6312V24.625H2.04531ZM3.33437 19.8203L5.04603 20.8548L5.05269 20.8438L5.05921 20.8327L3.33437 19.8203ZM6.75625 16.375L7.78249 18.0916L7.78933 18.0875L7.79614 18.0834L6.75625 16.375ZM16.1547 16.3516L15.1033 18.0529L15.1118 18.0581L16.1547 16.3516ZM19.5297 19.8203L17.8001 20.8246L17.8065 20.8356L17.8131 20.8466L19.5297 19.8203ZM20.8187 24.625L18.8187 24.625L18.8188 24.6312L20.8187 24.625ZM20.8656 39.8359L22.8656 39.8359L22.8656 39.8298L20.8656 39.8359ZM19.6 44.6406L21.3262 45.6507L21.3296 45.6449L19.6 44.6406ZM13.975 42.5078L15.4469 43.8619L15.4535 43.8547L15.4601 43.8474L13.975 42.5078ZM15.0531 39.8359L17.0531 39.8359L17.0531 39.8298L15.0531 39.8359ZM15.0062 24.625L13.0062 24.625L13.0063 24.6312L15.0062 24.625ZM8.9125 42.5547L7.43944 43.9075L7.44639 43.9151L7.45342 43.9226L8.9125 42.5547ZM11.4437 47.4688C10.1028 47.4688 8.89292 47.1297 7.7727 46.4479L5.69292 49.8646C7.44771 50.9328 9.37847 51.4688 11.4437 51.4688V47.4688ZM7.78101 46.4529C6.63582 45.7482 5.71373 44.8162 5.00086 43.6324L1.57414 45.6958C2.61127 47.4181 3.98605 48.8143 5.68462 49.8596L7.78101 46.4529ZM5.01372 43.654C4.33889 42.5007 3.99844 41.2415 3.99844 39.8359H-0.00156403C-0.00156403 41.9304 0.517361 43.8899 1.56127 45.6741L5.01372 43.654ZM3.99843 39.8421L4.0453 24.6312L0.0453205 24.6188L-0.00155453 39.8298L3.99843 39.8421ZM4.04531 24.625C4.04531 23.1811 4.38894 21.942 5.04603 20.8548L1.62272 18.7858C0.561056 20.5424 0.045311 22.5064 0.045311 24.625H4.04531ZM5.05921 20.8327C5.73208 19.6863 6.63186 18.7795 7.78249 18.0916L5.73 14.6584C4.00564 15.6892 2.62417 17.0793 1.60954 18.8079L5.05921 20.8327ZM7.79614 18.0834C8.9194 17.3997 10.122 17.0625 11.4437 17.0625V13.0625C9.3905 13.0625 7.4681 13.6003 5.71635 14.6666L7.79614 18.0834ZM11.4437 17.0625C12.8496 17.0625 14.051 17.4026 15.1033 18.0529L17.2061 14.6502C15.4771 13.5817 13.5379 13.0625 11.4437 13.0625V17.0625ZM15.1118 18.0581C16.2286 18.7406 17.1199 19.6531 17.8001 20.8246L21.2593 18.816C20.252 17.0813 18.8933 15.6813 17.1976 14.645L15.1118 18.0581ZM17.8131 20.8466C18.4768 21.9568 18.8187 23.2003 18.8187 24.625H22.8187C22.8187 22.5184 22.3013 20.5588 21.2463 18.7941L17.8131 20.8466ZM18.8188 24.6312L18.8656 39.8421L22.8656 39.8298L22.8187 24.6188L18.8188 24.6312ZM18.8656 39.8359C18.8656 41.2484 18.5295 42.5012 17.8704 43.6364L21.3296 45.6449C22.358 43.8738 22.8656 41.9234 22.8656 39.8359H18.8656ZM17.8738 43.6306C17.1768 44.8218 16.2668 45.7533 15.1299 46.4529L17.2263 49.8596C18.9332 48.8092 20.3045 47.3969 21.3262 45.6506L17.8738 43.6306ZM15.1299 46.4529C14.0359 47.1262 12.8231 47.4688 11.4437 47.4688V51.4688C13.5332 51.4688 15.4766 50.9363 17.2263 49.8596L15.1299 46.4529ZM11.4437 45.6797C13.0289 45.6797 14.3899 45.0108 15.4469 43.8619L12.5031 41.1537C12.1226 41.5673 11.7961 41.6797 11.4437 41.6797V45.6797ZM15.4601 43.8474C16.4779 42.719 17.0531 41.3615 17.0531 39.8359H13.0531C13.0531 40.2791 12.9096 40.7029 12.4899 41.1683L15.4601 43.8474ZM17.0531 39.8298L17.0062 24.6188L13.0063 24.6312L13.0531 39.8421L17.0531 39.8298ZM17.0062 24.625C17.0062 23.0996 16.5073 21.709 15.474 20.5797L12.5228 23.2797C12.8333 23.6191 13.0062 24.0254 13.0062 24.625H17.0062ZM15.474 20.5797C14.4081 19.4145 13.0133 18.8281 11.4437 18.8281V22.8281C11.9367 22.8281 12.245 22.9761 12.5228 23.2797L15.474 20.5797ZM11.4437 18.8281C9.90848 18.8281 8.55314 19.4136 7.48283 20.5077L10.3422 23.3048C10.6781 22.9614 11.0103 22.8281 11.4437 22.8281V18.8281ZM7.48283 20.5077C6.3803 21.6347 5.85781 23.0588 5.85781 24.625H9.85781C9.85781 24.0037 10.0384 23.6153 10.3422 23.3048L7.48283 20.5077ZM5.85781 24.625V39.8359H9.85781V24.625H5.85781ZM5.85781 39.8359C5.85781 41.3799 6.39476 42.77 7.43944 43.9075L10.3856 41.2019C10.024 40.8082 9.85781 40.3857 9.85781 39.8359H5.85781ZM7.45342 43.9226C8.51575 45.0557 9.87953 45.6797 11.4437 45.6797V41.6797C11.0392 41.6797 10.7155 41.5537 10.3716 41.1868L7.45342 43.9226ZM31.0703 48.7656L33.0604 48.5666L33.0505 48.4682L33.031 48.3712L31.0703 48.7656ZM24.4375 15.7891L26.3982 15.3947L26.3891 15.3491L26.3778 15.304L24.4375 15.7891ZM30.2969 15.7891L32.2655 15.4365L32.2536 15.3697L32.2372 15.304L30.2969 15.7891ZM34.2344 37.7734L32.2657 38.126L36.2045 38.1179L34.2344 37.7734ZM38.0781 15.7891L36.1378 15.304L36.1204 15.3738L36.108 15.4446L38.0781 15.7891ZM43.8672 15.7891L41.9945 15.0868L41.9369 15.2404L41.9051 15.4014L43.8672 15.7891ZM37.3516 48.7656L35.3895 48.378L35.371 48.4716L35.3615 48.5666L37.3516 48.7656ZM37.1172 47H31.3047V51H37.1172V47ZM31.3047 47C31.6129 47 32.1236 47.0959 32.5548 47.5272C32.9556 47.9279 33.0412 48.3752 33.0604 48.5666L29.0802 48.9646C29.115 49.3123 29.2476 49.8768 29.7264 50.3556C30.2358 50.865 30.8559 51 31.3047 51V47ZM33.031 48.3712L26.3982 15.3947L22.4768 16.1834L29.1096 49.16L33.031 48.3712ZM26.3778 15.304C26.4474 15.5823 26.5468 16.391 25.8751 17.0627C25.3306 17.6072 24.7023 17.6016 24.625 17.6016V13.6016C24.3915 13.6016 23.6538 13.6271 23.0467 14.2342C22.3126 14.9684 22.3964 15.8708 22.4972 16.2741L26.3778 15.304ZM24.625 17.6016H30.0625V13.6016H24.625V17.6016ZM30.0625 17.6016C29.7868 17.6016 29.362 17.5274 28.9655 17.2102C28.5752 16.8979 28.4164 16.5133 28.3566 16.2741L32.2372 15.304C32.1461 14.9398 31.9326 14.4614 31.4642 14.0867C30.9895 13.7069 30.4632 13.6016 30.0625 13.6016V17.6016ZM28.3282 16.1417L32.2657 38.126L36.203 37.4208L32.2655 15.4365L28.3282 16.1417ZM36.2045 38.1179L40.0482 16.1335L36.108 15.4446L32.2643 37.429L36.2045 38.1179ZM40.0184 16.2741C39.9586 16.5133 39.7998 16.8979 39.4095 17.2102C39.013 17.5274 38.5882 17.6016 38.3125 17.6016V13.6016C37.9118 13.6016 37.3855 13.7069 36.9108 14.0867C36.4424 14.4614 36.2289 14.9398 36.1378 15.304L40.0184 16.2741ZM38.3125 17.6016H43.6797V13.6016H38.3125V17.6016ZM43.6797 17.6016C43.6147 17.6016 43.4653 17.5971 43.2728 17.5458C43.0832 17.4952 42.7502 17.3716 42.4413 17.0627C41.6563 16.2777 41.9018 15.3342 41.9945 15.0868L45.7398 16.4913C45.8795 16.119 46.1172 15.0817 45.2697 14.2342C44.6375 13.602 43.8552 13.6016 43.6797 13.6016V17.6016ZM41.9051 15.4014L35.3895 48.378L39.3136 49.1533L45.8293 16.1767L41.9051 15.4014ZM35.3615 48.5666C35.3806 48.3752 35.4663 47.9279 35.867 47.5272C36.2983 47.0959 36.809 47 37.1172 47V51C37.566 51 38.1861 50.865 38.6955 50.3556C39.1743 49.8768 39.3069 49.3123 39.3416 48.9646L35.3615 48.5666ZM49.0797 48.7656L47.0797 48.7628V48.7656H49.0797ZM49.1266 15.7891L51.1266 15.7919V15.7891H49.1266ZM54.8922 21.3906V19.3906H52.8922V21.3906H54.8922ZM54.8922 28.8906H52.8922V30.8906H54.8922V28.8906ZM64.9234 29.0781H62.9234V29.0867L62.9235 29.0954L64.9234 29.0781ZM64.9703 34.5156H66.9703V34.507L66.9702 34.4984L64.9703 34.5156ZM54.8922 34.7031V32.7031H52.8922V34.7031H54.8922ZM54.8922 43.0938H52.8922V45.0938H54.8922V43.0938ZM64.7828 47H49.2672V51H64.7828V47ZM49.2672 47C49.6461 47 50.2471 47.1405 50.6883 47.692C51.0613 48.1583 51.0797 48.6301 51.0797 48.7656H47.0797C47.0797 49.0574 47.1293 49.6464 47.5648 50.1908C48.0685 50.8204 48.7633 51 49.2672 51V47ZM51.0797 48.7685L51.1266 15.7919L47.1266 15.7862L47.0797 48.7628L51.0797 48.7685ZM51.1266 15.7891C51.1266 16.0349 51.0638 16.5865 50.5876 17.0627C50.1115 17.5388 49.5598 17.6016 49.3141 17.6016V13.6016C48.9433 13.6016 48.2978 13.6956 47.7592 14.2342C47.2206 14.7728 47.1266 15.4183 47.1266 15.7891H51.1266ZM49.3141 17.6016H64.7359V13.6016H49.3141V17.6016ZM64.7359 17.6016C64.357 17.6016 63.756 17.461 63.3148 16.9095C62.9418 16.4433 62.9234 15.9715 62.9234 15.8359H66.9234C66.9234 15.5441 66.8738 14.9552 66.4383 14.4108C65.9346 13.7811 65.2398 13.6016 64.7359 13.6016V17.6016ZM62.9234 15.8359V21.2031H66.9234V15.8359H62.9234ZM62.9234 21.2031C62.9234 20.9573 62.9862 20.4056 63.4623 19.9295C63.9385 19.4534 64.4901 19.3906 64.7359 19.3906V23.3906C65.1067 23.3906 65.7522 23.2966 66.2908 22.758C66.8294 22.2194 66.9234 21.5739 66.9234 21.2031H62.9234ZM64.7359 19.3906H54.8922V23.3906H64.7359V19.3906ZM52.8922 21.3906V28.8906H56.8922V21.3906H52.8922ZM54.8922 30.8906H64.7359V26.8906H54.8922V30.8906ZM64.7359 30.8906C64.4901 30.8906 63.9385 30.8278 63.4623 30.3517C62.9862 29.8756 62.9234 29.3239 62.9234 29.0781H66.9234C66.9234 28.7073 66.8294 28.0619 66.2908 27.5233C65.7522 26.9847 65.1067 26.8906 64.7359 26.8906V30.8906ZM62.9235 29.0954L62.9704 34.5329L66.9702 34.4984L66.9234 29.0609L62.9235 29.0954ZM62.9703 34.5156C62.9703 34.2698 63.0331 33.7181 63.5092 33.242C63.9853 32.7659 64.537 32.7031 64.7828 32.7031V36.7031C65.1536 36.7031 65.799 36.6091 66.3376 36.0705C66.8763 35.5319 66.9703 34.8864 66.9703 34.5156H62.9703ZM64.7828 32.7031H54.8922V36.7031H64.7828V32.7031ZM52.8922 34.7031V43.0938H56.8922V34.7031H52.8922ZM54.8922 45.0938H64.7828V41.0938H54.8922V45.0938ZM64.7828 45.0938C64.4039 45.0938 63.8029 44.9532 63.3617 44.4017C62.9887 43.9355 62.9703 43.4637 62.9703 43.3281H66.9703C66.9703 43.0363 66.9207 42.4474 66.4852 41.903C65.9815 41.2733 65.2867 41.0938 64.7828 41.0938V45.0938ZM62.9703 43.3281V48.8125H66.9703V43.3281H62.9703ZM62.9703 48.8125C62.9703 48.5667 63.0331 48.015 63.5092 47.5389C63.9853 47.0628 64.537 47 64.7828 47V51C65.1536 51 65.799 50.9059 66.3376 50.3673C66.8763 49.8287 66.9703 49.1833 66.9703 48.8125H62.9703ZM71.6359 48.7656L69.6359 48.7599V48.7656H71.6359ZM71.7297 15.7891L73.7297 15.7947V15.7891H71.7297ZM89.8703 20.2656L88.1587 21.3001L88.1628 21.307L88.167 21.3138L89.8703 20.2656ZM89.3781 30.6953L87.769 29.5076L87.7597 29.5202L87.7507 29.5328L89.3781 30.6953ZM88.0891 32.1484L86.8397 30.5867L85.1823 31.9126L86.6043 33.4884L88.0891 32.1484ZM90.6906 38.9219L88.6906 38.9219L88.6906 38.9314L90.6906 38.9219ZM90.7375 48.7656L92.7375 48.7656L92.7375 48.7561L90.7375 48.7656ZM77.4953 34.6562V32.6562H75.5019L75.4953 34.6496L77.4953 34.6562ZM77.4484 48.7656L75.4484 48.759V48.7656H77.4484ZM77.4953 21.3438V19.3438H75.4953V21.3438H77.4953ZM77.4953 28.8906H75.4953V30.8906H77.4953V28.8906ZM84.2453 27.7891L82.8755 26.3318L82.8681 26.3387L82.8609 26.3457L84.2453 27.7891ZM84.2922 22.4688L82.878 23.883L82.8854 23.8904L82.8929 23.8978L84.2922 22.4688ZM77.2609 47H71.8234V51H77.2609V47ZM71.8234 47C72.2023 47 72.8034 47.1405 73.2445 47.692C73.6176 48.1583 73.6359 48.6301 73.6359 48.7656H69.6359C69.6359 49.0574 69.6856 49.6464 70.1211 50.1908C70.6248 50.8204 71.3195 51 71.8234 51V47ZM73.6359 48.7713L73.7297 15.7947L69.7297 15.7834L69.6359 48.7599L73.6359 48.7713ZM73.7297 15.7891C73.7297 16.0349 73.6669 16.5865 73.1908 17.0627C72.7147 17.5388 72.163 17.6016 71.9172 17.6016V13.6016C71.5464 13.6016 70.901 13.6956 70.3623 14.2342C69.8237 14.7728 69.7297 15.4183 69.7297 15.7891H73.7297ZM71.9172 17.6016H81.6203V13.6016H71.9172V17.6016ZM81.6203 17.6016C83.0138 17.6016 84.2593 17.936 85.3973 18.5968L87.4058 15.1376C85.6376 14.1109 83.6956 13.6016 81.6203 13.6016V17.6016ZM85.3973 18.5968C86.5635 19.2739 87.475 20.1691 88.1587 21.3001L91.582 19.2311C90.5468 17.5184 89.1459 16.148 87.4058 15.1376L85.3973 18.5968ZM88.167 21.3138C88.8332 22.3964 89.1828 23.6377 89.1828 25.0938H93.1828C93.1828 22.9561 92.6574 20.9786 91.5736 19.2174L88.167 21.3138ZM89.1828 25.0938C89.1828 26.0604 89.0349 26.8793 88.7724 27.5756L92.5151 28.9869C92.9713 27.777 93.1828 26.4709 93.1828 25.0938H89.1828ZM88.7724 27.5756C88.4625 28.3975 88.121 29.0306 87.769 29.5076L90.9873 31.883C91.6039 31.0475 92.1063 30.0712 92.5151 28.9869L88.7724 27.5756ZM87.7507 29.5328C87.3321 30.1188 87.0262 30.4375 86.8397 30.5867L89.3384 33.7102C89.9332 33.2344 90.4866 32.5843 91.0056 31.8578L87.7507 29.5328ZM86.6043 33.4884C88.0063 35.042 88.6906 36.8221 88.6906 38.9219H92.6906C92.6906 35.8342 91.6406 33.0987 89.5738 30.8085L86.6043 33.4884ZM88.6906 38.9314L88.7375 48.7751L92.7375 48.7561L92.6906 38.9124L88.6906 38.9314ZM88.7375 48.7656C88.7375 48.5355 88.7964 47.9955 89.2647 47.5272C89.733 47.0589 90.273 47 90.5031 47V51C90.8895 51 91.5467 50.902 92.0931 50.3556C92.6395 49.8092 92.7375 49.152 92.7375 48.7656H88.7375ZM90.5031 47H85.0656V51H90.5031V47ZM85.0656 47C85.1954 47 85.6575 47.0142 86.125 47.3648C86.7007 47.7967 86.8781 48.4183 86.8781 48.8594H82.8781C82.8781 49.3942 83.0868 50.0862 83.725 50.5648C84.255 50.9624 84.8108 51 85.0656 51V47ZM86.8781 48.8594V38.9219H82.8781V48.8594H86.8781ZM86.8781 38.9219C86.8781 37.2408 86.2661 35.7456 85.1 34.5346L82.2187 37.3092C82.6776 37.7857 82.8781 38.2905 82.8781 38.9219H86.8781ZM85.1 34.5346C83.9047 33.2933 82.3819 32.6562 80.6594 32.6562V36.6562C81.3118 36.6562 81.7891 36.863 82.2187 37.3092L85.1 34.5346ZM80.6594 32.6562H77.4953V36.6562H80.6594V32.6562ZM75.4953 34.6496L75.4484 48.759L79.4484 48.7723L79.4953 34.6629L75.4953 34.6496ZM75.4484 48.7656C75.4484 48.6301 75.4668 48.1583 75.8398 47.692C76.281 47.1405 76.882 47 77.2609 47V51C77.7648 51 78.4596 50.8204 78.9633 50.1908C79.3988 49.6464 79.4484 49.0574 79.4484 48.7656H75.4484ZM81.6203 19.3438H77.4953V23.3438H81.6203V19.3438ZM75.4953 21.3438V28.8906H79.4953V21.3438H75.4953ZM77.4953 30.8906H81.6203V26.8906H77.4953V30.8906ZM81.6203 30.8906C83.1631 30.8906 84.5235 30.2935 85.6298 29.2324L82.8609 26.3457C82.4358 26.7534 82.0463 26.8906 81.6203 26.8906V30.8906ZM85.6151 29.2463C86.7943 28.1379 87.4172 26.7139 87.4172 25.0938H83.4172C83.4172 25.5986 83.2588 25.9715 82.8755 26.3318L85.6151 29.2463ZM87.4172 25.0938C87.4172 23.5205 86.8112 22.1362 85.6914 21.0397L82.8929 23.8978C83.2732 24.2701 83.4172 24.6357 83.4172 25.0938H87.4172ZM85.7064 21.0545C84.5933 19.9414 83.1987 19.3438 81.6203 19.3438V23.3438C82.1044 23.3438 82.4911 23.4961 82.878 23.883L85.7064 21.0545ZM97.1922 48.7656L95.1922 48.7599V48.7656H97.1922ZM97.2859 15.7891L99.2859 15.7947V15.7891H97.2859ZM113.669 18.2969L112.217 19.6727L112.223 19.6792L112.23 19.6856L113.669 18.2969ZM114.911 31.4688L116.665 32.4288L116.671 32.419L116.676 32.4091L114.911 31.4688ZM103.052 36.6719V34.6719H101.052V36.6719H103.052ZM106.708 21.2969V19.2969H106.695L106.682 19.297L106.708 21.2969ZM103.052 21.3438L103.026 19.3439L101.052 19.3692V21.3438H103.052ZM103.052 30.8594H101.052V32.8594H103.052V30.8594ZM109.356 29.4062L110.938 30.6306L110.942 30.6245L110.947 30.6183L109.356 29.4062ZM109.473 22.5156L107.932 23.7902L107.938 23.7975L107.944 23.8048L109.473 22.5156ZM102.817 47H97.4266V51H102.817V47ZM97.4266 47C97.6567 47 98.1967 47.0589 98.665 47.5272C99.1333 47.9955 99.1922 48.5355 99.1922 48.7656H95.1922C95.1922 49.152 95.2901 49.8092 95.8366 50.3556C96.383 50.902 97.0401 51 97.4266 51V47ZM99.1922 48.7713L99.2859 15.7947L95.2859 15.7834L95.1922 48.7599L99.1922 48.7713ZM99.2859 15.7891C99.2859 16.0349 99.2231 16.5865 98.747 17.0627C98.2709 17.5388 97.7192 17.6016 97.4734 17.6016V13.6016C97.1026 13.6016 96.4572 13.6956 95.9186 14.2342C95.38 14.7728 95.2859 15.4183 95.2859 15.7891H99.2859ZM97.4734 17.6016H106.708V13.6016H97.4734V17.6016ZM106.708 17.6016C109.207 17.6016 110.962 18.3482 112.217 19.6727L115.12 16.921C112.969 14.6518 110.083 13.6016 106.708 13.6016V17.6016ZM112.23 19.6856C113.506 21.0083 114.247 22.8931 114.247 25.5859H118.247C118.247 22.1225 117.269 19.1479 115.108 16.9081L112.23 19.6856ZM114.247 25.5859C114.247 27.5694 113.856 29.1958 113.146 30.5284L116.676 32.4091C117.747 30.398 118.247 28.1025 118.247 25.5859H114.247ZM113.156 30.5087C112.395 31.9003 111.447 32.9154 110.329 33.6206L112.462 37.0044C114.218 35.8971 115.614 34.3497 116.665 32.4288L113.156 30.5087ZM110.329 33.6206C109.208 34.3271 108.015 34.6719 106.708 34.6719V38.6719C108.776 38.6719 110.707 38.1104 112.462 37.0044L110.329 33.6206ZM106.708 34.6719H103.052V38.6719H106.708V34.6719ZM101.052 36.6719V48.7656H105.052V36.6719H101.052ZM101.052 48.7656C101.052 48.5355 101.11 47.9955 101.579 47.5272C102.047 47.0589 102.587 47 102.817 47V51C103.204 51 103.861 50.902 104.407 50.3556C104.954 49.8092 105.052 49.152 105.052 48.7656H101.052ZM106.682 19.297L103.026 19.3439L103.077 23.3436L106.733 23.2967L106.682 19.297ZM101.052 21.3438V30.8594H105.052V21.3438H101.052ZM103.052 32.8594H106.708V28.8594H103.052V32.8594ZM106.708 32.8594C108.472 32.8594 109.896 31.976 110.938 30.6306L107.775 28.1819C107.316 28.774 106.975 28.8594 106.708 28.8594V32.8594ZM110.947 30.6183C112.025 29.2031 112.481 27.4698 112.481 25.5859H108.481C108.481 26.8271 108.187 27.6407 107.765 28.1942L110.947 30.6183ZM112.481 25.5859C112.481 23.9623 112.036 22.4526 111.002 21.2264L107.944 23.8048C108.254 24.1724 108.481 24.7096 108.481 25.5859H112.481ZM111.015 21.2411C109.917 19.9142 108.401 19.2969 106.708 19.2969V23.2969C107.359 23.2969 107.686 23.4921 107.932 23.7902L111.015 21.2411ZM117.522 48.7656L115.554 48.4103L115.522 48.5865V48.7656H117.522ZM123.475 15.7891L121.535 15.304L121.519 15.3684L121.507 15.4338L123.475 15.7891ZM130.905 15.7891L132.875 15.4473L132.863 15.3751L132.845 15.304L130.905 15.7891ZM136.623 48.7656L138.614 48.5666L138.606 48.4949L138.594 48.4239L136.623 48.7656ZM130.858 48.7656L132.848 48.5666L132.843 48.5209L132.837 48.4754L130.858 48.7656ZM130.342 45.25L132.321 44.9598L132.07 43.25H130.342V45.25ZM123.803 45.25V43.25H122.075L121.824 44.9598L123.803 45.25ZM123.287 48.7656L121.309 48.4754L121.302 48.5209L121.297 48.5666L123.287 48.7656ZM126.92 26.6406L128.895 26.9566L128.902 26.9163L128.906 26.8758L126.92 26.6406ZM124.764 40.1172L122.789 39.8012L122.419 42.1172H124.764V40.1172ZM129.381 40.1172V42.1172H131.695L131.36 39.8281L129.381 40.1172ZM127.412 26.6406L129.391 26.3515L129.39 26.3401L129.388 26.3287L127.412 26.6406ZM127.131 24.8594L129.107 24.5474L125.145 24.6242L127.131 24.8594ZM119.49 49.1209L125.443 16.1444L121.507 15.4338L115.554 48.4103L119.49 49.1209ZM125.415 16.2741C125.355 16.5133 125.197 16.8979 124.806 17.2102C124.41 17.5274 123.985 17.6016 123.709 17.6016V13.6016C123.309 13.6016 122.782 13.7069 122.308 14.0867C121.839 14.4614 121.626 14.9398 121.535 15.304L125.415 16.2741ZM123.709 17.6016H130.67V13.6016H123.709V17.6016ZM130.67 17.6016C130.395 17.6016 129.97 17.5274 129.573 17.2102C129.183 16.8979 129.024 16.5133 128.964 16.2741L132.845 15.304C132.754 14.9398 132.54 14.4614 132.072 14.0867C131.597 13.7069 131.071 13.6016 130.67 13.6016V17.6016ZM128.934 16.1308L134.653 49.1074L138.594 48.4239L132.875 15.4473L128.934 16.1308ZM134.633 48.9646C134.618 48.809 134.587 48.2413 135.027 47.692C135.512 47.0858 136.158 47 136.436 47V51C136.855 51 137.603 50.8752 138.15 50.1908C138.652 49.5634 138.645 48.8785 138.614 48.5666L134.633 48.9646ZM136.436 47H131.116V51H136.436V47ZM131.116 47C131.361 47 131.843 47.0646 132.279 47.4615C132.714 47.8571 132.824 48.3281 132.848 48.5666L128.868 48.9646C128.907 49.3594 129.068 49.9476 129.589 50.4213C130.111 50.8963 130.714 51 131.116 51V47ZM132.837 48.4754L132.321 44.9598L128.363 45.5402L128.879 49.0559L132.837 48.4754ZM130.342 43.25H123.803V47.25H130.342V43.25ZM121.824 44.9598L121.309 48.4754L125.266 49.0559L125.782 45.5402L121.824 44.9598ZM121.297 48.5666C121.317 48.3752 121.402 47.9279 121.803 47.5272C122.234 47.0959 122.745 47 123.053 47V51C123.502 51 124.122 50.865 124.631 50.3556C125.11 49.8768 125.243 49.3123 125.278 48.9646L121.297 48.5666ZM123.053 47H117.709V51H123.053V47ZM117.709 47C118.088 47 118.689 47.1405 119.13 47.692C119.504 48.1583 119.522 48.6301 119.522 48.7656H115.522C115.522 49.0574 115.571 49.6464 116.007 50.1908C116.511 50.8204 117.205 51 117.709 51V47ZM124.945 26.3246L122.789 39.8012L126.739 40.4332L128.895 26.9566L124.945 26.3246ZM124.764 42.1172H129.381V38.1172H124.764V42.1172ZM131.36 39.8281L129.391 26.3515L125.434 26.9297L127.402 40.4063L131.36 39.8281ZM129.388 26.3287L129.107 24.5474L125.156 25.1713L125.437 26.9526L129.388 26.3287ZM125.145 24.6242L124.934 26.4054L128.906 26.8758L129.117 25.0946L125.145 24.6242ZM145.469 48.1562L144.421 49.8596L144.429 49.8646L145.469 48.1562ZM142.047 44.6641L140.313 45.6603L140.319 45.6713L140.325 45.6821L142.047 44.6641ZM147.648 42.5547L146.175 43.9075L146.182 43.9151L146.189 43.9226L147.648 42.5547ZM152.734 42.5312L154.207 43.8841L154.214 43.8767L154.221 43.8692L152.734 42.5312ZM151.492 36.7656L150.432 38.4616L150.466 38.4825L150.5 38.5021L151.492 36.7656ZM150.508 36.2031L149.479 37.9181L149.519 37.942L149.56 37.9641L150.508 36.2031ZM147.508 34.5391L146.51 36.2723L146.53 36.2838L146.55 36.2949L147.508 34.5391ZM146.008 33.6953L144.992 35.4184L145.019 35.4341L145.046 35.4489L146.008 33.6953ZM142.094 29.8281L140.334 30.7784L140.34 30.789L140.345 30.7994L142.094 29.8281ZM142.141 19.75L140.437 18.7018L140.432 18.7101L142.141 19.75ZM145.562 16.375L146.577 18.0984L146.583 18.095L145.562 16.375ZM154.867 16.375L155.902 14.6633L155.895 14.6592L155.888 14.655L154.867 16.375ZM158.266 19.7969L156.546 20.8175L156.55 20.8245L156.554 20.8314L158.266 19.7969ZM153.789 28.5156H155.789V28.5037L155.789 28.4918L153.789 28.5156ZM153.742 24.5781H151.742V24.59L151.742 24.6019L153.742 24.5781ZM147.25 27.2031L145.552 28.2597L145.56 28.2732L145.569 28.2865L147.25 27.2031ZM149.711 29.2188L148.761 30.9789L148.789 30.9937L148.817 31.0076L149.711 29.2188ZM152.078 30.5312L151.086 32.2677L151.115 32.2844L151.145 32.3L152.078 30.5312ZM153.602 31.3516L152.635 33.1027L152.659 33.1157L152.683 33.128L153.602 31.3516ZM154.422 31.7734L155.398 30.0276L155.357 30.0051L155.316 29.9846L154.422 31.7734ZM158.195 35.0547L156.565 36.2134L156.57 36.2199L156.574 36.2264L158.195 35.0547ZM158.336 44.7578L160.057 45.7759L160.061 45.769L160.066 45.7621L158.336 44.7578ZM150.18 47.4688C148.839 47.4688 147.629 47.1297 146.509 46.4479L144.429 49.8646C146.184 50.9328 148.114 51.4688 150.18 51.4688V47.4688ZM146.517 46.4529C145.375 45.7502 144.464 44.8227 143.768 43.646L140.325 45.6821C141.348 47.4117 142.719 48.8123 144.421 49.8596L146.517 46.4529ZM143.781 43.6678C143.117 42.5125 142.781 41.2484 142.781 39.8359H138.781C138.781 41.9234 139.289 43.8781 140.313 45.6603L143.781 43.6678ZM142.781 39.8359V37.6328H138.781V39.8359H142.781ZM142.781 37.6328C142.781 37.8105 142.745 38.317 142.32 38.7848C141.862 39.2887 141.298 39.375 141.016 39.375V35.375C140.577 35.375 139.896 35.5043 139.36 36.0941C138.857 36.6478 138.781 37.2832 138.781 37.6328H142.781ZM141.016 39.375H146.406V35.375H141.016V39.375ZM146.406 39.375C145.957 39.375 145.344 39.186 144.929 38.6158C144.601 38.1639 144.594 37.7298 144.594 37.6328H148.594C148.594 37.3639 148.556 36.8009 148.164 36.2631C147.687 35.6069 146.98 35.375 146.406 35.375V39.375ZM144.594 37.6328V39.8359H148.594V37.6328H144.594ZM144.594 39.8359C144.594 41.3799 145.131 42.77 146.175 43.9075L149.121 41.2019C148.76 40.8082 148.594 40.3857 148.594 39.8359H144.594ZM146.189 43.9226C147.252 45.0557 148.615 45.6797 150.18 45.6797V41.6797C149.775 41.6797 149.451 41.5537 149.108 41.1868L146.189 43.9226ZM150.18 45.6797C151.764 45.6797 153.142 45.0437 154.207 43.8841L151.261 41.1784C150.92 41.5501 150.595 41.6797 150.18 41.6797V45.6797ZM154.221 43.8692C155.242 42.7348 155.789 41.3643 155.789 39.8359H151.789C151.789 40.3388 151.633 40.7652 151.248 41.1933L154.221 43.8692ZM155.789 39.8359C155.789 37.6241 154.297 36.0646 152.484 35.0291L150.5 38.5021C151.75 39.2166 151.789 39.704 151.789 39.8359H155.789ZM152.552 35.0696C152.251 34.8816 151.882 34.6714 151.456 34.4422L149.56 37.9641C149.946 38.1724 150.233 38.3372 150.432 38.4616L152.552 35.0696ZM151.537 34.4881C151.115 34.2348 150.619 33.9546 150.056 33.6485L148.147 37.164C148.677 37.4517 149.12 37.7027 149.479 37.9181L151.537 34.4881ZM150.056 33.6485C149.51 33.3523 148.98 33.0638 148.466 32.7833L146.55 36.2949C147.067 36.5768 147.599 36.8665 148.147 37.164L150.056 33.6485ZM148.506 32.8058C147.979 32.5025 147.467 32.2145 146.969 31.9417L145.046 35.4489C145.517 35.7074 146.005 35.9818 146.51 36.2723L148.506 32.8058ZM147.023 31.9722C145.534 31.0947 144.504 30.0486 143.842 28.8568L140.345 30.7994C141.402 32.7014 142.982 34.2335 144.992 35.4184L147.023 31.9722ZM143.854 28.8778C143.182 27.6333 142.828 26.2148 142.828 24.5781H138.828C138.828 26.8165 139.318 28.8979 140.334 30.7784L143.854 28.8778ZM142.828 24.5781C142.828 23.1413 143.176 21.8955 143.849 20.7899L140.432 18.7101C139.355 20.4795 138.828 22.4524 138.828 24.5781H142.828ZM143.844 20.7982C144.552 19.6475 145.459 18.757 146.577 18.0984L144.548 14.6516C142.854 15.6492 141.479 17.0087 140.437 18.7018L143.844 20.7982ZM146.583 18.095C147.696 17.4349 148.882 17.1094 150.18 17.1094V13.1094C148.165 13.1094 146.273 13.6276 144.542 14.655L146.583 18.095ZM150.18 17.1094C151.535 17.1094 152.743 17.4402 153.847 18.095L155.888 14.655C154.147 13.6223 152.231 13.1094 150.18 13.1094V17.1094ZM153.833 18.0867C154.974 18.7765 155.871 19.6803 156.546 20.8175L159.986 18.7762C158.973 17.0697 157.604 15.6922 155.902 14.6633L153.833 18.0867ZM156.554 20.8314C157.213 21.9214 157.555 23.1534 157.555 24.5781H161.555C161.555 22.4716 161.037 20.5161 159.977 18.7624L156.554 20.8314ZM157.555 24.5781V28.5156H161.555V24.5781H157.555ZM157.555 28.5156C157.555 28.2698 157.617 27.7181 158.094 27.242C158.57 26.7659 159.121 26.7031 159.367 26.7031V30.7031C159.738 30.7031 160.383 30.6091 160.922 30.0705C161.461 29.5319 161.555 28.8864 161.555 28.5156H157.555ZM159.367 26.7031H153.977V30.7031H159.367V26.7031ZM153.977 26.7031C154.222 26.7031 154.774 26.7659 155.25 27.242C155.726 27.7181 155.789 28.2698 155.789 28.5156H151.789C151.789 28.8864 151.883 29.5319 152.422 30.0705C152.96 30.6091 153.606 30.7031 153.977 30.7031V26.7031ZM155.789 28.4918L155.742 24.5543L151.742 24.6019L151.789 28.5394L155.789 28.4918ZM155.742 24.5781C155.742 22.9986 155.23 21.5504 154.102 20.4217L151.273 23.2502C151.551 23.5277 151.742 23.9076 151.742 24.5781H155.742ZM154.102 20.4217C153.035 19.3546 151.694 18.7812 150.18 18.7812V22.7812C150.603 22.7812 150.934 22.911 151.273 23.2502L154.102 20.4217ZM150.18 18.7812C148.615 18.7812 147.252 19.4052 146.189 20.5384L149.108 23.2741C149.451 22.9073 149.775 22.7812 150.18 22.7812V18.7812ZM146.189 20.5384C145.138 21.6603 144.594 23.0405 144.594 24.5781H148.594C148.594 24.0532 148.753 23.6522 149.108 23.2741L146.189 20.5384ZM144.594 24.5781C144.594 25.9007 144.871 27.1656 145.552 28.2597L148.948 26.1465C148.754 25.8344 148.594 25.3493 148.594 24.5781H144.594ZM145.569 28.2865C146.284 29.3965 147.44 30.2661 148.761 30.9789L150.661 27.4586C149.607 26.8902 149.122 26.416 148.931 26.1197L145.569 28.2865ZM148.817 31.0076C148.898 31.0481 149.147 31.1824 149.612 31.4387L151.544 27.9363C151.103 27.6926 150.774 27.5144 150.605 27.4299L148.817 31.0076ZM149.612 31.4387C150.055 31.6829 150.546 31.9592 151.086 32.2677L153.07 28.7948C152.517 28.4783 152.008 28.1921 151.544 27.9363L149.612 31.4387ZM151.145 32.3C151.699 32.5924 152.195 32.8599 152.635 33.1027L154.568 29.6004C154.102 29.3433 153.583 29.0639 153.012 28.7625L151.145 32.3ZM152.683 33.128C153.13 33.3592 153.418 33.5077 153.527 33.5623L155.316 29.9846C155.238 29.9454 154.98 29.8127 154.52 29.5751L152.683 33.128ZM153.446 33.5193C154.819 34.2865 155.839 35.1917 156.565 36.2134L159.825 33.8959C158.708 32.3239 157.212 31.0416 155.398 30.0276L153.446 33.5193ZM156.574 36.2264C157.223 37.1237 157.602 38.2875 157.602 39.8359H161.602C161.602 37.6031 161.042 35.5794 159.816 33.883L156.574 36.2264ZM157.602 39.8359C157.602 41.3433 157.258 42.632 156.606 43.7535L160.066 45.7621C161.102 43.9774 161.602 41.9848 161.602 39.8359H157.602ZM156.614 43.7397C155.922 44.9101 155.02 45.8145 153.893 46.4832L155.935 49.9231C157.652 48.9042 159.031 47.5118 160.057 45.7759L156.614 43.7397ZM153.893 46.4832C152.796 47.1345 151.573 47.4688 150.18 47.4688V51.4688C152.255 51.4688 154.189 50.9593 155.935 49.9231L153.893 46.4832ZM168.775 48.1562L167.727 49.8596L167.735 49.8646L168.775 48.1562ZM165.353 44.6641L163.619 45.6603L163.625 45.6713L163.632 45.6821L165.353 44.6641ZM170.955 42.5547L169.482 43.9075L169.489 43.9151L169.496 43.9226L170.955 42.5547ZM176.041 42.5312L177.514 43.8841L177.52 43.8767L177.527 43.8692L176.041 42.5312ZM174.798 36.7656L173.738 38.4616L173.772 38.4825L173.806 38.5021L174.798 36.7656ZM173.814 36.2031L172.785 37.9181L172.825 37.942L172.866 37.9641L173.814 36.2031ZM170.814 34.5391L169.816 36.2723L169.836 36.2838L169.856 36.2949L170.814 34.5391ZM169.314 33.6953L168.299 35.4184L168.325 35.4341L168.352 35.4489L169.314 33.6953ZM165.4 29.8281L163.64 30.7784L163.646 30.789L163.652 30.7994L165.4 29.8281ZM165.447 19.75L163.744 18.7018L163.738 18.7101L165.447 19.75ZM168.869 16.375L169.884 18.0984L169.889 18.095L168.869 16.375ZM178.173 16.375L179.208 14.6633L179.201 14.6592L179.194 14.655L178.173 16.375ZM181.572 19.7969L179.852 20.8175L179.856 20.8245L179.86 20.8314L181.572 19.7969ZM177.095 28.5156H179.095V28.5037L179.095 28.4918L177.095 28.5156ZM177.048 24.5781H175.048V24.59L175.049 24.6019L177.048 24.5781ZM170.556 27.2031L168.858 28.2597L168.867 28.2732L168.875 28.2865L170.556 27.2031ZM173.017 29.2188L172.068 30.9789L172.095 30.9937L172.123 31.0076L173.017 29.2188ZM175.384 30.5312L174.392 32.2677L174.421 32.2844L174.451 32.3L175.384 30.5312ZM176.908 31.3516L175.942 33.1027L175.965 33.1157L175.989 33.128L176.908 31.3516ZM177.728 31.7734L178.704 30.0276L178.664 30.0051L178.623 29.9846L177.728 31.7734ZM181.502 35.0547L179.871 36.2134L179.876 36.2199L179.881 36.2264L181.502 35.0547ZM181.642 44.7578L183.364 45.7759L183.368 45.769L183.372 45.7621L181.642 44.7578ZM173.486 47.4688C172.145 47.4688 170.935 47.1297 169.815 46.4479L167.735 49.8646C169.49 50.9328 171.421 51.4688 173.486 51.4688V47.4688ZM169.823 46.4529C168.681 45.7502 167.77 44.8227 167.075 43.646L163.632 45.6821C164.655 47.4117 166.025 48.8123 167.727 49.8596L169.823 46.4529ZM167.087 43.6678C166.424 42.5125 166.087 41.2484 166.087 39.8359H162.087C162.087 41.9234 162.595 43.8781 163.619 45.6603L167.087 43.6678ZM166.087 39.8359V37.6328H162.087V39.8359H166.087ZM166.087 37.6328C166.087 37.8105 166.051 38.317 165.626 38.7848C165.168 39.2887 164.604 39.375 164.322 39.375V35.375C163.884 35.375 163.202 35.5043 162.666 36.0941C162.163 36.6478 162.087 37.2832 162.087 37.6328H166.087ZM164.322 39.375H169.712V35.375H164.322V39.375ZM169.712 39.375C169.263 39.375 168.65 39.186 168.236 38.6158C167.907 38.1639 167.9 37.7298 167.9 37.6328H171.9C171.9 37.3639 171.862 36.8009 171.471 36.2631C170.993 35.6069 170.287 35.375 169.712 35.375V39.375ZM167.9 37.6328V39.8359H171.9V37.6328H167.9ZM167.9 39.8359C167.9 41.3799 168.437 42.77 169.482 43.9075L172.428 41.2019C172.066 40.8082 171.9 40.3857 171.9 39.8359H167.9ZM169.496 43.9226C170.558 45.0557 171.922 45.6797 173.486 45.6797V41.6797C173.081 41.6797 172.758 41.5537 172.414 41.1868L169.496 43.9226ZM173.486 45.6797C175.07 45.6797 176.449 45.0437 177.514 43.8841L174.568 41.1784C174.226 41.5501 173.901 41.6797 173.486 41.6797V45.6797ZM177.527 43.8692C178.548 42.7348 179.095 41.3643 179.095 39.8359H175.095C175.095 40.3388 174.939 40.7652 174.554 41.1933L177.527 43.8692ZM179.095 39.8359C179.095 37.6241 177.603 36.0646 175.791 35.0291L173.806 38.5021C175.057 39.2166 175.095 39.704 175.095 39.8359H179.095ZM175.858 35.0696C175.558 34.8816 175.188 34.6714 174.762 34.4422L172.866 37.9641C173.253 38.1724 173.539 38.3372 173.738 38.4616L175.858 35.0696ZM174.843 34.4881C174.421 34.2348 173.926 33.9546 173.362 33.6485L171.454 37.164C171.984 37.4517 172.426 37.7027 172.785 37.9181L174.843 34.4881ZM173.362 33.6485C172.816 33.3523 172.286 33.0638 171.772 32.7833L169.856 36.2949C170.373 36.5768 170.906 36.8665 171.454 37.164L173.362 33.6485ZM171.812 32.8058C171.285 32.5025 170.773 32.2145 170.276 31.9417L168.352 35.4489C168.824 35.7074 169.312 35.9818 169.816 36.2723L171.812 32.8058ZM170.329 31.9722C168.84 31.0947 167.81 30.0486 167.148 28.8568L163.652 30.7994C164.708 32.7014 166.288 34.2335 168.299 35.4184L170.329 31.9722ZM167.16 28.8778C166.488 27.6333 166.134 26.2148 166.134 24.5781H162.134C162.134 26.8165 162.625 28.8979 163.64 30.7784L167.16 28.8778ZM166.134 24.5781C166.134 23.1413 166.482 21.8955 167.155 20.7899L163.738 18.7101C162.661 20.4795 162.134 22.4524 162.134 24.5781H166.134ZM167.15 20.7982C167.858 19.6475 168.765 18.757 169.884 18.0984L167.854 14.6516C166.16 15.6492 164.785 17.0087 163.744 18.7018L167.15 20.7982ZM169.889 18.095C171.002 17.4349 172.188 17.1094 173.486 17.1094V13.1094C171.471 13.1094 169.579 13.6276 167.848 14.655L169.889 18.095ZM173.486 17.1094C174.841 17.1094 176.049 17.4402 177.153 18.095L179.194 14.655C177.454 13.6223 175.537 13.1094 173.486 13.1094V17.1094ZM177.139 18.0867C178.28 18.7765 179.177 19.6803 179.852 20.8175L183.292 18.7762C182.279 17.0697 180.91 15.6922 179.208 14.6633L177.139 18.0867ZM179.86 20.8314C180.519 21.9214 180.861 23.1534 180.861 24.5781H184.861C184.861 22.4716 184.343 20.5161 183.284 18.7624L179.86 20.8314ZM180.861 24.5781V28.5156H184.861V24.5781H180.861ZM180.861 28.5156C180.861 28.2698 180.924 27.7181 181.4 27.242C181.876 26.7659 182.428 26.7031 182.673 26.7031V30.7031C183.044 30.7031 183.69 30.6091 184.228 30.0705C184.767 29.5319 184.861 28.8864 184.861 28.5156H180.861ZM182.673 26.7031H177.283V30.7031H182.673V26.7031ZM177.283 26.7031C177.529 26.7031 178.08 26.7659 178.556 27.242C179.033 27.7181 179.095 28.2698 179.095 28.5156H175.095C175.095 28.8864 175.189 29.5319 175.728 30.0705C176.267 30.6091 176.912 30.7031 177.283 30.7031V26.7031ZM179.095 28.4918L179.048 24.5543L175.049 24.6019L175.095 28.5394L179.095 28.4918ZM179.048 24.5781C179.048 22.9986 178.537 21.5504 177.408 20.4217L174.58 23.2502C174.857 23.5277 175.048 23.9076 175.048 24.5781H179.048ZM177.408 20.4217C176.341 19.3546 175.001 18.7812 173.486 18.7812V22.7812C173.909 22.7812 174.24 22.911 174.58 23.2502L177.408 20.4217ZM173.486 18.7812C171.922 18.7812 170.558 19.4052 169.496 20.5384L172.414 23.2741C172.758 22.9073 173.081 22.7812 173.486 22.7812V18.7812ZM169.496 20.5384C168.444 21.6603 167.9 23.0405 167.9 24.5781H171.9C171.9 24.0532 172.059 23.6522 172.414 23.2741L169.496 20.5384ZM167.9 24.5781C167.9 25.9007 168.177 27.1656 168.858 28.2597L172.254 26.1465C172.06 25.8344 171.9 25.3493 171.9 24.5781H167.9ZM168.875 28.2865C169.59 29.3965 170.746 30.2661 172.068 30.9789L173.967 27.4586C172.913 26.8902 172.428 26.416 172.237 26.1197L168.875 28.2865ZM172.123 31.0076C172.204 31.0481 172.454 31.1824 172.918 31.4387L174.851 27.9363C174.409 27.6926 174.081 27.5144 173.912 27.4299L172.123 31.0076ZM172.918 31.4387C173.361 31.6829 173.852 31.9592 174.392 32.2677L176.377 28.7948C175.823 28.4783 175.314 28.1921 174.851 27.9363L172.918 31.4387ZM174.451 32.3C175.005 32.5924 175.501 32.8599 175.942 33.1027L177.874 29.6004C177.408 29.3433 176.889 29.0639 176.318 28.7625L174.451 32.3ZM175.989 33.128C176.436 33.3592 176.725 33.5077 176.834 33.5623L178.623 29.9846C178.544 29.9454 178.286 29.8127 177.827 29.5751L175.989 33.128ZM176.752 33.5193C178.125 34.2865 179.145 35.1917 179.871 36.2134L183.132 33.8959C182.014 32.3239 180.518 31.0416 178.704 30.0276L176.752 33.5193ZM179.881 36.2264C180.529 37.1237 180.908 38.2875 180.908 39.8359H184.908C184.908 37.6031 184.349 35.5794 183.122 33.883L179.881 36.2264ZM180.908 39.8359C180.908 41.3433 180.564 42.632 179.913 43.7535L183.372 45.7621C184.408 43.9774 184.908 41.9848 184.908 39.8359H180.908ZM179.921 43.7397C179.229 44.9101 178.326 45.8145 177.2 46.4832L179.241 49.9231C180.958 48.9042 182.337 47.5118 183.364 45.7759L179.921 43.7397ZM177.2 46.4832C176.102 47.1345 174.879 47.4688 173.486 47.4688V51.4688C175.561 51.4688 177.495 50.9593 179.241 49.9231L177.2 46.4832Z" fill="url(#paint0_linear_20_36)" mask="url(#path-1-outside-1_20_36)"/>
</g>
<defs>
<linearGradient id="paint0_linear_20_36" x1="14.5" y1="34" x2="170" y2="34" gradientUnits="userSpaceOnUse">
<stop stop-color="#FFBD30"/>
<stop offset="0.335" stop-color="#FF9D39"/>
<stop offset="0.66" stop-color="#FF6749"/>
<stop offset="1" stop-color="#FF4C4F"/>
</linearGradient>
<clipPath id="clip0_20_36">
<rect width="185" height="67" fill="white"/>
</clipPath>
</defs>
</svg>
