<svg width="136" height="54" viewBox="0 0 136 54" fill="none" xmlns="http://www.w3.org/2000/svg">
<g clip-path="url(#clip0_14_33)">
<mask id="path-1-outside-1_14_33" maskUnits="userSpaceOnUse" x="32" y="9" width="73" height="34" fill="black">
<rect fill="white" x="32" y="9" width="73" height="34"/>
<path d="M39.4922 40H35C34.8698 40 34.8047 39.9349 34.8047 39.8047L34.8828 12.3242C34.8828 12.2201 34.9349 12.168 35.0391 12.168H42.7344C45.1823 12.168 47.1159 12.9167 48.5352 14.4141C49.9674 15.8984 50.6836 17.9232 50.6836 20.4883C50.6836 22.3633 50.3125 23.9974 49.5703 25.3906C48.8151 26.7708 47.8385 27.8385 46.6406 28.5938C45.4427 29.349 44.1406 29.7266 42.7344 29.7266H39.6875V39.8047C39.6875 39.9349 39.6224 40 39.4922 40ZM42.7344 16.9141L39.6875 16.9531V24.8828H42.7344C43.5807 24.8828 44.3164 24.4792 44.9414 23.6719C45.5664 22.8516 45.8789 21.7904 45.8789 20.4883C45.8789 19.4466 45.599 18.5938 45.0391 17.9297C44.4792 17.2526 43.7109 16.9141 42.7344 16.9141ZM59.8125 40H55.2812C55.151 40 55.0859 39.9349 55.0859 39.8047L55.125 12.3242C55.125 12.2201 55.1771 12.168 55.2812 12.168H59.7734C59.8776 12.168 59.9297 12.2201 59.9297 12.3242L59.9688 39.8047C59.9688 39.9349 59.9167 40 59.8125 40ZM72.8477 40.3906C71.4023 40.3906 70.0807 40.026 68.8828 39.2969C67.6979 38.5677 66.7539 37.5911 66.0508 36.3672C65.3607 35.1302 65.0156 33.7565 65.0156 32.2461L65.0547 19.7656C65.0547 18.2812 65.3932 16.9401 66.0703 15.7422C66.7474 14.5312 67.6784 13.5612 68.8633 12.832C70.0612 12.0898 71.3893 11.7188 72.8477 11.7188C74.332 11.7188 75.6536 12.0768 76.8125 12.793C77.9844 13.5091 78.9154 14.4792 79.6055 15.7031C80.3086 16.9141 80.6602 18.2682 80.6602 19.7656V21.6016C80.6602 21.7057 80.6081 21.7578 80.5039 21.7578H76.0117C75.9076 21.7578 75.8555 21.7057 75.8555 21.6016V19.7656C75.8555 18.8802 75.569 18.1185 74.9961 17.4805C74.4232 16.8424 73.707 16.5234 72.8477 16.5234C71.8971 16.5234 71.168 16.849 70.6602 17.5C70.1523 18.151 69.8984 18.9062 69.8984 19.7656V32.2461C69.8984 33.2227 70.1849 34.0234 70.7578 34.6484C71.3307 35.2604 72.0273 35.5664 72.8477 35.5664C73.707 35.5664 74.4232 35.2279 74.9961 34.5508C75.569 33.8607 75.8555 33.0924 75.8555 32.2461V30.3906C75.8555 30.2865 75.9076 30.2344 76.0117 30.2344H80.543C80.6471 30.2344 80.6992 30.2865 80.6992 30.3906V32.2461C80.6992 33.7435 80.3477 35.1107 79.6445 36.3477C78.9284 37.5716 77.9844 38.5547 76.8125 39.2969C75.6406 40.026 74.319 40.3906 72.8477 40.3906ZM90.2969 40H85.7656C85.6615 40 85.6094 39.9349 85.6094 39.8047L85.6875 12.3633C85.6875 12.2331 85.7396 12.168 85.8438 12.168H90.3359C90.4401 12.168 90.4922 12.2331 90.4922 12.3633V21.8359L96.7617 12.3242C96.8659 12.2201 96.9635 12.168 97.0547 12.168H101.645C101.762 12.168 101.788 12.2201 101.723 12.3242L94.8086 23.3594L102.562 39.8438C102.628 39.9479 102.562 40 102.367 40H97.4844C97.3542 40 97.276 39.9479 97.25 39.8438L91.8398 28.0859L90.4531 30.2734V39.8047C90.4531 39.9349 90.401 40 90.2969 40Z"/>
</mask>
<path d="M34.8047 39.8047L32.8047 39.799V39.8047H34.8047ZM34.8828 12.3242L36.8828 12.3299V12.3242H34.8828ZM48.5352 14.4141L47.0836 15.7899L47.0897 15.7964L47.0959 15.8028L48.5352 14.4141ZM49.5703 25.3906L51.3248 26.3506L51.3302 26.3408L51.3355 26.3309L49.5703 25.3906ZM39.6875 29.7266V27.7266H37.6875V29.7266H39.6875ZM42.7344 16.9141V14.9141H42.7216L42.7087 14.9142L42.7344 16.9141ZM39.6875 16.9531L39.6619 14.9533L37.6875 14.9786V16.9531H39.6875ZM39.6875 24.8828H37.6875V26.8828H39.6875V24.8828ZM44.9414 23.6719L46.5229 24.8962L46.5276 24.8901L46.5323 24.884L44.9414 23.6719ZM45.0391 17.9297L43.4978 19.2042L43.5039 19.2116L43.51 19.2189L45.0391 17.9297ZM39.4922 38H35V42H39.4922V38ZM35 38C35.2432 38 35.7929 38.0622 36.2677 38.537C36.7425 39.0118 36.8047 39.5615 36.8047 39.8047H32.8047C32.8047 40.1781 32.8994 40.8255 33.4393 41.3654C33.9792 41.9053 34.6266 42 35 42V38ZM36.8047 39.8104L36.8828 12.3299L32.8828 12.3185L32.8047 39.799L36.8047 39.8104ZM36.8828 12.3242C36.8828 12.5804 36.8174 13.1399 36.3361 13.6212C35.8548 14.1026 35.2953 14.168 35.0391 14.168V10.168C34.6787 10.168 34.0411 10.2594 33.5077 10.7928C32.9743 11.3262 32.8828 11.9638 32.8828 12.3242H36.8828ZM35.0391 14.168H42.7344V10.168H35.0391V14.168ZM42.7344 14.168C44.7442 14.168 46.1121 14.7649 47.0836 15.7899L49.9867 13.0382C48.1197 11.0684 45.6204 10.168 42.7344 10.168V14.168ZM47.0959 15.8028C48.0858 16.8287 48.6836 18.3085 48.6836 20.4883H52.6836C52.6836 17.5379 51.8491 14.9682 49.9744 13.0253L47.0959 15.8028ZM48.6836 20.4883C48.6836 22.0968 48.3666 23.3963 47.8052 24.4503L51.3355 26.3309C52.2584 24.5985 52.6836 22.6298 52.6836 20.4883H48.6836ZM47.8158 24.4306C47.2054 25.5462 46.4532 26.3477 45.574 26.9019L47.7072 30.2856C49.2239 29.3294 50.4248 27.9955 51.3248 26.3506L47.8158 24.4306ZM45.574 26.9019C44.6931 27.4573 43.7603 27.7266 42.7344 27.7266V31.7266C44.5209 31.7266 46.1924 31.2406 47.7072 30.2856L45.574 26.9019ZM42.7344 27.7266H39.6875V31.7266H42.7344V27.7266ZM37.6875 29.7266V39.8047H41.6875V29.7266H37.6875ZM37.6875 39.8047C37.6875 39.5615 37.7497 39.0118 38.2245 38.537C38.6993 38.0622 39.249 38 39.4922 38V42C39.8656 42 40.513 41.9053 41.0529 41.3654C41.5928 40.8255 41.6875 40.1781 41.6875 39.8047H37.6875ZM42.7087 14.9142L39.6619 14.9533L39.7131 18.953L42.76 18.9139L42.7087 14.9142ZM37.6875 16.9531V24.8828H41.6875V16.9531H37.6875ZM39.6875 26.8828H42.7344V22.8828H39.6875V26.8828ZM42.7344 26.8828C44.3292 26.8828 45.6063 26.0802 46.5229 24.8962L43.36 22.4475C43.0266 22.8782 42.8323 22.8828 42.7344 22.8828V26.8828ZM46.5323 24.884C47.4856 23.6328 47.8789 22.1117 47.8789 20.4883H43.8789C43.8789 21.469 43.6472 22.0704 43.3505 22.4598L46.5323 24.884ZM47.8789 20.4883C47.8789 19.0729 47.4899 17.7338 46.5681 16.6405L43.51 19.2189C43.708 19.4537 43.8789 19.8203 43.8789 20.4883H47.8789ZM46.5804 16.6552C45.5951 15.4637 44.232 14.9141 42.7344 14.9141V18.9141C43.1899 18.9141 43.3633 19.0416 43.4978 19.2042L46.5804 16.6552ZM55.0859 39.8047L53.0859 39.8018V39.8047H55.0859ZM55.125 12.3242L57.125 12.3271V12.3242H55.125ZM59.9297 12.3242L57.9297 12.3242L57.9297 12.3271L59.9297 12.3242ZM59.9688 39.8047L61.9688 39.8047L61.9687 39.8018L59.9688 39.8047ZM59.8125 38H55.2812V42H59.8125V38ZM55.2812 38C55.5244 38 56.0742 38.0622 56.549 38.537C57.0238 39.0118 57.0859 39.5615 57.0859 39.8047H53.0859C53.0859 40.1781 53.1806 40.8255 53.7206 41.3654C54.2605 41.9053 54.9079 42 55.2812 42V38ZM57.0859 39.8075L57.125 12.3271L53.125 12.3214L53.0859 39.8018L57.0859 39.8075ZM57.125 12.3242C57.125 12.5804 57.0596 13.1399 56.5783 13.6212C56.097 14.1026 55.5375 14.168 55.2812 14.168V10.168C54.9209 10.168 54.2833 10.2594 53.7498 10.7928C53.2164 11.3262 53.125 11.9638 53.125 12.3242H57.125ZM55.2812 14.168H59.7734V10.168H55.2812V14.168ZM59.7734 14.168C59.5172 14.168 58.9577 14.1026 58.4764 13.6212C57.9951 13.1399 57.9297 12.5804 57.9297 12.3242H61.9297C61.9297 11.9638 61.8382 11.3262 61.3048 10.7928C60.7714 10.2594 60.1338 10.168 59.7734 10.168V14.168ZM57.9297 12.3271L57.9688 39.8075L61.9687 39.8018L61.9297 12.3214L57.9297 12.3271ZM57.9688 39.8047C57.9688 39.6561 57.9897 39.1746 58.3679 38.7018C58.8144 38.1438 59.4232 38 59.8125 38V42C60.306 42 60.9929 41.8237 61.4914 41.2006C61.9217 40.6627 61.9688 40.0835 61.9688 39.8047H57.9688ZM68.8828 39.2969L67.8346 41.0002L67.8429 41.0053L68.8828 39.2969ZM66.0508 36.3672L64.3042 37.3416L64.3103 37.3526L64.3166 37.3634L66.0508 36.3672ZM65.0156 32.2461L63.0156 32.2398V32.2461H65.0156ZM65.0547 19.7656L67.0547 19.7719V19.7656H65.0547ZM66.0703 15.7422L67.8115 16.7263L67.816 16.7183L66.0703 15.7422ZM68.8633 12.832L69.9115 14.5354L69.9166 14.5322L68.8633 12.832ZM76.8125 12.793L75.7611 14.4943L75.7696 14.4995L76.8125 12.793ZM79.6055 15.7031L77.8633 16.6854L77.8695 16.6964L77.8759 16.7074L79.6055 15.7031ZM70.7578 34.6484L69.2835 35.9999L69.2906 36.0076L69.2978 36.0153L70.7578 34.6484ZM74.9961 34.5508L76.5229 35.8427L76.5289 35.8355L76.5349 35.8283L74.9961 34.5508ZM79.6445 36.3477L81.3708 37.3577L81.3771 37.3469L81.3833 37.336L79.6445 36.3477ZM76.8125 39.2969L77.8691 40.995L77.8759 40.9908L77.8826 40.9865L76.8125 39.2969ZM72.8477 38.3906C71.7574 38.3906 70.7974 38.1209 69.9227 37.5885L67.8429 41.0053C69.3641 41.9312 71.0473 42.3906 72.8477 42.3906V38.3906ZM69.931 37.5936C69.0345 37.0418 68.3245 36.3101 67.785 35.3709L64.3166 37.3634C65.1833 38.8722 66.3614 40.0936 67.8346 41.0002L69.931 37.5936ZM67.7974 35.3928C67.2845 34.4734 67.0156 33.4388 67.0156 32.2461H63.0156C63.0156 34.0742 63.4369 35.787 64.3042 37.3416L67.7974 35.3928ZM67.0156 32.2524L67.0547 19.7719L63.0547 19.7594L63.0156 32.2398L67.0156 32.2524ZM67.0547 19.7656C67.0547 18.5981 67.3173 17.6005 67.8114 16.7263L64.3292 14.7581C63.4691 16.2797 63.0547 17.9644 63.0547 19.7656H67.0547ZM67.816 16.7183C68.3259 15.8062 69.0165 15.0861 69.9115 14.5353L67.8151 11.1287C66.3403 12.0363 65.1688 13.2563 64.3247 14.7661L67.816 16.7183ZM69.9166 14.5322C70.7868 13.9931 71.7479 13.7188 72.8477 13.7188V9.71875C71.0308 9.71875 69.3356 10.1866 67.8099 11.1319L69.9166 14.5322ZM72.8477 13.7188C73.9951 13.7188 74.9463 13.9908 75.7611 14.4943L77.8639 11.0916C76.361 10.1629 74.6689 9.71875 72.8477 9.71875V13.7188ZM75.7696 14.4995C76.6435 15.0336 77.3367 15.7514 77.8633 16.6854L81.3476 14.7208C80.4941 13.207 79.3252 11.9846 77.8554 11.0864L75.7696 14.4995ZM77.8759 16.7074C78.3896 17.5921 78.6602 18.5956 78.6602 19.7656H82.6602C82.6602 17.9408 82.2276 16.236 81.335 14.6989L77.8759 16.7074ZM78.6602 19.7656V21.6016H82.6602V19.7656H78.6602ZM78.6602 21.6016C78.6602 21.3454 78.7256 20.7859 79.2069 20.3045C79.6882 19.8232 80.2477 19.7578 80.5039 19.7578V23.7578C80.8643 23.7578 81.5019 23.6664 82.0353 23.133C82.5687 22.5996 82.6602 21.9619 82.6602 21.6016H78.6602ZM80.5039 19.7578H76.0117V23.7578H80.5039V19.7578ZM76.0117 19.7578C76.2679 19.7578 76.8274 19.8232 77.3087 20.3045C77.7901 20.7859 77.8555 21.3454 77.8555 21.6016H73.8555C73.8555 21.9619 73.9469 22.5996 74.4803 23.133C75.0137 23.6664 75.6513 23.7578 76.0117 23.7578V19.7578ZM77.8555 21.6016V19.7656H73.8555V21.6016H77.8555ZM77.8555 19.7656C77.8555 18.4046 77.3983 17.1622 76.4842 16.1442L73.508 18.8167C73.7397 19.0748 73.8555 19.3559 73.8555 19.7656H77.8555ZM76.4842 16.1442C75.531 15.0827 74.2734 14.5234 72.8477 14.5234V18.5234C73.1407 18.5234 73.3154 18.6022 73.508 18.8167L76.4842 16.1442ZM72.8477 14.5234C71.3863 14.5234 70.0304 15.0556 69.0832 16.2699L72.2372 18.7301C72.3056 18.6423 72.408 18.5234 72.8477 18.5234V14.5234ZM69.0832 16.2699C68.2894 17.2876 67.8984 18.4801 67.8984 19.7656H71.8984C71.8984 19.3324 72.0153 19.0145 72.2372 18.7301L69.0832 16.2699ZM67.8984 19.7656V32.2461H71.8984V19.7656H67.8984ZM67.8984 32.2461C67.8984 33.6418 68.3213 34.9502 69.2835 35.9999L72.2321 33.297C72.0485 33.0967 71.8984 32.8035 71.8984 32.2461H67.8984ZM69.2978 36.0153C70.2394 37.0212 71.4604 37.5664 72.8477 37.5664V33.5664C72.5943 33.5664 72.422 33.4997 72.2179 33.2816L69.2978 36.0153ZM72.8477 37.5664C74.3167 37.5664 75.584 36.9523 76.5229 35.8427L73.4693 33.2589C73.2624 33.5034 73.0974 33.5664 72.8477 33.5664V37.5664ZM76.5349 35.8283C77.3866 34.8024 77.8555 33.5883 77.8555 32.2461H73.8555C73.8555 32.5966 73.7514 32.919 73.4573 33.2733L76.5349 35.8283ZM77.8555 32.2461V30.3906H73.8555V32.2461H77.8555ZM77.8555 30.3906C77.8555 30.6468 77.7901 31.2063 77.3087 31.6877C76.8274 32.169 76.2679 32.2344 76.0117 32.2344V28.2344C75.6513 28.2344 75.0137 28.3258 74.4803 28.8592C73.9469 29.3926 73.8555 30.0303 73.8555 30.3906H77.8555ZM76.0117 32.2344H80.543V28.2344H76.0117V32.2344ZM80.543 32.2344C80.2868 32.2344 79.7273 32.169 79.2459 31.6877C78.7646 31.2063 78.6992 30.6468 78.6992 30.3906H82.6992C82.6992 30.0303 82.6078 29.3926 82.0744 28.8592C81.541 28.3258 80.9033 28.2344 80.543 28.2344V32.2344ZM78.6992 30.3906V32.2461H82.6992V30.3906H78.6992ZM78.6992 32.2461C78.6992 33.4158 78.4286 34.4396 77.9058 35.3593L81.3833 37.336C82.2667 35.7818 82.6992 34.0712 82.6992 32.2461H78.6992ZM77.9183 35.3376C77.3597 36.2923 76.6383 37.0399 75.7424 37.6072L77.8826 40.9865C79.3305 40.0695 80.497 38.8509 81.3708 37.3577L77.9183 35.3376ZM75.7559 37.5988C74.9223 38.1175 73.9713 38.3906 72.8477 38.3906V42.3906C74.6668 42.3906 76.359 41.9346 77.8691 40.995L75.7559 37.5988ZM85.6094 39.8047L83.6094 39.799V39.8047H85.6094ZM85.6875 12.3633L87.6875 12.369V12.3633H85.6875ZM90.4922 21.8359H88.4922V28.5043L92.1621 22.9366L90.4922 21.8359ZM96.7617 12.3242L95.3475 10.91L95.2037 11.0538L95.0918 11.2235L96.7617 12.3242ZM101.723 12.3242L103.417 13.3861L103.419 13.3842L101.723 12.3242ZM94.8086 23.3594L93.1138 22.2975L92.5341 23.2227L92.9988 24.2107L94.8086 23.3594ZM102.562 39.8438L100.753 40.695L100.803 40.8028L100.867 40.9037L102.562 39.8438ZM97.25 39.8438L99.1903 39.3587L99.145 39.1774L99.0669 39.0077L97.25 39.8438ZM91.8398 28.0859L93.6567 27.2499L92.1196 23.9092L90.1507 27.0151L91.8398 28.0859ZM90.4531 30.2734L88.7639 29.2026L88.4531 29.6929V30.2734H90.4531ZM90.2969 38H85.7656V42H90.2969V38ZM85.7656 38C86.155 38 86.7638 38.1438 87.2102 38.7018C87.5884 39.1746 87.6094 39.6561 87.6094 39.8047H83.6094C83.6094 40.0835 83.6564 40.6627 84.0867 41.2006C84.5852 41.8237 85.2721 42 85.7656 42V38ZM87.6094 39.8104L87.6875 12.369L83.6875 12.3576L83.6094 39.799L87.6094 39.8104ZM87.6875 12.3633C87.6875 12.5119 87.6665 12.9934 87.2883 13.4662C86.8419 14.0242 86.2331 14.168 85.8438 14.168V10.168C85.3503 10.168 84.6633 10.3443 84.1648 10.9674C83.7345 11.5053 83.6875 12.0845 83.6875 12.3633H87.6875ZM85.8438 14.168H90.3359V10.168H85.8438V14.168ZM90.3359 14.168C89.9466 14.168 89.3378 14.0242 88.8914 13.4662C88.5132 12.9934 88.4922 12.5119 88.4922 12.3633H92.4922C92.4922 12.0845 92.4452 11.5053 92.0149 10.9674C91.5164 10.3443 90.8294 10.168 90.3359 10.168V14.168ZM88.4922 12.3633V21.8359H92.4922V12.3633H88.4922ZM92.1621 22.9366L98.4316 13.4249L95.0918 11.2235L88.8223 20.7353L92.1621 22.9366ZM98.1759 13.7384C98.1265 13.7879 97.7413 14.168 97.0547 14.168V10.168C96.1858 10.168 95.6053 10.6522 95.3475 10.91L98.1759 13.7384ZM97.0547 14.168H101.645V10.168H97.0547V14.168ZM101.645 14.168C101.552 14.168 101.318 14.1613 101.032 14.0573C100.722 13.9446 100.249 13.6736 99.9631 13.1015C99.6867 12.5487 99.7474 12.0376 99.8141 11.7708C99.8793 11.5099 99.9838 11.3328 100.027 11.2642L103.419 13.3842C103.494 13.2636 103.62 13.0409 103.695 12.7409C103.771 12.4351 103.83 11.8914 103.541 11.3126C103.242 10.7144 102.745 10.4239 102.399 10.2981C102.077 10.1811 101.795 10.168 101.645 10.168V14.168ZM100.028 11.2623L93.1138 22.2975L96.5034 24.4213L103.417 13.3861L100.028 11.2623ZM92.9988 24.2107L100.753 40.695L104.372 38.9925L96.6184 22.5081L92.9988 24.2107ZM100.867 40.9037C100.788 40.7784 100.587 40.4244 100.587 39.9121C100.587 39.2786 100.892 38.7364 101.313 38.3992C101.652 38.1281 101.983 38.052 102.097 38.0291C102.238 38.0008 102.34 38 102.367 38V42C102.492 42 102.675 41.9927 102.881 41.9514C103.061 41.9155 103.441 41.8198 103.812 41.5227C104.266 41.1594 104.587 40.5847 104.587 39.9121C104.587 39.3607 104.369 38.9612 104.258 38.7838L100.867 40.9037ZM102.367 38H97.4844V42H102.367V38ZM97.4844 38C97.6665 38 98.0436 38.0343 98.4375 38.2968C98.8719 38.5864 99.1012 39.0023 99.1903 39.3587L95.3097 40.3288C95.4249 40.7894 95.7062 41.2833 96.2187 41.625C96.6907 41.9397 97.172 42 97.4844 42V38ZM99.0669 39.0077L93.6567 27.2499L90.023 28.9219L95.4331 40.6798L99.0669 39.0077ZM90.1507 27.0151L88.7639 29.2026L92.1423 31.3443L93.529 29.1568L90.1507 27.0151ZM88.4531 30.2734V39.8047H92.4531V30.2734H88.4531ZM88.4531 39.8047C88.4531 39.6561 88.4741 39.1746 88.8523 38.7018C89.2987 38.1438 89.9075 38 90.2969 38V42C90.7904 42 91.4773 41.8237 91.9758 41.2006C92.4061 40.6627 92.4531 40.0835 92.4531 39.8047H88.4531Z" fill="white" mask="url(#path-1-outside-1_14_33)"/>
</g>
<defs>
<clipPath id="clip0_14_33">
<rect width="136" height="54" fill="white"/>
</clipPath>
</defs>
</svg>
