<svg width="185" height="67" viewBox="0 0 185 67" fill="none" xmlns="http://www.w3.org/2000/svg">
<g clip-path="url(#clip0_20_32)">
<mask id="path-1-outside-1_20_32" maskUnits="userSpaceOnUse" x="15" y="13" width="153" height="39" fill="black">
<rect fill="white" x="15" y="13" width="153" height="39"/>
<path d="M30.4328 49H24.6203C24.4797 49 24.4016 48.9219 24.3859 48.7656L17.7531 15.7891C17.7219 15.6641 17.7844 15.6016 17.9406 15.6016H23.3781C23.5031 15.6016 23.5813 15.6641 23.6125 15.7891L27.55 37.7734L31.3938 15.7891C31.425 15.6641 31.5031 15.6016 31.6281 15.6016H36.9953C37.1672 15.6016 37.2297 15.6641 37.1828 15.7891L30.6672 48.7656C30.6516 48.9219 30.5734 49 30.4328 49ZM58.0984 49H42.5828C42.4578 49 42.3953 48.9219 42.3953 48.7656L42.4422 15.7891C42.4422 15.6641 42.5047 15.6016 42.6297 15.6016H58.0516C58.1766 15.6016 58.2391 15.6797 58.2391 15.8359V21.2031C58.2391 21.3281 58.1766 21.3906 58.0516 21.3906H48.2078V28.8906H58.0516C58.1766 28.8906 58.2391 28.9531 58.2391 29.0781L58.2859 34.5156C58.2859 34.6406 58.2234 34.7031 58.0984 34.7031H48.2078V43.0938H58.0984C58.2234 43.0938 58.2859 43.1719 58.2859 43.3281V48.8125C58.2859 48.9375 58.2234 49 58.0984 49ZM70.5766 49H65.1391C65.0141 49 64.9516 48.9219 64.9516 48.7656L65.0453 15.7891C65.0453 15.6641 65.1078 15.6016 65.2328 15.6016H74.9359C76.6703 15.6016 78.2641 16.0234 79.7172 16.8672C81.1703 17.7109 82.3266 18.8438 83.1859 20.2656C84.0609 21.6875 84.4984 23.2969 84.4984 25.0938C84.4984 26.2656 84.3188 27.3281 83.9594 28.2812C83.6 29.2344 83.1781 30.0391 82.6938 30.6953C82.225 31.3516 81.7953 31.8359 81.4047 32.1484C83.1391 34.0703 84.0063 36.3281 84.0063 38.9219L84.0531 48.7656C84.0531 48.9219 83.975 49 83.8188 49H78.3813C78.2563 49 78.1938 48.9531 78.1938 48.8594V38.9219C78.1938 37.7656 77.7875 36.7656 76.975 35.9219C76.1625 35.0781 75.1625 34.6562 73.975 34.6562H70.8109L70.7641 48.7656C70.7641 48.9219 70.7016 49 70.5766 49ZM74.9359 21.3438H70.8109V28.8906H74.9359C75.9203 28.8906 76.7953 28.5234 77.5609 27.7891C78.3422 27.0547 78.7328 26.1562 78.7328 25.0938C78.7328 24.0781 78.3578 23.2031 77.6078 22.4688C76.8578 21.7188 75.9672 21.3438 74.9359 21.3438ZM99.7656 49H94.3516C94.2109 49 94.1406 48.9219 94.1406 48.7656V21.3906H87.9062C87.75 21.3906 87.6719 21.3125 87.6719 21.1562L87.7188 15.7891C87.7188 15.6641 87.7812 15.6016 87.9062 15.6016H106.141C106.312 15.6016 106.398 15.6641 106.398 15.7891V21.1562C106.398 21.3125 106.336 21.3906 106.211 21.3906H99.9062L99.9531 48.7656C99.9531 48.9219 99.8906 49 99.7656 49ZM116.814 49H111.377C111.22 49 111.142 48.9219 111.142 48.7656L111.189 15.7891C111.189 15.6641 111.252 15.6016 111.377 15.6016H116.767C116.892 15.6016 116.955 15.6641 116.955 15.7891L117.002 48.7656C117.002 48.9219 116.939 49 116.814 49ZM132.409 49.4688C130.675 49.4688 129.113 49.0391 127.722 48.1797C126.316 47.3203 125.183 46.1641 124.323 44.7109C123.48 43.2578 123.058 41.6328 123.058 39.8359V24.625C123.058 22.875 123.488 21.2812 124.347 19.8438C125.191 18.3906 126.323 17.2344 127.745 16.375C129.167 15.5 130.722 15.0625 132.409 15.0625C134.175 15.0625 135.769 15.4844 137.191 16.3281C138.613 17.1875 139.738 18.3359 140.566 19.7734C141.409 21.2109 141.831 22.8281 141.831 24.625V26.8281C141.831 26.9531 141.753 27.0156 141.597 27.0156H136.206C136.081 27.0156 136.019 26.9531 136.019 26.8281V25C136.019 23.7812 135.675 22.7734 134.988 21.9766C134.3 21.1797 133.441 20.7812 132.409 20.7812C131.488 20.7812 130.667 21.1641 129.948 21.9297C129.23 22.6953 128.87 23.5938 128.87 24.625V39.8359C128.87 40.8828 129.222 41.7891 129.925 42.5547C130.628 43.3047 131.456 43.6797 132.409 43.6797C133.441 43.6797 134.3 43.3125 134.988 42.5781C135.675 41.8281 136.019 40.9141 136.019 39.8359V37.4688H132.667C132.495 37.4688 132.409 37.3906 132.409 37.2344V31.8672C132.409 31.7109 132.495 31.6328 132.667 31.6328H141.644C141.769 31.6328 141.831 31.7109 141.831 31.8672V39.8359C141.831 41.6328 141.409 43.2578 140.566 44.7109C139.706 46.1641 138.573 47.3203 137.167 48.1797C135.761 49.0391 134.175 49.4688 132.409 49.4688ZM156.512 49.4688C154.809 49.4688 153.239 49.0312 151.802 48.1562C150.38 47.2812 149.231 46.1172 148.356 44.6641C147.497 43.1953 147.067 41.5859 147.067 39.8359L147.114 24.625C147.114 22.8438 147.544 21.2422 148.403 19.8203C149.247 18.3828 150.387 17.2344 151.825 16.375C153.262 15.5 154.825 15.0625 156.512 15.0625C158.262 15.0625 159.833 15.4922 161.223 16.3516C162.63 17.2109 163.755 18.3672 164.598 19.8203C165.458 21.2578 165.887 22.8594 165.887 24.625L165.934 39.8359C165.934 41.5859 165.512 43.1875 164.669 44.6406C163.809 46.1094 162.669 47.2812 161.247 48.1562C159.825 49.0312 158.247 49.4688 156.512 49.4688ZM156.512 43.6797C157.481 43.6797 158.325 43.2891 159.044 42.5078C159.762 41.7109 160.122 40.8203 160.122 39.8359L160.075 24.625C160.075 23.5625 159.739 22.6641 159.067 21.9297C158.395 21.1953 157.544 20.8281 156.512 20.8281C155.528 20.8281 154.684 21.1875 153.981 21.9062C153.278 22.625 152.927 23.5312 152.927 24.625V39.8359C152.927 40.8828 153.278 41.7891 153.981 42.5547C154.684 43.3047 155.528 43.6797 156.512 43.6797Z"/>
</mask>
<path d="M30.4328 49H24.6203C24.4797 49 24.4016 48.9219 24.3859 48.7656L17.7531 15.7891C17.7219 15.6641 17.7844 15.6016 17.9406 15.6016H23.3781C23.5031 15.6016 23.5813 15.6641 23.6125 15.7891L27.55 37.7734L31.3938 15.7891C31.425 15.6641 31.5031 15.6016 31.6281 15.6016H36.9953C37.1672 15.6016 37.2297 15.6641 37.1828 15.7891L30.6672 48.7656C30.6516 48.9219 30.5734 49 30.4328 49ZM58.0984 49H42.5828C42.4578 49 42.3953 48.9219 42.3953 48.7656L42.4422 15.7891C42.4422 15.6641 42.5047 15.6016 42.6297 15.6016H58.0516C58.1766 15.6016 58.2391 15.6797 58.2391 15.8359V21.2031C58.2391 21.3281 58.1766 21.3906 58.0516 21.3906H48.2078V28.8906H58.0516C58.1766 28.8906 58.2391 28.9531 58.2391 29.0781L58.2859 34.5156C58.2859 34.6406 58.2234 34.7031 58.0984 34.7031H48.2078V43.0938H58.0984C58.2234 43.0938 58.2859 43.1719 58.2859 43.3281V48.8125C58.2859 48.9375 58.2234 49 58.0984 49ZM70.5766 49H65.1391C65.0141 49 64.9516 48.9219 64.9516 48.7656L65.0453 15.7891C65.0453 15.6641 65.1078 15.6016 65.2328 15.6016H74.9359C76.6703 15.6016 78.2641 16.0234 79.7172 16.8672C81.1703 17.7109 82.3266 18.8438 83.1859 20.2656C84.0609 21.6875 84.4984 23.2969 84.4984 25.0938C84.4984 26.2656 84.3188 27.3281 83.9594 28.2812C83.6 29.2344 83.1781 30.0391 82.6938 30.6953C82.225 31.3516 81.7953 31.8359 81.4047 32.1484C83.1391 34.0703 84.0063 36.3281 84.0063 38.9219L84.0531 48.7656C84.0531 48.9219 83.975 49 83.8188 49H78.3813C78.2563 49 78.1938 48.9531 78.1938 48.8594V38.9219C78.1938 37.7656 77.7875 36.7656 76.975 35.9219C76.1625 35.0781 75.1625 34.6562 73.975 34.6562H70.8109L70.7641 48.7656C70.7641 48.9219 70.7016 49 70.5766 49ZM74.9359 21.3438H70.8109V28.8906H74.9359C75.9203 28.8906 76.7953 28.5234 77.5609 27.7891C78.3422 27.0547 78.7328 26.1562 78.7328 25.0938C78.7328 24.0781 78.3578 23.2031 77.6078 22.4688C76.8578 21.7188 75.9672 21.3438 74.9359 21.3438ZM99.7656 49H94.3516C94.2109 49 94.1406 48.9219 94.1406 48.7656V21.3906H87.9062C87.75 21.3906 87.6719 21.3125 87.6719 21.1562L87.7188 15.7891C87.7188 15.6641 87.7812 15.6016 87.9062 15.6016H106.141C106.312 15.6016 106.398 15.6641 106.398 15.7891V21.1562C106.398 21.3125 106.336 21.3906 106.211 21.3906H99.9062L99.9531 48.7656C99.9531 48.9219 99.8906 49 99.7656 49ZM116.814 49H111.377C111.22 49 111.142 48.9219 111.142 48.7656L111.189 15.7891C111.189 15.6641 111.252 15.6016 111.377 15.6016H116.767C116.892 15.6016 116.955 15.6641 116.955 15.7891L117.002 48.7656C117.002 48.9219 116.939 49 116.814 49ZM132.409 49.4688C130.675 49.4688 129.113 49.0391 127.722 48.1797C126.316 47.3203 125.183 46.1641 124.323 44.7109C123.48 43.2578 123.058 41.6328 123.058 39.8359V24.625C123.058 22.875 123.488 21.2812 124.347 19.8438C125.191 18.3906 126.323 17.2344 127.745 16.375C129.167 15.5 130.722 15.0625 132.409 15.0625C134.175 15.0625 135.769 15.4844 137.191 16.3281C138.613 17.1875 139.738 18.3359 140.566 19.7734C141.409 21.2109 141.831 22.8281 141.831 24.625V26.8281C141.831 26.9531 141.753 27.0156 141.597 27.0156H136.206C136.081 27.0156 136.019 26.9531 136.019 26.8281V25C136.019 23.7812 135.675 22.7734 134.988 21.9766C134.3 21.1797 133.441 20.7812 132.409 20.7812C131.488 20.7812 130.667 21.1641 129.948 21.9297C129.23 22.6953 128.87 23.5938 128.87 24.625V39.8359C128.87 40.8828 129.222 41.7891 129.925 42.5547C130.628 43.3047 131.456 43.6797 132.409 43.6797C133.441 43.6797 134.3 43.3125 134.988 42.5781C135.675 41.8281 136.019 40.9141 136.019 39.8359V37.4688H132.667C132.495 37.4688 132.409 37.3906 132.409 37.2344V31.8672C132.409 31.7109 132.495 31.6328 132.667 31.6328H141.644C141.769 31.6328 141.831 31.7109 141.831 31.8672V39.8359C141.831 41.6328 141.409 43.2578 140.566 44.7109C139.706 46.1641 138.573 47.3203 137.167 48.1797C135.761 49.0391 134.175 49.4688 132.409 49.4688ZM156.512 49.4688C154.809 49.4688 153.239 49.0312 151.802 48.1562C150.38 47.2812 149.231 46.1172 148.356 44.6641C147.497 43.1953 147.067 41.5859 147.067 39.8359L147.114 24.625C147.114 22.8438 147.544 21.2422 148.403 19.8203C149.247 18.3828 150.387 17.2344 151.825 16.375C153.262 15.5 154.825 15.0625 156.512 15.0625C158.262 15.0625 159.833 15.4922 161.223 16.3516C162.63 17.2109 163.755 18.3672 164.598 19.8203C165.458 21.2578 165.887 22.8594 165.887 24.625L165.934 39.8359C165.934 41.5859 165.512 43.1875 164.669 44.6406C163.809 46.1094 162.669 47.2812 161.247 48.1562C159.825 49.0312 158.247 49.4688 156.512 49.4688ZM156.512 43.6797C157.481 43.6797 158.325 43.2891 159.044 42.5078C159.762 41.7109 160.122 40.8203 160.122 39.8359L160.075 24.625C160.075 23.5625 159.739 22.6641 159.067 21.9297C158.395 21.1953 157.544 20.8281 156.512 20.8281C155.528 20.8281 154.684 21.1875 153.981 21.9062C153.278 22.625 152.927 23.5312 152.927 24.625V39.8359C152.927 40.8828 153.278 41.7891 153.981 42.5547C154.684 43.3047 155.528 43.6797 156.512 43.6797Z" fill="black" fill-opacity="0.6"/>
<path d="M24.3859 48.7656L26.376 48.5666L26.3662 48.4682L26.3467 48.3712L24.3859 48.7656ZM17.7531 15.7891L19.7139 15.3947L19.7047 15.3491L19.6934 15.304L17.7531 15.7891ZM23.6125 15.7891L25.5812 15.4365L25.5692 15.3697L25.5528 15.304L23.6125 15.7891ZM27.55 37.7734L25.5813 38.126L29.5201 38.1179L27.55 37.7734ZM31.3938 15.7891L29.4535 15.304L29.436 15.3738L29.4236 15.4446L31.3938 15.7891ZM37.1828 15.7891L35.3102 15.0868L35.2525 15.2404L35.2207 15.4014L37.1828 15.7891ZM30.6672 48.7656L28.7051 48.378L28.6866 48.4716L28.6771 48.5666L30.6672 48.7656ZM30.4328 47H24.6203V51H30.4328V47ZM24.6203 47C24.9285 47 25.4392 47.0959 25.8705 47.5272C26.2712 47.9279 26.3569 48.3752 26.376 48.5666L22.3959 48.9646C22.4306 49.3123 22.5632 49.8768 23.042 50.3556C23.5514 50.865 24.1715 51 24.6203 51V47ZM26.3467 48.3712L19.7139 15.3947L15.7924 16.1834L22.4252 49.16L26.3467 48.3712ZM19.6934 15.304C19.763 15.5823 19.8624 16.391 19.1908 17.0627C18.6462 17.6072 18.0179 17.6016 17.9406 17.6016V13.6016C17.7071 13.6016 16.9694 13.6271 16.3624 14.2342C15.6282 14.9684 15.712 15.8708 15.8128 16.2741L19.6934 15.304ZM17.9406 17.6016H23.3781V13.6016H17.9406V17.6016ZM23.3781 17.6016C23.1024 17.6016 22.6776 17.5274 22.2811 17.2102C21.8908 16.8979 21.732 16.5133 21.6722 16.2741L25.5528 15.304C25.4617 14.9398 25.2483 14.4614 24.7799 14.0867C24.3052 13.7069 23.7789 13.6016 23.3781 13.6016V17.6016ZM21.6438 16.1417L25.5813 38.126L29.5187 37.4208L25.5812 15.4365L21.6438 16.1417ZM29.5201 38.1179L33.3639 16.1335L29.4236 15.4446L25.5799 37.429L29.5201 38.1179ZM33.334 16.2741C33.2742 16.5133 33.1155 16.8979 32.7252 17.2102C32.3286 17.5274 31.9039 17.6016 31.6281 17.6016V13.6016C31.2274 13.6016 30.7011 13.7069 30.2264 14.0867C29.758 14.4614 29.5445 14.9398 29.4535 15.304L33.334 16.2741ZM31.6281 17.6016H36.9953V13.6016H31.6281V17.6016ZM36.9953 17.6016C36.9304 17.6016 36.7809 17.5971 36.5884 17.5458C36.3988 17.4952 36.0658 17.3716 35.7569 17.0627C34.9719 16.2777 35.2174 15.3342 35.3102 15.0868L39.0555 16.4913C39.1951 16.119 39.4328 15.0817 38.5853 14.2342C37.9531 13.602 37.1708 13.6016 36.9953 13.6016V17.6016ZM35.2207 15.4014L28.7051 48.378L32.6293 49.1533L39.1449 16.1767L35.2207 15.4014ZM28.6771 48.5666C28.6963 48.3752 28.7819 47.9279 29.1827 47.5272C29.6139 47.0959 30.1246 47 30.4328 47V51C30.8816 51 31.5017 50.865 32.0111 50.3556C32.4899 49.8768 32.6225 49.3123 32.6573 48.9646L28.6771 48.5666ZM42.3953 48.7656L40.3953 48.7628V48.7656H42.3953ZM42.4422 15.7891L44.4422 15.7919V15.7891H42.4422ZM48.2078 21.3906V19.3906H46.2078V21.3906H48.2078ZM48.2078 28.8906H46.2078V30.8906H48.2078V28.8906ZM58.2391 29.0781H56.2391V29.0867L56.2391 29.0954L58.2391 29.0781ZM58.2859 34.5156H60.2859V34.507L60.2859 34.4984L58.2859 34.5156ZM48.2078 34.7031V32.7031H46.2078V34.7031H48.2078ZM48.2078 43.0938H46.2078V45.0938H48.2078V43.0938ZM58.0984 47H42.5828V51H58.0984V47ZM42.5828 47C42.9617 47 43.5627 47.1405 44.0039 47.692C44.3769 48.1583 44.3953 48.6301 44.3953 48.7656H40.3953C40.3953 49.0574 40.4449 49.6464 40.8805 50.1908C41.3841 50.8204 42.0789 51 42.5828 51V47ZM44.3953 48.7685L44.4422 15.7919L40.4422 15.7862L40.3953 48.7628L44.3953 48.7685ZM44.4422 15.7891C44.4422 16.0349 44.3794 16.5865 43.9033 17.0627C43.4272 17.5388 42.8755 17.6016 42.6297 17.6016V13.6016C42.2589 13.6016 41.6135 13.6956 41.0749 14.2342C40.5362 14.7728 40.4422 15.4183 40.4422 15.7891H44.4422ZM42.6297 17.6016H58.0516V13.6016H42.6297V17.6016ZM58.0516 17.6016C57.6727 17.6016 57.0716 17.461 56.6305 16.9095C56.2574 16.4433 56.2391 15.9715 56.2391 15.8359H60.2391C60.2391 15.5441 60.1894 14.9552 59.7539 14.4108C59.2502 13.7811 58.5555 13.6016 58.0516 13.6016V17.6016ZM56.2391 15.8359V21.2031H60.2391V15.8359H56.2391ZM56.2391 21.2031C56.2391 20.9573 56.3019 20.4056 56.778 19.9295C57.2541 19.4534 57.8058 19.3906 58.0516 19.3906V23.3906C58.4224 23.3906 59.0678 23.2966 59.6064 22.758C60.145 22.2194 60.2391 21.5739 60.2391 21.2031H56.2391ZM58.0516 19.3906H48.2078V23.3906H58.0516V19.3906ZM46.2078 21.3906V28.8906H50.2078V21.3906H46.2078ZM48.2078 30.8906H58.0516V26.8906H48.2078V30.8906ZM58.0516 30.8906C57.8058 30.8906 57.2541 30.8278 56.778 30.3517C56.3019 29.8756 56.2391 29.3239 56.2391 29.0781H60.2391C60.2391 28.7073 60.145 28.0619 59.6064 27.5233C59.0678 26.9847 58.4224 26.8906 58.0516 26.8906V30.8906ZM56.2391 29.0954L56.286 34.5329L60.2859 34.4984L60.239 29.0609L56.2391 29.0954ZM56.2859 34.5156C56.2859 34.2698 56.3487 33.7181 56.8249 33.242C57.301 32.7659 57.8527 32.7031 58.0984 32.7031V36.7031C58.4692 36.7031 59.1147 36.6091 59.6533 36.0705C60.1919 35.5319 60.2859 34.8864 60.2859 34.5156H56.2859ZM58.0984 32.7031H48.2078V36.7031H58.0984V32.7031ZM46.2078 34.7031V43.0938H50.2078V34.7031H46.2078ZM48.2078 45.0938H58.0984V41.0938H48.2078V45.0938ZM58.0984 45.0938C57.7195 45.0938 57.1185 44.9532 56.6773 44.4017C56.3043 43.9355 56.2859 43.4637 56.2859 43.3281H60.2859C60.2859 43.0363 60.2363 42.4474 59.8008 41.903C59.2971 41.2733 58.6024 41.0938 58.0984 41.0938V45.0938ZM56.2859 43.3281V48.8125H60.2859V43.3281H56.2859ZM56.2859 48.8125C56.2859 48.5667 56.3487 48.015 56.8249 47.5389C57.301 47.0628 57.8527 47 58.0984 47V51C58.4692 51 59.1147 50.9059 59.6533 50.3673C60.1919 49.8287 60.2859 49.1833 60.2859 48.8125H56.2859ZM64.9516 48.7656L62.9516 48.7599V48.7656H64.9516ZM65.0453 15.7891L67.0453 15.7947V15.7891H65.0453ZM83.1859 20.2656L81.4743 21.3001L81.4784 21.307L81.4826 21.3138L83.1859 20.2656ZM82.6938 30.6953L81.0846 29.5076L81.0753 29.5202L81.0663 29.5328L82.6938 30.6953ZM81.4047 32.1484L80.1553 30.5867L78.4979 31.9126L79.9199 33.4884L81.4047 32.1484ZM84.0063 38.9219L82.0062 38.9219L82.0063 38.9314L84.0063 38.9219ZM84.0531 48.7656L86.0531 48.7656L86.0531 48.7561L84.0531 48.7656ZM70.8109 34.6562V32.6562H68.8176L68.811 34.6496L70.8109 34.6562ZM70.7641 48.7656L68.7641 48.759V48.7656H70.7641ZM70.8109 21.3438V19.3438H68.8109V21.3438H70.8109ZM70.8109 28.8906H68.8109V30.8906H70.8109V28.8906ZM77.5609 27.7891L76.1911 26.3318L76.1838 26.3387L76.1765 26.3457L77.5609 27.7891ZM77.6078 22.4688L76.1936 23.883L76.201 23.8904L76.2086 23.8978L77.6078 22.4688ZM70.5766 47H65.1391V51H70.5766V47ZM65.1391 47C65.518 47 66.119 47.1405 66.5602 47.692C66.9332 48.1583 66.9516 48.6301 66.9516 48.7656H62.9516C62.9516 49.0574 63.0012 49.6464 63.4367 50.1908C63.9404 50.8204 64.6352 51 65.1391 51V47ZM66.9516 48.7713L67.0453 15.7947L63.0453 15.7834L62.9516 48.7599L66.9516 48.7713ZM67.0453 15.7891C67.0453 16.0349 66.9825 16.5865 66.5064 17.0627C66.0303 17.5388 65.4786 17.6016 65.2328 17.6016V13.6016C64.862 13.6016 64.2166 13.6956 63.678 14.2342C63.1394 14.7728 63.0453 15.4183 63.0453 15.7891H67.0453ZM65.2328 17.6016H74.9359V13.6016H65.2328V17.6016ZM74.9359 17.6016C76.3294 17.6016 77.5749 17.936 78.7129 18.5968L80.7215 15.1376C78.9532 14.1109 77.0112 13.6016 74.9359 13.6016V17.6016ZM78.7129 18.5968C79.8791 19.2739 80.7907 20.1691 81.4743 21.3001L84.8976 19.2311C83.8625 17.5184 82.4615 16.148 80.7215 15.1376L78.7129 18.5968ZM81.4826 21.3138C82.1488 22.3964 82.4984 23.6377 82.4984 25.0938H86.4984C86.4984 22.9561 85.9731 20.9786 84.8893 19.2174L81.4826 21.3138ZM82.4984 25.0938C82.4984 26.0604 82.3506 26.8793 82.088 27.5756L85.8308 28.9869C86.2869 27.777 86.4984 26.4709 86.4984 25.0938H82.4984ZM82.088 27.5756C81.7781 28.3975 81.4367 29.0306 81.0846 29.5076L84.3029 31.883C84.9196 31.0475 85.4219 30.0712 85.8308 28.9869L82.088 27.5756ZM81.0663 29.5328C80.6478 30.1188 80.3418 30.4375 80.1553 30.5867L82.6541 33.7102C83.2488 33.2344 83.8023 32.5843 84.3212 31.8578L81.0663 29.5328ZM79.9199 33.4884C81.3219 35.042 82.0063 36.8221 82.0063 38.9219H86.0063C86.0063 35.8342 84.9562 33.0987 82.8895 30.8085L79.9199 33.4884ZM82.0063 38.9314L82.0531 48.7751L86.0531 48.7561L86.0062 38.9124L82.0063 38.9314ZM82.0531 48.7656C82.0531 48.5355 82.112 47.9955 82.5803 47.5272C83.0486 47.0589 83.5886 47 83.8188 47V51C84.2052 51 84.8623 50.902 85.4087 50.3556C85.9552 49.8092 86.0531 49.152 86.0531 48.7656H82.0531ZM83.8188 47H78.3813V51H83.8188V47ZM78.3813 47C78.5111 47 78.9731 47.0142 79.4406 47.3648C80.0164 47.7967 80.1938 48.4183 80.1938 48.8594H76.1938C76.1938 49.3942 76.4024 50.0862 77.0406 50.5648C77.5707 50.9624 78.1264 51 78.3813 51V47ZM80.1938 48.8594V38.9219H76.1938V48.8594H80.1938ZM80.1938 38.9219C80.1938 37.2408 79.5818 35.7456 78.4156 34.5346L75.5344 37.3092C75.9932 37.7857 76.1938 38.2905 76.1938 38.9219H80.1938ZM78.4156 34.5346C77.2203 33.2933 75.6976 32.6562 73.975 32.6562V36.6562C74.6274 36.6562 75.1047 36.863 75.5344 37.3092L78.4156 34.5346ZM73.975 32.6562H70.8109V36.6562H73.975V32.6562ZM68.811 34.6496L68.7641 48.759L72.7641 48.7723L72.8109 34.6629L68.811 34.6496ZM68.7641 48.7656C68.7641 48.6301 68.7824 48.1583 69.1555 47.692C69.5966 47.1405 70.1977 47 70.5766 47V51C71.0805 51 71.7752 50.8204 72.2789 50.1908C72.7144 49.6464 72.7641 49.0574 72.7641 48.7656H68.7641ZM74.9359 19.3438H70.8109V23.3438H74.9359V19.3438ZM68.8109 21.3438V28.8906H72.8109V21.3438H68.8109ZM70.8109 30.8906H74.9359V26.8906H70.8109V30.8906ZM74.9359 30.8906C76.4787 30.8906 77.8391 30.2935 78.9454 29.2324L76.1765 26.3457C75.7515 26.7534 75.3619 26.8906 74.9359 26.8906V30.8906ZM78.9308 29.2463C80.11 28.1379 80.7328 26.7139 80.7328 25.0938H76.7328C76.7328 25.5986 76.5744 25.9715 76.1911 26.3318L78.9308 29.2463ZM80.7328 25.0938C80.7328 23.5205 80.1268 22.1362 79.0071 21.0397L76.2086 23.8978C76.5888 24.2701 76.7328 24.6357 76.7328 25.0938H80.7328ZM79.022 21.0545C77.9089 19.9414 76.5143 19.3438 74.9359 19.3438V23.3438C75.4201 23.3438 75.8067 23.4961 76.1936 23.883L79.022 21.0545ZM94.1406 21.3906H96.1406V19.3906H94.1406V21.3906ZM87.6719 21.1562L85.672 21.1388L85.6719 21.1475V21.1562H87.6719ZM87.7188 15.7891L89.7187 15.8065L89.7188 15.7978V15.7891H87.7188ZM99.9062 21.3906V19.3906H97.9028L97.9063 21.394L99.9062 21.3906ZM99.9531 48.7656H101.953L101.953 48.7622L99.9531 48.7656ZM99.7656 47H94.3516V51H99.7656V47ZM94.3516 47C94.6472 47 95.2194 47.0918 95.6799 47.6035C96.1044 48.0751 96.1406 48.5844 96.1406 48.7656H92.1406C92.1406 49.1031 92.212 49.7296 92.7068 50.2793C93.2376 50.8692 93.9153 51 94.3516 51V47ZM96.1406 48.7656V21.3906H92.1406V48.7656H96.1406ZM94.1406 19.3906H87.9062V23.3906H94.1406V19.3906ZM87.9062 19.3906C88.1364 19.3906 88.6764 19.4495 89.1447 19.9178C89.613 20.3861 89.6719 20.9261 89.6719 21.1562H85.6719C85.6719 21.5427 85.7698 22.1998 86.3163 22.7462C86.8627 23.2927 87.5198 23.3906 87.9062 23.3906V19.3906ZM89.6718 21.1737L89.7187 15.8065L85.7188 15.7716L85.672 21.1388L89.6718 21.1737ZM89.7188 15.7891C89.7188 16.0349 89.6559 16.5865 89.1798 17.0627C88.7037 17.5388 88.152 17.6016 87.9062 17.6016V13.6016C87.5355 13.6016 86.89 13.6956 86.3514 14.2342C85.8128 14.7728 85.7188 15.4183 85.7188 15.7891H89.7188ZM87.9062 17.6016H106.141V13.6016H87.9062V17.6016ZM106.141 17.6016C106.044 17.6016 105.61 17.5946 105.158 17.2659C104.587 16.8512 104.398 16.2381 104.398 15.7891H108.398C108.398 15.2151 108.167 14.5082 107.51 14.031C106.972 13.6398 106.41 13.6016 106.141 13.6016V17.6016ZM104.398 15.7891V21.1562H108.398V15.7891H104.398ZM104.398 21.1562C104.398 21.0207 104.417 20.5489 104.79 20.0826C105.231 19.5311 105.832 19.3906 106.211 19.3906V23.3906C106.715 23.3906 107.41 23.211 107.913 22.5814C108.349 22.037 108.398 21.4481 108.398 21.1562H104.398ZM106.211 19.3906H99.9062V23.3906H106.211V19.3906ZM97.9063 21.394L97.9531 48.769L101.953 48.7622L101.906 21.3872L97.9063 21.394ZM97.9531 48.7656C97.9531 48.6301 97.9715 48.1583 98.3445 47.692C98.7857 47.1405 99.3867 47 99.7656 47V51C100.27 51 100.964 50.8204 101.468 50.1908C101.904 49.6464 101.953 49.0574 101.953 48.7656H97.9531ZM111.142 48.7656L109.142 48.7628V48.7656H111.142ZM111.189 15.7891L113.189 15.7919V15.7891H111.189ZM116.955 15.7891L114.955 15.7891L114.955 15.7919L116.955 15.7891ZM117.002 48.7656L119.002 48.7656L119.002 48.7628L117.002 48.7656ZM116.814 47H111.377V51H116.814V47ZM111.377 47C111.607 47 112.147 47.0589 112.615 47.5272C113.083 47.9955 113.142 48.5355 113.142 48.7656H109.142C109.142 49.152 109.24 49.8092 109.787 50.3556C110.333 50.902 110.99 51 111.377 51V47ZM113.142 48.7685L113.189 15.7919L109.189 15.7862L109.142 48.7628L113.142 48.7685ZM113.189 15.7891C113.189 16.0349 113.126 16.5865 112.65 17.0627C112.174 17.5388 111.622 17.6016 111.377 17.6016V13.6016C111.006 13.6016 110.36 13.6956 109.822 14.2342C109.283 14.7728 109.189 15.4183 109.189 15.7891H113.189ZM111.377 17.6016H116.767V13.6016H111.377V17.6016ZM116.767 17.6016C116.521 17.6016 115.97 17.5388 115.494 17.0627C115.017 16.5865 114.955 16.0349 114.955 15.7891H118.955C118.955 15.4183 118.861 14.7728 118.322 14.2342C117.783 13.6956 117.138 13.6016 116.767 13.6016V17.6016ZM114.955 15.7919L115.002 48.7685L119.002 48.7628L118.955 15.7862L114.955 15.7919ZM115.002 48.7656C115.002 48.6301 115.02 48.1583 115.393 47.692C115.834 47.1405 116.435 47 116.814 47V51C117.318 51 118.013 50.8204 118.516 50.1908C118.952 49.6464 119.002 49.0574 119.002 48.7656H115.002ZM127.722 48.1797L128.773 46.4783L128.765 46.4731L127.722 48.1797ZM124.323 44.7109L122.594 45.7152L122.598 45.7221L122.602 45.729L124.323 44.7109ZM124.347 19.8438L126.064 20.87L126.07 20.859L126.076 20.848L124.347 19.8438ZM127.745 16.375L128.78 18.0867L128.787 18.0825L128.794 18.0783L127.745 16.375ZM137.191 16.3281L138.225 14.6165L138.218 14.6123L138.211 14.6082L137.191 16.3281ZM140.566 19.7734L138.833 20.7718L138.837 20.7788L138.841 20.7858L140.566 19.7734ZM129.925 42.5547L128.452 43.9075L128.459 43.9151L128.466 43.9226L129.925 42.5547ZM134.988 42.5781L136.448 43.945L136.455 43.9373L136.462 43.9296L134.988 42.5781ZM136.019 37.4688H138.019V35.4688H136.019V37.4688ZM140.566 44.7109L142.287 45.729L142.291 45.7221L142.295 45.7152L140.566 44.7109ZM132.409 47.4688C131.023 47.4688 129.828 47.1304 128.773 46.4783L126.67 49.881C128.397 50.9477 130.327 51.4688 132.409 51.4688V47.4688ZM128.765 46.4731C127.645 45.7886 126.742 44.8716 126.045 43.6929L122.602 45.729C123.624 47.4565 124.987 48.8521 126.679 49.8863L128.765 46.4731ZM126.053 43.7067C125.399 42.5798 125.058 41.3054 125.058 39.8359H121.058C121.058 41.9602 121.561 43.9358 122.594 45.7152L126.053 43.7067ZM125.058 39.8359V24.625H121.058V39.8359H125.058ZM125.058 24.625C125.058 23.2194 125.398 21.9831 126.064 20.87L122.63 18.8175C121.577 20.5794 121.058 22.5306 121.058 24.625H125.058ZM126.076 20.848C126.754 19.6818 127.649 18.7703 128.78 18.0867L126.711 14.6633C124.998 15.6985 123.628 17.0994 122.617 18.8395L126.076 20.848ZM128.794 18.0783C129.897 17.3995 131.088 17.0625 132.409 17.0625V13.0625C130.356 13.0625 128.438 13.6005 126.697 14.6717L128.794 18.0783ZM132.409 17.0625C133.841 17.0625 135.078 17.4001 136.17 18.0481L138.211 14.6082C136.459 13.5686 134.509 13.0625 132.409 13.0625V17.0625ZM136.156 18.0398C137.289 18.7245 138.174 19.6277 138.833 20.7718L142.299 18.7751C141.301 17.0441 139.936 15.6505 138.225 14.6165L136.156 18.0398ZM138.841 20.7858C139.49 21.8925 139.831 23.1553 139.831 24.625H143.831C143.831 22.5009 143.328 20.5294 142.29 18.761L138.841 20.7858ZM139.831 24.625V26.8281H143.831V24.625H139.831ZM139.831 26.8281C139.831 26.4492 139.972 25.8482 140.523 25.407C140.99 25.034 141.461 25.0156 141.597 25.0156V29.0156C141.889 29.0156 142.478 28.966 143.022 28.5305C143.652 28.0268 143.831 27.332 143.831 26.8281H139.831ZM141.597 25.0156H136.206V29.0156H141.597V25.0156ZM136.206 25.0156C136.452 25.0156 137.004 25.0784 137.48 25.5545C137.956 26.0306 138.019 26.5823 138.019 26.8281H134.019C134.019 27.1989 134.113 27.8444 134.651 28.383C135.19 28.9216 135.835 29.0156 136.206 29.0156V25.0156ZM138.019 26.8281V25H134.019V26.8281H138.019ZM138.019 25C138.019 23.3819 137.551 21.8866 136.502 20.6701L133.473 23.283C133.799 23.6603 134.019 24.1806 134.019 25H138.019ZM136.502 20.6701C135.443 19.4433 134.036 18.7812 132.409 18.7812V22.7812C132.845 22.7812 133.157 22.9161 133.473 23.283L136.502 20.6701ZM132.409 18.7812C130.856 18.7812 129.529 19.454 128.49 20.5608L131.407 23.2986C131.805 22.8741 132.119 22.7812 132.409 22.7812V18.7812ZM128.49 20.5608C127.431 21.6897 126.87 23.0749 126.87 24.625H130.87C130.87 24.1126 131.029 23.7009 131.407 23.2986L128.49 20.5608ZM126.87 24.625V39.8359H130.87V24.625H126.87ZM126.87 39.8359C126.87 41.3799 127.407 42.77 128.452 43.9075L131.398 41.2019C131.036 40.8082 130.87 40.3857 130.87 39.8359H126.87ZM128.466 43.9226C129.514 45.0405 130.857 45.6797 132.409 45.6797V41.6797C132.056 41.6797 131.742 41.5689 131.384 41.1868L128.466 43.9226ZM132.409 45.6797C133.978 45.6797 135.371 45.0946 136.448 43.945L133.527 41.2113C133.229 41.5304 132.903 41.6797 132.409 41.6797V45.6797ZM136.462 43.9296C137.509 42.7873 138.019 41.3817 138.019 39.8359H134.019C134.019 40.4464 133.841 40.869 133.513 41.2267L136.462 43.9296ZM138.019 39.8359V37.4688H134.019V39.8359H138.019ZM136.019 35.4688H132.667V39.4688H136.019V35.4688ZM132.667 35.4688C132.845 35.4688 133.351 35.505 133.819 35.9303C134.323 36.3884 134.409 36.9525 134.409 37.2344H130.409C130.409 37.6725 130.539 38.3538 131.128 38.89C131.682 39.3934 132.318 39.4688 132.667 39.4688V35.4688ZM134.409 37.2344V31.8672H130.409V37.2344H134.409ZM134.409 31.8672C134.409 32.1491 134.323 32.7132 133.819 33.1713C133.351 33.5965 132.845 33.6328 132.667 33.6328V29.6328C132.318 29.6328 131.682 29.7082 131.128 30.2115C130.539 30.7478 130.409 31.429 130.409 31.8672H134.409ZM132.667 33.6328H141.644V29.6328H132.667V33.6328ZM141.644 33.6328C141.265 33.6328 140.664 33.4923 140.223 32.9408C139.85 32.4745 139.831 32.0027 139.831 31.8672H143.831C143.831 31.5754 143.782 30.9864 143.346 30.442C142.842 29.8124 142.148 29.6328 141.644 29.6328V33.6328ZM139.831 31.8672V39.8359H143.831V31.8672H139.831ZM139.831 39.8359C139.831 41.3054 139.49 42.5798 138.836 43.7067L142.295 45.7152C143.328 43.9358 143.831 41.9602 143.831 39.8359H139.831ZM138.844 43.6929C138.147 44.8716 137.244 45.7886 136.124 46.4731L138.21 49.8863C139.902 48.8521 141.265 47.4565 142.287 45.729L138.844 43.6929ZM136.124 46.4731C135.055 47.1268 133.834 47.4688 132.409 47.4688V51.4688C134.516 51.4688 136.467 50.9513 138.21 49.8863L136.124 46.4731ZM151.802 48.1562L150.753 49.8596L150.762 49.8646L151.802 48.1562ZM148.356 44.6641L146.63 45.6741L146.636 45.685L146.643 45.6958L148.356 44.6641ZM147.067 39.8359L145.067 39.8298V39.8359H147.067ZM147.114 24.625L149.114 24.6312V24.625H147.114ZM148.403 19.8203L150.115 20.8548L150.121 20.8438L150.128 20.8327L148.403 19.8203ZM151.825 16.375L152.851 18.0916L152.858 18.0875L152.865 18.0834L151.825 16.375ZM161.223 16.3516L160.172 18.0529L160.181 18.0581L161.223 16.3516ZM164.598 19.8203L162.869 20.8246L162.875 20.8356L162.882 20.8466L164.598 19.8203ZM165.887 24.625L163.887 24.625L163.888 24.6312L165.887 24.625ZM165.934 39.8359L167.934 39.8359L167.934 39.8298L165.934 39.8359ZM164.669 44.6406L166.395 45.6507L166.398 45.6449L164.669 44.6406ZM159.044 42.5078L160.516 43.8619L160.522 43.8547L160.529 43.8474L159.044 42.5078ZM160.122 39.8359L162.122 39.8359L162.122 39.8298L160.122 39.8359ZM160.075 24.625L158.075 24.625L158.075 24.6312L160.075 24.625ZM153.981 42.5547L152.508 43.9075L152.515 43.9151L152.522 43.9226L153.981 42.5547ZM156.512 47.4688C155.172 47.4688 153.962 47.1297 152.841 46.4479L150.762 49.8646C152.516 50.9328 154.447 51.4688 156.512 51.4688V47.4688ZM152.85 46.4529C151.705 45.7482 150.782 44.8162 150.07 43.6324L146.643 45.6958C147.68 47.4181 149.055 48.8143 150.753 49.8596L152.85 46.4529ZM150.082 43.654C149.408 42.5007 149.067 41.2415 149.067 39.8359H145.067C145.067 41.9304 145.586 43.8899 146.63 45.6741L150.082 43.654ZM149.067 39.8421L149.114 24.6312L145.114 24.6188L145.067 39.8298L149.067 39.8421ZM149.114 24.625C149.114 23.1811 149.458 21.942 150.115 20.8548L146.691 18.7858C145.63 20.5424 145.114 22.5064 145.114 24.625H149.114ZM150.128 20.8327C150.801 19.6863 151.701 18.7795 152.851 18.0916L150.799 14.6584C149.074 15.6892 147.693 17.0793 146.678 18.8079L150.128 20.8327ZM152.865 18.0834C153.988 17.3997 155.191 17.0625 156.512 17.0625V13.0625C154.459 13.0625 152.537 13.6003 150.785 14.6666L152.865 18.0834ZM156.512 17.0625C157.918 17.0625 159.12 17.4026 160.172 18.0529L162.275 14.6502C160.546 13.5817 158.607 13.0625 156.512 13.0625V17.0625ZM160.181 18.0581C161.297 18.7406 162.189 19.6531 162.869 20.8246L166.328 18.816C165.321 17.0813 163.962 15.6813 162.266 14.645L160.181 18.0581ZM162.882 20.8466C163.546 21.9568 163.887 23.2003 163.887 24.625H167.887C167.887 22.5184 167.37 20.5588 166.315 18.7941L162.882 20.8466ZM163.888 24.6312L163.934 39.8421L167.934 39.8298L167.887 24.6188L163.888 24.6312ZM163.934 39.8359C163.934 41.2484 163.598 42.5012 162.939 43.6364L166.398 45.6449C167.427 43.8738 167.934 41.9234 167.934 39.8359H163.934ZM162.943 43.6306C162.246 44.8218 161.336 45.7533 160.199 46.4529L162.295 49.8596C164.002 48.8092 165.373 47.3969 166.395 45.6506L162.943 43.6306ZM160.199 46.4529C159.105 47.1262 157.892 47.4688 156.512 47.4688V51.4688C158.602 51.4688 160.545 50.9363 162.295 49.8596L160.199 46.4529ZM156.512 45.6797C158.098 45.6797 159.459 45.0108 160.516 43.8619L157.572 41.1537C157.191 41.5673 156.865 41.6797 156.512 41.6797V45.6797ZM160.529 43.8474C161.547 42.719 162.122 41.3615 162.122 39.8359H158.122C158.122 40.2791 157.978 40.7029 157.559 41.1683L160.529 43.8474ZM162.122 39.8298L162.075 24.6188L158.075 24.6312L158.122 39.8421L162.122 39.8298ZM162.075 24.625C162.075 23.0996 161.576 21.709 160.543 20.5797L157.592 23.2797C157.902 23.6191 158.075 24.0254 158.075 24.625H162.075ZM160.543 20.5797C159.477 19.4145 158.082 18.8281 156.512 18.8281V22.8281C157.005 22.8281 157.314 22.9761 157.592 23.2797L160.543 20.5797ZM156.512 18.8281C154.977 18.8281 153.622 19.4136 152.552 20.5077L155.411 23.3048C155.747 22.9614 156.079 22.8281 156.512 22.8281V18.8281ZM152.552 20.5077C151.449 21.6347 150.927 23.0588 150.927 24.625H154.927C154.927 24.0037 155.107 23.6153 155.411 23.3048L152.552 20.5077ZM150.927 24.625V39.8359H154.927V24.625H150.927ZM150.927 39.8359C150.927 41.3799 151.464 42.77 152.508 43.9075L155.454 41.2019C155.093 40.8082 154.927 40.3857 154.927 39.8359H150.927ZM152.522 43.9226C153.585 45.0557 154.948 45.6797 156.512 45.6797V41.6797C156.108 41.6797 155.784 41.5537 155.44 41.1868L152.522 43.9226Z" fill="url(#paint0_linear_20_32)" mask="url(#path-1-outside-1_20_32)"/>
</g>
<defs>
<linearGradient id="paint0_linear_20_32" x1="14.5" y1="34" x2="170" y2="34" gradientUnits="userSpaceOnUse">
<stop stop-color="#FFBD30"/>
<stop offset="0.335" stop-color="#FF9D39"/>
<stop offset="0.66" stop-color="#FF6749"/>
<stop offset="1" stop-color="#FF4C4F"/>
</linearGradient>
<clipPath id="clip0_20_32">
<rect width="185" height="67" fill="white"/>
</clipPath>
</defs>
</svg>
